<svg width="91" height="37" viewBox="0 0 91 37" fill="none" xmlns="http://www.w3.org/2000/svg">
<rect x="0.5" y="0.5" width="90" height="36" fill="black" fill-opacity="0.2" stroke="white"/>
<path d="M25.1641 23L22.1465 14.5449H23.5703L25.873 21.5234H25.9082L28.2168 14.5449H29.6172L26.5996 23H25.1641ZM38.5619 23H33.1947V14.5449H38.5619V15.6758H34.5072V18.1484H38.3451V19.2383H34.5072V21.8633H38.5619V23ZM47.7995 23H42.5495V14.5449H43.862V21.8633H47.7995V23ZM56.9317 23H51.5645V14.5449H56.9317V15.6758H52.877V18.1484H56.7149V19.2383H52.877V21.8633H56.9317V23ZM61.8393 20.6445C61.8862 21.0625 62.0952 21.3984 62.4663 21.6523C62.8373 21.9062 63.3022 22.0332 63.8608 22.0332C64.392 22.0332 64.8315 21.9102 65.1791 21.6641C65.5229 21.418 65.6948 21.1055 65.6948 20.7266C65.6948 20.3984 65.5717 20.1309 65.3256 19.9238C65.0795 19.7129 64.683 19.541 64.1362 19.4082L63.0405 19.1445C61.5248 18.7773 60.767 18.0176 60.767 16.8652C60.767 16.1387 61.0541 15.5469 61.6284 15.0898C62.1987 14.6328 62.937 14.4043 63.8432 14.4043C64.7338 14.4043 65.4604 14.6328 66.0229 15.0898C66.5854 15.543 66.8764 16.1348 66.8959 16.8652H65.6186C65.5795 16.4473 65.3979 16.1152 65.0737 15.8691C64.7534 15.6309 64.3373 15.5117 63.8256 15.5117C63.3178 15.5117 62.9038 15.6289 62.5834 15.8633C62.267 16.0977 62.1088 16.4023 62.1088 16.7773C62.1088 17.0742 62.228 17.3184 62.4663 17.5098C62.7045 17.6973 63.0971 17.8594 63.644 17.9961L64.5756 18.2246C65.4428 18.4277 66.0698 18.7148 66.4565 19.0859C66.8393 19.4531 67.0307 19.9473 67.0307 20.5684C67.0307 21.3574 66.7377 21.9844 66.1518 22.4492C65.5659 22.9102 64.7709 23.1406 63.767 23.1406C62.8256 23.1406 62.0639 22.916 61.4819 22.4668C60.8959 22.0137 60.5834 21.4062 60.5444 20.6445H61.8393Z" fill="white"/>
</svg>
