<svg width="1374" height="705" viewBox="0 0 1374 705" fill="none" xmlns="http://www.w3.org/2000/svg">
<path d="M867.194 30.8107C1085.36 -50.7315 992.116 51.7575 1177.71 83.9508C1263.5 83.9508 1340.34 87.1677 1313.34 146.892C1284.19 211.382 1406.14 256.782 1365.69 309.922C1292.99 405.427 1354.39 403.819 1327.03 462.633C1299.66 521.448 1268.13 510.097 1284.19 574.587C1296.87 625.47 1209.24 637.529 1177.71 676.738C1126.58 740.327 1052.79 676.738 992.116 676.738C931.44 676.738 959.363 621.662 867.194 649.395C808.897 666.935 820.509 693.072 721.5 701.971C662.479 707.275 653.043 684.477 555.485 694.279C457.927 704.082 411.701 655.581 365.128 637.529C258.647 596.256 179.53 624.978 179.53 537.441C179.53 412.073 30.2185 478.626 5.23414 407.946C-19.7502 337.265 52.8234 315.597 52.8234 230.986C52.8233 102.706 215.817 160.822 292.554 99.9442C369.292 39.0662 399.63 40.4076 555.485 51.7576C711.339 63.1077 725.021 83.9503 867.194 30.8107Z" fill="#F7F9FB"/>
</svg>
