<?xml version="1.0" encoding="utf-8"?>
<!-- Generator: Adobe Illustrator 17.1.0, SVG Export Plug-In . SVG Version: 6.00 Build 0)  -->
<!DOCTYPE svg PUBLIC "-//W3C//DTD SVG 1.1//EN" "http://www.w3.org/Graphics/SVG/1.1/DTD/svg11.dtd">
<svg version="1.1" id="Layer_1" xmlns="http://www.w3.org/2000/svg" xmlns:xlink="http://www.w3.org/1999/xlink" x="0px" y="0px"
	 width="735px" height="650px" viewBox="0 0 735 650" enable-background="new 0 0 735 650" xml:space="preserve">

    <g class="land">
        <path d="M16.7139 228.577C8.4069 279.727 -9.69061 322.918 6.52792 371.254C14.9339 396.392 31.2513 423.278 35.1081 450.94C37.6794 469.478 49.8433 486.852 65.6662 497.237C74.6655 503.06 85.346 505.778 95.8287 508.302C114.915 512.961 155.066 506.749 174.35 509.563C192.448 512.281 211.93 517.716 225.676 527.811C250.103 545.864 275.024 557.705 312.9 557.996C348.403 558.287 382.125 542.467 417.134 536.74C434.539 533.925 452.34 534.411 470.042 533.731C508.709 532.275 546.684 528.684 583.275 516.358C603.745 509.466 625.106 496.655 638.358 479.863C662.488 449.387 670.795 414.542 681.871 378.533C686.618 362.907 697.299 351.065 704.023 335.924C711.144 319.909 715.001 295.353 716.385 277.883C720.341 228.479 736.559 195.479 734.878 146.853C734.087 125.402 726.868 95.6052 711.539 80.2698C705.21 73.961 697.299 69.5933 689.387 65.4198C652.104 45.6196 619.173 22.5195 579.714 7.37827C543.223 -6.59828 498.424 3.59295 459.855 3.49589C422.573 3.39883 384.301 -3.20121 347.513 2.33117C326.547 5.43707 305.878 10.3871 285.407 15.7254C245.85 25.9166 206.194 35.8167 167.625 49.2108C135.782 60.3727 86.8294 74.5434 65.0729 101.138C35.8004 136.758 25.911 171.409 16.7139 228.577Z"
              fill="#DFEDD2"/>
    </g>

    <g class="work-area">
        <path d="M702.4 332.808C700.529 345.414 698.263 358.219 692.749 369.625C687.332 380.83 678.961 390.234 670.787 399.438C662.121 409.243 653.356 419.047 644.69 428.852C629.425 446.06 611.895 464.468 589.245 466.569C581.957 467.269 574.275 466.269 567.48 468.97C559.405 472.171 554.087 479.975 547.193 485.277C537.345 492.881 525.33 494.582 513.611 497.483C501.793 500.484 493.521 506.187 482.885 510.589C456.886 521.294 418.773 519.393 391.001 517.192C380.366 516.392 369.729 514.791 359.093 514.891C344.617 515.091 330.435 518.192 316.156 520.594C285.429 525.596 254.309 526.496 223.288 526.296C217.083 526.296 210.682 525.796 204.182 525.296C203.985 525.296 203.887 525.296 203.69 525.296C203.591 525.296 203.493 525.296 203.394 525.296C203.296 525.296 203.099 525.296 203 525.296C202.902 525.296 202.902 525.296 202.804 525.296C202.508 525.296 202.311 525.296 202.016 525.196C201.622 525.196 201.228 525.196 200.834 525.096C200.44 525.096 199.948 525.096 199.554 524.996C197.092 524.896 194.63 524.796 192.168 524.796C191.971 524.796 191.774 524.796 191.577 524.796C191.478 524.796 191.478 524.796 191.38 524.796C191.38 524.796 191.38 524.796 191.281 524.796H190.887C187.933 524.796 184.978 524.896 182.122 525.196C169.615 526.296 158.29 532.199 145.487 530.698C137.215 529.698 129.238 525.896 120.867 526.496C111.708 527.097 103.337 532.999 94.08 532.999C81.6714 533.099 71.5278 522.795 64.831 512.19C52.0284 491.78 44.0304 468.111 46 444C47.7727 421.99 61.4826 402.44 63.5508 380.83C64.7325 368.224 63.7477 355.418 62.6644 342.812C59.4145 303.995 50.1573 268.178 58.7252 229.461C64.4371 203.949 73.5959 179.238 86.103 156.427C91.421 146.623 97.7238 135.718 95.5572 124.113C93.4891 112.907 81.2774 107.005 78.2245 96.3999C73.8913 80.9929 91.1256 73.1894 102.057 66.8865C140.957 44.4762 196.895 20.9655 242.688 26.1679C291.634 31.7705 344.124 21.7659 393.857 21.7659C413.357 21.7659 433.053 25.7677 452.257 24.4671C453.439 24.3671 454.522 24.267 455.704 24.167C479.339 21.7659 502.285 17.0637 526.315 18.1642C561.079 19.765 595.547 27.3684 628.046 39.8741C647.053 47.1775 665.765 56.5818 679.749 71.4886C711.46 105.404 706.536 149.124 709.786 191.743C713.134 238.465 709.195 286.187 702.4 332.808Z"
              fill="#54341D"/>
    </g>

    <g class="decor">
        <path d="M557.5 89.1C557.6 89 557.7 89.1 557.8 89.2L558.4 90.2C558.5 90.3 558.4 90.4 558.3 90.5C558.2 90.6 558.1 90.5 558 90.4L557.4 89.4C557.4 89.3 557.4 89.2 557.5 89.1Z"
              fill="#5A575B"/>
        <path d="M556.5 87.3998C556.6 87.2998 556.7 87.3998 556.8 87.4998L557.4 88.4998C557.5 88.5998 557.4 88.6998 557.3 88.7998C557.2 88.8998 557.1 88.7998 557 88.6998L556.4 87.6998C556.3 87.5998 556.4 87.4998 556.5 87.3998Z"
              fill="#5A575B"/>
        <path d="M551.8 92.6C551.9 92.5 552 92.6 552.1 92.7L552.7 93.7C552.8 93.8 552.7 93.9 552.6 94C552.5 94.1 552.4 94 552.3 93.9L551.7 92.9C551.7 92.8 551.7 92.7 551.8 92.6Z"
              fill="#5A575B"/>
        <path d="M550.8 90.8998C550.9 90.7998 551 90.8998 551.1 90.9998L551.7 91.9998C551.8 92.0998 551.7 92.1998 551.6 92.2998C551.5 92.3998 551.4 92.2998 551.3 92.1998L550.7 91.1998C550.7 91.0998 550.7 90.9998 550.8 90.8998Z"
              fill="#5A575B"/>
        <path d="M562.982 97.7359L563.407 97.4736L562.883 96.6222L562.457 96.8845L562.982 97.7359Z" fill="#5A575B"/>
        <path d="M556.82 101.543L557.245 101.281L556.721 100.429L556.295 100.692L556.82 101.543Z" fill="#5A575B"/>
        <path d="M556.5 100.6L556.3 100.2L556.7 100" fill="#5A575B"/>
        <path d="M555.9 100.2L556.6 99.7002L556.9 100.2L556.6 100.3L556.7 100.5L556.3 100.8L555.9 100.2Z" fill="#5A575B"/>
        <path d="M562.7 96.7999L562.5 96.3999L562 96.6999" fill="#5A575B"/>
        <path d="M561.9 96.5001L562.5 96.1001L562.9 96.7001L562.5 97.0001L562.4 96.8001L562.1 96.9001L561.9 96.5001Z"
              fill="#5A575B"/>
        <path d="M550.7 90.3L556 87L559.4 92.6L559.6 93.6L554.9 96.5L554 95.8L550.7 90.3Z" fill="#5A575B"/>
        <path d="M557.643 101.078L562.411 98.1411L559.578 93.5435L554.811 96.4807L557.643 101.078Z" fill="#5A575B"/>
        <path d="M554.8 96.1001L557.4 100.4C557.2 100.5 556.9 100.5 556.7 100.2L554.6 96.8001C554.5 96.5001 554.6 96.2001 554.8 96.1001Z"
              fill="#5A575B"/>
        <path d="M559.4 93.1999L562 97.4999C562.2 97.3999 562.3 96.9999 562.2 96.7999L560.1 93.3999C559.9 93.1999 559.6 93.0999 559.4 93.1999Z"
              fill="#5A575B"/>
        <path d="M560.384 100.249C561.701 99.4377 562.604 98.5133 562.401 98.1841C562.198 97.855 560.966 98.2457 559.65 99.0568C558.333 99.8679 557.43 100.792 557.633 101.121C557.836 101.451 559.067 101.06 560.384 100.249Z"
              fill="#5A575B"/>
        <path d="M543.6 109.8C543.6 109.7 543.7 109.6 543.9 109.6L545.1 109.8C545.2 109.8 545.3 109.9 545.3 110.1C545.3 110.2 545.2 110.3 545 110.3L543.8 110.1C543.7 110 543.6 109.9 543.6 109.8Z"
              fill="#5A575B"/>
        <path d="M541.7 109.5C541.7 109.4 541.8 109.3 542 109.3L543.2 109.5C543.3 109.5 543.4 109.6 543.4 109.8C543.4 109.9 543.3 110 543.1 110L541.9 109.8C541.7 109.7 541.6 109.6 541.7 109.5Z"
              fill="#5A575B"/>
        <path d="M542.5 116.4C542.5 116.3 542.6 116.2 542.8 116.2L544 116.4C544.1 116.4 544.2 116.5 544.2 116.7C544.2 116.8 544.1 116.9 543.9 116.9L542.7 116.7C542.6 116.6 542.5 116.5 542.5 116.4Z"
              fill="#5A575B"/>
        <path d="M540.6 116C540.6 115.9 540.7 115.8 540.9 115.8L542.1 116C542.2 116 542.3 116.1 542.3 116.3C542.3 116.4 542.2 116.5 542 116.5L540.8 116.3C540.6 116.3 540.6 116.2 540.6 116Z"
              fill="#5A575B"/>
        <path d="M553.737 111.364L553.818 110.871L552.83 110.71L552.75 111.204L553.737 111.364Z" fill="#5A575B"/>
        <path d="M552.547 118.491L552.627 117.997L551.64 117.837L551.559 118.33L552.547 118.491Z" fill="#5A575B"/>
        <path d="M551.7 118.099L551.2 117.999L551.3 117.399" fill="#5A575B"/>
        <path d="M550.9 118.199L551 117.399L551.5 117.499V117.799H551.7L551.6 118.299L550.9 118.199Z" fill="#5A575B"/>
        <path d="M552.8 110.899L552.4 110.799L552.3 111.399" fill="#5A575B"/>
        <path d="M552 111.299L552.2 110.5L552.9 110.599L552.8 111.099H552.6L552.5 111.4L552 111.299Z" fill="#5A575B"/>
        <path d="M540 115.7L541 109.6L547.5 110.6L548.3 111.1L547.4 116.6L546.4 116.8L540 115.7Z" fill="#5A575B"/>
        <path d="M552.714 117.548L553.612 112.021L548.281 111.155L547.384 116.683L552.714 117.548Z" fill="#5A575B"/>
        <path d="M547.1 116.399L552.1 117.199C552.1 117.499 551.8 117.699 551.5 117.599L547.5 116.999C547.2 116.899 547 116.599 547.1 116.399Z"
              fill="#5A575B"/>
        <path d="M548 111L553 111.8C553 111.5 552.9 111.3 552.6 111.2L548.6 110.6C548.3 110.6 548 110.8 548 111Z"
              fill="#5A575B"/>
        <path d="M553.871 114.748C554.119 113.221 554.011 111.934 553.629 111.872C553.247 111.81 552.737 112.997 552.489 114.523C552.241 116.05 552.35 117.337 552.731 117.399C553.113 117.461 553.623 116.274 553.871 114.748Z"
              fill="#5A575B"/>

    </g>

    <g class="jd">
        <path d="M590.174 63.2955C574.039 138.53 549.625 201.831 517.461 251.608C490.393 293.43 463.325 317.636 445.386 333.547C442.308 336.274 439.441 338.888 436.894 341.161C417.044 359.572 315.141 442.307 239.032 503.903C237.545 505.153 235.953 506.29 234.467 507.54C232.769 508.904 231.07 510.267 229.372 511.631C211.857 525.723 196.041 538.452 183.409 548.68C183.409 548.68 183.303 548.68 183.303 548.793C180.756 550.839 178.42 552.771 176.085 554.59C172.051 557.772 168.548 560.613 165.47 563.113C163.665 564.59 162.073 565.84 160.587 567.091C160.375 567.204 160.163 567.432 159.95 567.659C159.526 567.659 159.101 567.659 158.676 567.545C158.252 567.545 157.721 567.545 157.297 567.432C154.643 567.318 151.989 567.204 149.335 567.204C149.123 567.204 148.911 567.204 148.698 567.204H148.592L148.486 567.091C148.592 566.977 149.76 566.068 151.777 564.477C153.9 562.772 157.084 560.158 161.118 556.976C161.118 556.976 161.118 556.976 161.224 556.862C164.196 554.476 167.699 551.635 171.627 548.453C173.856 546.634 176.191 544.816 178.739 542.77C182.772 539.588 187.124 536.065 191.689 532.315C192.007 532.087 192.22 531.86 192.538 531.633C194.767 529.815 196.996 527.996 199.332 526.178C199.65 525.951 199.862 525.723 200.181 525.496C202.41 523.678 204.639 521.859 206.974 520.041C207.293 519.814 207.505 519.586 207.824 519.359C210.053 517.541 212.282 515.722 214.617 513.904C214.936 513.677 215.148 513.449 215.466 513.222C218.014 511.176 220.668 509.017 223.321 506.972C223.852 506.517 224.383 506.176 224.807 505.721C225.126 505.494 225.551 505.153 225.869 504.812C226.718 504.13 227.461 503.449 228.31 502.767C228.841 502.312 229.372 501.971 229.903 501.517C231.389 500.38 232.875 499.13 234.361 497.88C245.719 488.674 257.714 479.015 269.921 469.127C270.664 468.559 271.407 467.991 272.15 467.309C272.893 466.741 273.53 466.172 274.273 465.604C342.315 410.372 415.876 350.253 432.011 335.252C434.559 332.865 437.531 330.251 440.609 327.524C458.23 311.84 484.873 288.088 511.305 247.176C542.937 198.194 567.033 135.802 582.956 61.5908L590.174 63.2955Z"
        fill="#57351E"/>
        <path d="M582.531 60.9087L582.425 61.4769C566.608 135.574 542.513 197.966 510.88 246.834C484.449 287.747 457.805 311.386 440.291 327.069L439.548 327.751C436.682 330.251 434.028 332.638 431.693 334.797C415.239 350.139 338.812 412.417 275.971 463.445C275.335 464.013 274.592 464.581 273.849 465.149C273.105 465.718 272.469 466.286 271.726 466.854C260.261 476.173 248.903 485.379 237.97 494.129C236.59 495.266 235.316 496.289 233.936 497.311C232.663 498.334 231.495 499.243 230.327 500.266C230.009 500.493 229.797 500.721 229.478 500.948L227.992 502.198C227.249 502.766 226.506 503.448 225.657 504.017L225.444 504.244L222.897 506.289C220.243 508.449 217.589 510.494 215.042 512.54C214.723 512.767 214.511 512.995 214.193 513.222C213.025 514.131 211.857 515.154 210.69 516.063C209.522 516.972 208.46 517.881 207.399 518.791C207.081 519.018 206.868 519.245 206.55 519.472C204.427 521.177 202.304 522.882 200.287 524.473L199.756 524.927C199.544 525.155 199.225 525.382 198.907 525.609L197.421 526.859C195.616 528.337 193.918 529.701 192.113 531.064C191.901 531.292 191.583 531.519 191.264 531.746C188.823 533.792 186.381 535.724 184.046 537.542C182.135 539.133 180.225 540.611 178.42 542.088C178.314 542.088 178.314 542.202 178.314 542.202L171.202 547.884C171.202 547.884 171.202 547.884 171.202 547.998C168.973 549.816 166.85 551.521 164.833 553.112L153.157 562.431C150.078 564.931 148.274 566.408 148.061 566.522L147 567.318H147.849H148.274C148.274 567.318 148.274 567.318 148.38 567.318C148.486 567.318 148.486 567.318 148.592 567.318C148.805 567.318 149.017 567.318 149.229 567.318C151.883 567.318 154.537 567.431 157.19 567.545C157.615 567.545 158.146 567.545 158.57 567.659C158.995 567.659 159.419 567.659 159.844 567.772C160.163 567.772 160.375 567.772 160.693 567.886L160.799 567.772L161.33 567.318C161.649 567.09 161.967 566.749 162.286 566.522C162.286 566.522 162.286 566.522 162.392 566.408C163.347 565.613 164.408 564.704 165.576 563.908C165.576 563.908 165.576 563.908 165.682 563.908C167.593 562.317 169.822 560.612 172.051 558.794L176.191 555.498C176.191 555.498 176.191 555.498 176.297 555.385L176.722 555.044C178.845 553.339 181.074 551.521 183.515 549.589L183.622 549.475C195.086 540.27 208.779 529.246 223.534 517.313C225.551 515.722 227.461 514.131 229.478 512.54C231.176 511.176 232.875 509.812 234.573 508.449C234.573 508.449 234.573 508.449 234.679 508.449C316.096 442.761 417.256 360.481 437.106 342.07C439.76 339.57 442.838 336.842 445.598 334.456C463.537 318.432 490.606 294.339 517.78 252.403C550.049 202.626 574.464 139.098 590.598 63.8635L590.704 63.2953L582.531 60.9087ZM158.783 567.09C158.358 567.09 158.04 567.09 157.615 566.977C157.403 566.977 157.19 566.977 156.978 566.977C156.766 566.977 156.553 566.977 156.447 566.977C156.235 566.977 156.129 566.977 155.917 566.977C155.704 566.977 155.598 566.977 155.386 566.977C155.173 566.977 154.961 566.977 154.749 566.977H154.643C153.369 566.977 152.201 566.863 151.034 566.863C150.821 566.863 150.609 566.863 150.397 566.863C150.291 566.863 150.291 566.863 150.184 566.863H149.654C150.184 566.408 151.034 565.727 152.095 564.931C152.626 564.476 153.263 564.022 153.9 563.454L158.146 560.044L161.436 557.317L165.47 554.021C167.487 552.43 169.504 550.725 171.839 548.907C171.839 548.907 171.839 548.907 171.945 548.793L179.057 543.111C183.091 539.929 187.443 536.406 192.007 532.655C192.326 532.428 192.538 532.201 192.857 531.974C194.555 530.61 196.359 529.132 198.164 527.769L199.756 526.519C199.969 526.291 200.287 526.064 200.499 525.95L201.03 525.496C203.047 523.791 205.17 522.2 207.293 520.495C207.611 520.268 207.824 520.041 208.142 519.813C209.204 518.904 210.371 517.995 211.433 517.086C212.6 516.177 213.768 515.268 214.936 514.245C215.148 514.017 215.466 513.79 215.785 513.563C216.846 512.654 218.014 511.745 219.075 510.835C219.712 510.381 220.349 509.812 220.986 509.358C221.835 508.676 222.791 507.994 223.64 507.199L225.232 505.948L226.294 505.153L226.4 505.039C227.143 504.471 227.886 503.789 228.735 503.221L230.327 501.971C242.322 492.311 255.06 481.969 268.01 471.514C268.753 470.945 269.496 470.264 270.239 469.695C270.982 469.127 271.726 468.559 272.469 467.877C336.158 416.281 415.558 351.503 432.436 335.933C434.771 333.774 437.425 331.387 440.291 328.887L441.034 328.205C458.655 312.522 485.298 288.77 511.835 247.744C543.468 198.876 567.564 136.597 583.38 62.4997L589.643 63.9771C573.614 138.87 549.2 201.944 517.143 251.608C490.075 293.429 463.113 317.523 445.174 333.433C442.414 335.82 439.335 338.661 436.682 341.047C417.469 358.89 322.571 436.056 242.853 500.493C241.473 501.63 240.093 502.653 238.819 503.789C237.333 505.039 235.847 506.176 234.361 507.426C217.802 520.836 202.304 533.337 189.141 543.906C187.231 545.497 185.214 546.975 183.409 548.566C183.409 548.566 183.303 548.566 183.303 548.68C180.968 550.612 178.633 552.43 176.51 554.135L176.085 554.476L171.945 557.771C169.61 559.703 167.487 561.408 165.47 562.999C163.878 564.249 162.498 565.386 161.118 566.408L160.587 566.863C160.375 566.977 160.269 567.09 160.056 567.318C159.419 567.09 159.101 567.09 158.783 567.09Z"
              fill="#808086"/>
        <path d="M353.354 210.581C353.567 233.31 353.248 310.476 338.918 349.685C337.963 352.298 337.007 355.14 336.052 357.753L335.521 359.344C321.722 399.348 298.581 435.147 273.955 465.149C273.318 465.831 272.787 466.627 272.15 467.309C271.513 468.104 270.876 468.786 270.239 469.582C259.731 482.083 249.01 493.561 238.607 503.676C237.227 505.039 235.847 506.403 234.467 507.767C232.875 509.358 231.283 510.835 229.69 512.313C226.93 514.927 224.277 517.427 221.623 519.813C199.438 539.929 178.633 555.726 163.878 566.181C163.029 566.749 162.286 567.318 161.542 567.886C161.436 567.886 161.224 567.886 161.118 567.886C161.012 567.886 161.012 567.886 160.906 567.886C160.587 567.886 160.375 567.886 160.056 567.772C159.632 567.772 159.207 567.772 158.783 567.659C158.358 567.659 157.827 567.659 157.403 567.545C154.749 567.431 152.095 567.318 149.441 567.318C149.229 567.318 149.017 567.318 148.805 567.318C148.698 567.318 148.698 567.318 148.592 567.318C148.592 567.318 148.592 567.318 148.486 567.318C148.592 567.318 148.592 567.204 148.698 567.204C148.805 567.204 148.911 567.09 149.017 566.977C149.972 566.295 151.14 565.613 152.201 564.817C152.838 564.363 153.475 563.908 154.218 563.454C155.917 562.317 157.615 561.067 159.526 559.703C163.029 557.317 166.85 554.476 170.884 551.407C170.884 551.407 170.99 551.407 170.99 551.293C173.219 549.589 175.554 547.884 177.889 546.066C178.208 545.838 178.42 545.611 178.739 545.384C180.968 543.679 183.197 541.861 185.638 540.042C185.957 539.815 186.169 539.588 186.488 539.361C188.717 537.656 190.946 535.724 193.281 533.906C193.6 533.678 193.812 533.451 194.13 533.224C196.359 531.405 198.589 529.587 200.818 527.655C201.136 527.428 201.348 527.2 201.667 526.973C203.896 525.155 206.125 523.223 208.354 521.291C208.567 521.063 208.885 520.836 209.204 520.609C211.751 518.336 214.405 516.063 217.059 513.677C217.377 513.336 217.802 512.995 218.12 512.654C219.606 511.29 221.198 509.812 222.684 508.335C223.534 507.54 224.489 506.63 225.338 505.835C225.975 505.267 226.506 504.698 227.143 504.13C228.098 503.221 229.053 502.312 230.009 501.289C231.389 499.925 232.769 498.562 234.149 497.198C269.178 462.536 308.878 413.668 328.622 356.39L329.152 354.799C330.108 352.071 331.063 349.344 332.018 346.616C335.521 337.07 346.879 298.998 346.03 210.468L346.773 60.9087H354.204L353.354 210.581Z"
              fill="#57351E"/>
        <path d="M354.628 60.5679H346.136L345.393 210.695C346.242 298.998 334.991 337.07 331.488 346.616C330.426 349.457 329.471 352.299 328.622 354.799L328.091 356.39C307.392 416.395 264.295 467.082 231.283 499.471C230.752 500.039 230.221 500.494 229.69 501.062C228.735 501.971 227.78 502.994 226.824 503.903C226.187 504.471 225.551 505.039 225.02 505.608C224.171 506.403 223.321 507.199 222.366 508.108C221.305 509.131 220.349 510.04 219.288 510.949C218.757 511.404 218.226 511.858 217.802 512.313C217.589 512.54 217.377 512.767 217.059 512.995L216.74 513.336C214.086 515.722 211.433 518.109 208.885 520.268L208.036 520.95C205.913 522.768 203.684 524.7 201.348 526.632C201.03 526.86 200.818 527.087 200.499 527.314C198.27 529.246 195.935 531.064 193.812 532.883C193.493 533.11 193.281 533.337 192.963 533.565C190.627 535.497 188.398 537.315 186.169 539.02L185.32 539.702C182.985 541.52 180.756 543.338 178.526 545.043L177.677 545.725C175.342 547.543 173.007 549.248 170.777 550.953L170.671 551.066C168.548 552.657 166.531 554.135 164.515 555.612C162.71 556.862 161.012 558.112 159.313 559.362C158.995 559.59 158.676 559.817 158.358 560.044C156.872 561.067 155.386 562.09 154.006 563.113C153.369 563.567 152.626 564.022 151.989 564.477C150.821 565.272 149.866 565.954 148.805 566.636C148.698 566.636 148.698 566.75 148.486 566.863L148.274 566.977L148.486 567.431C148.486 567.431 148.486 567.431 148.592 567.431C148.698 567.431 148.698 567.431 148.805 567.431C149.017 567.431 149.229 567.431 149.441 567.431C152.095 567.431 154.749 567.545 157.403 567.659C157.827 567.659 158.358 567.659 158.783 567.772C159.207 567.772 159.632 567.772 160.056 567.886C160.375 567.886 160.587 567.886 160.906 568C161.012 568 161.012 568 161.118 568C161.224 568 161.436 568 161.542 568C161.649 568 161.755 568 161.861 568C162.073 568 162.179 568 162.392 568L162.604 567.886C163.135 567.545 163.665 567.204 164.196 566.863C177.996 557.09 199.226 541.179 221.941 520.495C226.506 516.404 230.752 512.426 234.786 508.449C234.786 508.449 234.786 508.449 234.892 508.449C236.272 507.085 237.652 505.721 239.032 504.358C240.305 503.107 241.473 501.857 242.747 500.721C253.362 490.038 263.34 479.128 272.469 468.104C272.999 467.422 273.636 466.741 274.167 466.059C274.698 465.377 275.335 464.581 275.865 463.899C303.783 429.578 323.951 394.689 335.946 359.913L336.477 358.322C337.326 355.708 338.281 352.98 339.343 350.253C353.673 310.931 354.097 233.765 353.885 210.922L354.628 61.477V60.5679ZM162.604 566.295C162.604 566.295 162.604 566.409 162.604 566.295C162.392 566.522 162.179 566.636 161.967 566.749L161.33 567.204C161.224 567.204 161.118 567.204 161.012 567.204H160.799H160.587H160.481H159.738C159.419 567.204 158.995 567.204 158.676 567.09C158.252 567.09 157.933 567.09 157.509 566.977C157.296 566.977 157.084 566.977 156.872 566.977C156.66 566.977 156.447 566.977 156.341 566.977C156.129 566.977 156.023 566.977 155.81 566.977C155.598 566.977 155.492 566.977 155.28 566.977H154.643H154.537C153.263 566.977 152.095 566.863 150.928 566.863C150.715 566.863 150.503 566.863 150.291 566.863C151.564 565.954 152.944 565.045 154.43 564.022C156.129 562.886 157.827 561.635 159.738 560.385C163.453 557.771 167.275 555.044 171.096 552.203C171.096 552.203 171.202 552.203 171.202 552.089C173.431 550.384 175.766 548.68 178.102 546.861L178.951 546.179C181.18 544.475 183.409 542.656 185.851 540.838L186.7 540.156C188.929 538.452 191.158 536.633 193.493 534.701C193.812 534.474 194.024 534.247 194.343 534.019C196.572 532.201 198.801 530.383 201.03 528.451C201.348 528.223 201.561 527.996 201.879 527.769C204.215 525.837 206.337 523.905 208.567 522.086L209.416 521.405C210.796 520.154 212.282 518.904 213.768 517.541C214.936 516.518 216.103 515.495 217.165 514.472L217.483 514.131C217.695 513.904 218.014 513.677 218.226 513.449L218.332 513.336C219.818 511.972 221.305 510.608 222.897 509.131C224.383 507.767 225.869 506.403 227.249 504.926C228.204 504.017 229.16 503.107 230.115 502.198C231.495 500.835 232.875 499.584 234.255 498.221C235.422 497.084 236.696 495.834 237.864 494.584C270.027 462.081 309.409 413.781 328.834 357.185L329.365 355.594C330.214 353.094 331.275 350.253 332.231 347.412C335.734 337.752 347.092 299.567 346.242 211.036L346.985 62.0453H353.354L352.611 210.922C352.824 233.652 352.505 310.59 338.175 349.798C337.22 352.526 336.264 355.253 335.309 357.867L334.778 359.458C322.359 395.371 301.129 431.624 271.513 467.195C270.876 467.877 270.346 468.673 269.709 469.354C269.072 470.15 268.435 470.832 267.798 471.627C257.395 483.788 246.037 495.834 234.042 507.54C232.556 509.017 230.964 510.494 229.372 512.086C227.567 513.79 225.657 515.609 223.746 517.427C222.897 518.222 222.154 518.904 221.305 519.7C201.242 537.883 182.454 552.43 168.867 562.317C167.062 563.681 165.364 564.818 163.665 566.068C163.241 565.954 162.922 566.068 162.604 566.295Z"
              fill="#808086"/>
        <path d="M321.51 347.867C320.979 349.344 320.448 350.708 319.811 352.186C296.671 414.123 260.049 465.378 227.886 502.199C227.461 502.767 226.93 503.222 226.506 503.79C226.294 504.131 225.975 504.358 225.763 504.699C225.02 505.608 224.277 506.404 223.534 507.199C223.215 507.654 222.791 507.995 222.472 508.45C221.092 510.041 219.712 511.518 218.332 513.109C214.511 517.2 210.796 521.178 207.293 524.928C198.801 533.679 190.734 541.521 183.091 548.567C183.091 548.567 182.985 548.567 182.985 548.68C180.649 550.84 178.314 552.999 176.085 554.931C172.476 558.113 169.079 561.182 165.788 563.909C165.788 563.909 165.788 563.909 165.682 563.909C164.939 564.591 164.196 565.159 163.453 565.841C162.604 566.523 161.755 567.205 160.906 567.887C160.799 567.887 160.799 567.887 160.693 567.887C160.375 567.887 160.163 567.887 159.844 567.773C159.419 567.773 158.995 567.773 158.57 567.659C158.146 567.659 157.615 567.659 157.19 567.546C154.537 567.432 151.883 567.318 149.229 567.318C149.441 567.091 149.654 566.978 149.972 566.75C151.246 565.727 152.626 564.591 154.006 563.455C155.598 562.091 157.296 560.727 158.995 559.25C159.738 558.568 160.481 557.999 161.33 557.318C164.515 554.59 167.911 551.635 171.414 548.453C173.643 546.408 175.979 544.362 178.314 542.203C185.745 535.27 193.706 527.542 201.985 519.019C237.121 482.652 284.888 423.783 312.699 349.344C313.23 347.867 313.761 346.39 314.398 344.912C316.945 338.321 339.024 274.792 324.269 61.3641L331.7 60.7959C346.561 271.497 325.862 336.843 321.51 347.867Z"
              fill="#57351E"/>
        <path d="M332.443 60.5682V60L323.951 60.6819V61.2501C338.812 274.565 316.733 337.979 314.185 344.457C313.548 345.935 313.018 347.412 312.487 348.889C284.676 423.328 236.909 482.083 201.879 518.45C192.007 528.678 181.711 538.566 171.308 547.885C171.308 547.885 171.308 547.885 171.308 547.998C167.911 550.953 164.621 553.908 161.224 556.863C161.224 556.863 161.224 556.863 161.118 556.976C158.676 559.022 156.235 561.068 153.794 563.113C152.201 564.477 150.609 565.727 149.123 566.977L148.911 567.091L148.592 567.204L148.486 567.318C148.592 567.318 148.592 567.318 148.698 567.318C148.911 567.318 149.123 567.318 149.335 567.318C151.989 567.318 154.643 567.432 157.297 567.545C157.721 567.545 158.252 567.545 158.676 567.659C159.101 567.659 159.526 567.659 159.95 567.773C160.269 567.773 160.481 567.773 160.799 567.886C160.906 567.886 160.906 567.886 161.012 567.886C161.118 567.886 161.33 567.886 161.436 567.886C161.542 567.886 161.649 567.886 161.755 567.886C162.392 567.318 163.029 566.75 163.772 566.182C165.364 564.818 167.062 563.454 168.654 561.977C171.308 559.704 173.856 557.544 176.297 555.272C176.297 555.272 176.297 555.272 176.403 555.158C178.739 553.112 180.968 551.067 183.303 548.907C183.303 548.907 183.409 548.907 183.409 548.794C185.214 547.089 187.018 545.384 188.823 543.68C195.192 537.543 201.561 531.406 207.611 525.042C212.813 519.7 217.908 514.132 222.897 508.676C223.958 507.426 225.126 506.176 226.187 504.926C226.4 504.699 226.718 504.358 226.93 504.131C227.355 503.562 227.78 503.108 228.31 502.54C229.053 501.744 229.69 500.949 230.327 500.153C230.54 499.812 230.858 499.471 231.176 499.244C271.407 452.535 301.341 403.099 320.342 352.185C320.873 350.708 321.403 349.344 322.04 347.867C326.392 337.07 347.092 271.496 332.443 60.5682ZM160.587 567.204H159.95C159.844 567.204 159.844 567.204 159.738 567.204C159.419 567.204 158.995 567.204 158.676 567.091C158.464 567.091 158.358 567.091 158.252 567.091C158.04 567.091 157.721 567.091 157.509 567.091C157.296 567.091 157.084 567.091 156.872 567.091C156.66 567.091 156.447 567.091 156.341 567.091C156.129 567.091 156.023 567.091 155.81 567.091C155.598 567.091 155.492 567.091 155.28 567.091C155.067 567.091 154.749 567.091 154.537 567.091C153.263 567.091 152.095 566.977 150.928 566.977C152.095 566.068 153.263 565.159 154.43 564.136C156.129 562.772 157.721 561.408 159.419 559.931C161.012 558.567 162.71 557.204 164.302 555.726C166.85 553.567 169.291 551.408 171.839 549.135C171.839 549.135 171.839 549.135 171.945 549.021C174.174 546.975 176.403 544.93 178.739 542.884C180.543 541.179 182.348 539.475 184.152 537.77C190.415 531.86 196.572 525.723 202.622 519.473C237.758 483.106 285.525 424.123 313.548 349.571C314.079 348.094 314.61 346.617 315.247 345.139C317.794 338.548 339.98 275.133 325.225 61.932L326.392 61.8184L330.638 61.4774L331.594 61.3638C340.723 193.08 336.052 267.973 330.108 308.09C326.605 331.956 322.783 343.662 321.085 347.753C320.554 349.23 320.024 350.594 319.387 352.072C299.643 404.804 268.01 456.058 225.444 504.358C224.701 505.153 223.958 506.063 223.215 506.858C222.897 507.313 222.472 507.654 222.154 508.108C221.729 508.563 221.305 509.017 220.986 509.472C220.031 510.608 218.969 511.745 218.014 512.768C216.634 514.245 215.254 515.836 213.874 517.314C211.645 519.7 209.31 522.087 206.974 524.473C197.103 534.702 186.594 544.816 175.979 554.362C172.582 557.317 169.185 560.386 165.682 563.34C164.09 564.704 162.604 565.954 161.012 567.318L160.587 567.204Z"
              fill="#808086"/>
        <path d="M259.2 485.606L256.652 481.969L257.502 481.287L260.049 484.924L259.2 485.606ZM266.949 479.469L264.401 475.832L265.25 475.15L267.798 478.787L266.949 479.469ZM274.592 473.218L272.044 469.582L272.893 468.9L275.441 472.537L274.592 473.218ZM282.234 466.968L279.687 463.331L280.536 462.649L283.084 466.286L282.234 466.968ZM289.877 460.831L287.33 457.194L288.179 456.512L290.726 460.149L289.877 460.831ZM297.52 454.58L294.972 450.944L295.822 450.262L298.369 453.898L297.52 454.58ZM305.269 448.33L302.721 444.693L303.57 444.011L306.118 447.648L305.269 448.33ZM312.912 442.079L310.364 438.443L311.213 437.761L313.761 441.397L312.912 442.079ZM320.554 435.942L318.007 432.306L318.856 431.624L321.403 435.26L320.554 435.942ZM328.197 429.692L325.649 426.055L326.499 425.373L329.046 429.01L328.197 429.692ZM335.84 423.441L333.292 419.805L334.141 419.123L336.689 422.759L335.84 423.441ZM343.483 417.191L340.935 413.554L341.784 412.872L344.332 416.509L343.483 417.191ZM351.125 410.94L348.578 407.303L349.427 406.622L351.974 410.258L351.125 410.94ZM358.768 404.69L356.22 401.053L357.07 400.371L359.617 404.008L358.768 404.69ZM366.411 398.439L363.863 394.802L364.712 394.12L367.26 397.757L366.411 398.439ZM374.054 392.188L371.506 388.552L372.355 387.87L374.903 391.507L374.054 392.188ZM381.696 385.824L379.149 382.188L379.998 381.506L382.546 385.142L381.696 385.824ZM389.339 379.574L386.792 375.937L387.641 375.255L390.188 378.892L389.339 379.574ZM396.876 373.323L394.222 369.686L395.071 369.005L397.619 372.641L396.876 373.323ZM404.518 366.959L401.865 363.322L402.714 362.64L405.368 366.277L404.518 366.959ZM412.161 360.595L409.507 357.072L410.357 356.39L413.01 359.913L412.161 360.595ZM419.698 354.23L417.044 350.707L417.893 350.026L420.547 353.549L419.698 354.23ZM427.234 347.753L424.581 344.23L425.43 343.548L428.084 347.071L427.234 347.753ZM434.771 341.161L432.011 337.752L432.86 337.07L435.62 340.479L434.771 341.161ZM442.095 334.456L439.335 330.933L440.185 330.251L442.945 333.774L442.095 334.456ZM449.42 327.864L446.66 324.341L447.509 323.66L450.269 327.183L449.42 327.864ZM456.744 321.273L453.984 317.864L454.833 317.068L457.593 320.477L456.744 321.273ZM463.962 314.341L461.096 310.931L461.839 310.136L464.705 313.545L463.962 314.341ZM471.074 307.294L468.102 303.999L468.845 303.203L471.817 306.499L471.074 307.294ZM477.974 300.135L475.002 296.953L475.745 296.157L478.823 299.339L477.974 300.135ZM484.661 292.634L481.583 289.566L482.326 288.77L485.404 291.839L484.661 292.634ZM491.136 285.02L487.952 281.951L488.695 281.156L491.879 284.111L491.136 285.02ZM497.505 277.178L494.215 274.223L494.852 273.314L498.142 276.155L497.505 277.178ZM503.556 269.109L500.265 266.268L500.902 265.359L504.299 268.2L503.556 269.109ZM509.394 260.927L505.997 258.199L506.634 257.29L510.031 260.018L509.394 260.927ZM515.02 252.517L511.517 249.903L512.154 248.994L515.657 251.608L515.02 252.517ZM520.54 243.993L517.037 241.493L517.674 240.584L521.177 243.084L520.54 243.993ZM525.741 235.243L522.132 232.856L522.663 231.947L526.272 234.333L525.741 235.243ZM530.73 226.378L527.121 224.105L527.652 223.082L531.261 225.355L530.73 226.378ZM535.507 217.514L531.792 215.241L532.322 214.218L536.038 216.377L535.507 217.514ZM540.177 208.422L536.462 206.263L536.993 205.24L540.708 207.399L540.177 208.422ZM544.529 199.217L540.708 197.171L541.239 196.148L545.06 198.194L544.529 199.217ZM548.775 189.898L544.954 187.966L545.379 186.943L549.2 188.875L548.775 189.898ZM552.809 180.579L548.882 178.76L549.306 177.737L553.234 179.556L552.809 180.579ZM556.631 171.032L552.703 169.214L553.128 168.191L557.055 170.009L556.631 171.032ZM560.346 161.486L556.418 159.781L556.843 158.758L560.77 160.463L560.346 161.486ZM563.849 151.94L559.921 150.349L560.346 149.326L564.273 150.917L563.849 151.94ZM567.245 142.28L563.212 140.689L563.53 139.666L567.564 141.257L567.245 142.28ZM570.43 132.506L566.396 131.029L566.715 129.892L570.748 131.37L570.43 132.506ZM573.402 122.732L569.368 121.369L569.687 120.232L573.721 121.596L573.402 122.732ZM576.374 112.845L572.341 111.481L572.659 110.345L576.693 111.709L576.374 112.845ZM579.028 102.958L574.994 101.708L575.313 100.571L579.346 101.822L579.028 102.958ZM581.682 93.0707L577.542 91.8206L577.86 90.6842L582 91.8206L581.682 93.0707ZM584.123 83.0698L579.983 81.9334L580.302 80.7969L584.442 81.9334L584.123 83.0698ZM586.458 73.069L582.319 72.0461L582.531 70.9097L586.671 71.9325L586.458 73.069Z"
              fill="#808086"/>
        <path d="M588.581 63.6365L584.442 62.6136L584.548 62.0454L588.688 63.0682L588.581 63.6365Z" fill="#808086"/>
        <path d="M181.18 551.408L180.437 550.157L181.286 549.476L182.135 550.726L181.18 551.408ZM188.929 545.384L187.655 543.566L188.504 542.884L189.778 544.702L188.929 545.384ZM196.678 539.247L194.767 536.633L195.616 535.952L197.527 538.565L196.678 539.247ZM204.215 532.883L201.773 529.815L202.622 529.133L205.064 532.201L204.215 532.883ZM211.751 526.405L209.097 522.882L209.947 522.2L212.6 525.723L211.751 526.405ZM219.182 519.814L216.422 516.291L217.271 515.609L220.031 519.132L219.182 519.814ZM226.506 513.222L223.746 509.813L224.595 509.017L227.355 512.427L226.506 513.222ZM233.618 506.29L230.752 502.881L231.495 502.085L234.361 505.494L233.618 506.29ZM240.73 499.357L237.864 496.062L238.607 495.266L241.473 498.562L240.73 499.357ZM247.736 492.311L244.764 489.016L245.507 488.22L248.479 491.516L247.736 492.311ZM254.529 485.038L251.557 481.856L252.3 481.06L255.379 484.242L254.529 485.038ZM261.217 477.651L258.138 474.469L258.881 473.673L261.96 476.855L261.217 477.651ZM267.798 470.037L264.613 466.968L265.357 466.173L268.541 469.241L267.798 470.037ZM274.167 462.422L270.982 459.468L271.726 458.558L274.91 461.513L274.167 462.422ZM280.43 454.581L277.139 451.626L277.776 450.717L281.067 453.672L280.43 454.581ZM286.48 446.512L283.19 443.671L283.827 442.761L287.117 445.603L286.48 446.512ZM292.425 438.443L289.028 435.715L289.665 434.806L293.062 437.534L292.425 438.443ZM298.051 430.147L294.548 427.533L295.185 426.624L298.687 429.238L298.051 430.147ZM303.57 421.623L300.067 419.123L300.704 418.214L304.207 420.714L303.57 421.623ZM308.772 412.986L305.163 410.6L305.693 409.69L309.302 412.077L308.772 412.986ZM313.761 404.235L310.045 401.962L310.576 400.94L314.291 403.212L313.761 404.235ZM318.537 395.257L314.822 393.098L315.353 392.075L319.068 394.234L318.537 395.257ZM322.996 386.052L319.174 384.006L319.599 382.983L323.42 385.029L322.996 386.052ZM327.136 376.733L323.314 374.801L323.739 373.778L327.56 375.596L327.136 376.733ZM330.957 367.3L327.029 365.595L327.454 364.573L331.381 366.277L330.957 367.3ZM334.46 357.64L330.426 356.049L330.745 355.026L334.778 356.617L334.46 357.64ZM337.857 348.094L333.929 346.503C334.035 346.162 334.141 345.821 334.248 345.48L338.281 347.071C338.069 347.298 337.963 347.753 337.857 348.094ZM340.829 338.093L336.689 336.843L337.007 335.82L341.147 336.957C340.935 337.411 340.935 337.752 340.829 338.093ZM343.164 328.092L339.024 327.069L339.236 325.933L343.376 326.842L343.164 328.092ZM345.075 317.978L340.935 317.182L341.147 316.046L345.287 316.841L345.075 317.978ZM346.667 307.749L342.421 307.068L342.527 305.931L346.773 306.613L346.667 307.749ZM347.941 297.521L343.695 296.953L343.801 295.817L348.047 296.385L347.941 297.521ZM349.002 287.293L344.756 286.838L344.862 285.702L349.108 286.157L349.002 287.293ZM349.851 277.065L345.605 276.724L345.712 275.587L349.958 275.928L349.851 277.065ZM350.594 266.837L346.349 266.609L346.455 265.473L350.701 265.7L350.594 266.837ZM351.125 256.495L346.879 256.268V255.131L351.125 255.358V256.495ZM351.444 246.267L347.198 246.153V245.017L351.444 245.13V246.267ZM351.762 235.925L347.516 235.811V234.675L351.762 234.788V235.925ZM351.868 225.697H347.622V224.56H351.868V225.697ZM347.622 215.468V214.332H351.868V215.468H347.622ZM351.868 205.24H347.622V204.104H351.868V205.24ZM351.868 195.012H347.622V193.876H351.868V195.012ZM351.974 184.67H347.728V183.534H351.974V184.67ZM351.974 174.442H347.728V173.306H351.974V174.442ZM352.081 164.214H347.835V163.077H352.081V164.214ZM352.081 153.986H347.835V152.849H352.081V153.986ZM352.187 143.757H347.941V142.621H352.187V143.757ZM352.187 133.416H347.941V132.279H352.187V133.416ZM352.293 123.187H348.047V122.051H352.293V123.187ZM352.293 112.959H348.047V111.823H352.293V112.959ZM352.399 102.731H348.153V101.595H352.399V102.731ZM352.399 92.5029H348.153V91.3664H352.399V92.5029ZM352.505 82.1611H348.259V81.0246H352.505V82.1611ZM352.505 71.9329H348.259V70.7964H352.505V71.9329Z"
              fill="#808086"/>
        <path d="M348.36 61.1285L348.357 61.6968L352.603 61.7217L352.606 61.1534L348.36 61.1285Z" fill="#808086"/>
        <path d="M331.063 70.4551L326.817 70.796L326.923 71.9325L331.169 71.5915L331.063 70.4551ZM331.7 80.5696L327.454 80.9106L327.56 82.047L331.806 81.7061L331.7 80.5696ZM332.337 90.7978L328.091 91.0251L328.197 92.1616L332.443 91.9343L332.337 90.7978ZM332.868 100.912L328.622 101.14V102.276L332.868 102.049V100.912ZM333.398 111.141L329.152 111.368V112.504L333.398 112.277V111.141ZM333.929 121.255L329.683 121.482V122.619L333.929 122.392V121.255ZM334.354 131.483L330.108 131.711V132.847L334.354 132.62V131.483ZM334.672 141.598L330.426 141.711V142.848L334.672 142.734V141.598ZM334.991 151.826L330.745 151.94V153.076L334.991 152.962V151.826ZM335.203 162.054L330.957 162.168V163.304L335.203 163.191V162.054ZM335.415 172.169L331.169 172.282V173.419L335.415 173.305V172.169ZM335.521 182.397H331.275V183.533H335.521V182.397ZM331.382 192.511V193.648H335.628V192.511H331.382ZM331.275 202.74V203.876H335.521V202.74H331.275ZM331.169 212.854V213.991L335.415 214.104V212.968L331.169 212.854ZM330.957 222.969V224.105L335.203 224.219V223.082L330.957 222.969ZM330.745 233.197V234.333L334.991 234.447V233.311L330.745 233.197ZM330.32 243.311V244.448L334.566 244.675V243.539L330.32 243.311ZM329.896 253.426L329.789 254.562L334.035 254.79L334.141 253.653L329.896 253.426ZM329.259 263.541L329.152 264.677L333.398 265.018L333.505 263.881L329.259 263.541ZM328.516 273.655L328.409 274.792L332.655 275.246L332.762 274.11L328.516 273.655ZM327.666 283.77L327.56 284.906L331.806 285.361L331.912 284.224L327.666 283.77ZM326.605 293.771L326.499 294.907L330.745 295.475L330.851 294.339L326.605 293.771ZM325.331 303.885L325.225 305.022L329.471 305.703L329.577 304.567L325.331 303.885ZM323.739 313.772L323.527 314.909L327.666 315.704L327.879 314.568L323.739 313.772ZM322.041 323.773L321.828 324.91L325.968 325.932L326.18 324.796L322.041 323.773ZM319.811 333.547L319.599 334.683L323.739 335.82L324.057 334.683L319.811 333.547ZM317.158 343.093C317.051 343.434 316.945 343.775 316.839 344.116L320.767 345.707C320.873 345.366 320.979 345.025 321.191 344.571L317.158 343.093ZM313.655 352.412L313.23 353.435L317.158 355.14L317.582 354.117L313.655 352.412ZM309.939 361.617L309.515 362.64L313.336 364.459L313.761 363.436L309.939 361.617ZM306.012 370.936L305.587 371.959L309.409 373.891L309.833 372.868L306.012 370.936ZM301.872 380.028L301.448 381.051L305.269 383.097L305.8 382.074L301.872 380.028ZM297.52 389.006L296.989 390.029L300.704 392.188L301.235 391.166L297.52 389.006ZM293.062 397.871L292.531 398.894L296.246 401.053L296.777 400.03L293.062 397.871ZM288.391 406.622L287.86 407.531L291.469 409.804L292 408.781L288.391 406.622ZM283.402 415.372L282.871 416.281L286.48 418.668L287.011 417.645L283.402 415.372ZM278.413 423.896L277.882 424.805L281.491 427.305L282.022 426.396L278.413 423.896ZM273.106 432.306L272.575 433.215L276.078 435.715L276.715 434.806L273.106 432.306ZM267.692 440.602L267.055 441.511L270.558 444.125L271.195 443.216L267.692 440.602ZM262.172 448.784L261.535 449.694L264.932 452.421L265.569 451.512L262.172 448.784ZM256.546 456.967L255.909 457.876L259.306 460.717L259.943 459.808L256.546 456.967ZM250.602 464.922L249.965 465.831L253.256 468.673L253.893 467.763L250.602 464.922ZM244.658 472.764L244.021 473.673L247.311 476.628L247.948 475.719L244.658 472.764ZM238.501 480.492L237.864 481.401L241.049 484.356L241.792 483.447L238.501 480.492ZM232.238 488.106L231.495 488.902L234.68 491.97L235.423 491.175L232.238 488.106ZM225.869 495.607L225.126 496.402L228.204 499.471L228.947 498.675L225.869 495.607ZM219.394 502.994L218.651 503.789L221.729 506.971L222.472 506.176L219.394 502.994ZM215.467 513.108L212.813 510.267L212.07 511.063L214.617 513.677L215.148 514.245L215.891 513.449L215.467 513.108ZM208.991 520.609L207.718 519.245L206.019 517.427L205.276 518.222L206.868 519.927L208.142 521.291L208.248 521.405L208.991 520.609ZM201.561 527.087L200.181 525.496L199.332 524.587L198.589 525.382L199.332 526.291L200.818 527.996L201.561 528.792L202.304 527.996L201.561 527.087ZM194.024 533.337L192.538 531.519L192.326 531.292L191.583 532.087L191.689 532.201L193.175 534.019L194.449 535.497L195.192 534.701L194.024 533.337ZM186.382 539.474L185.32 538.111L184.577 538.792L185.639 540.043L187.443 542.202L188.292 541.406L186.382 539.474ZM178.739 545.498L178.208 544.816L177.359 545.498L177.89 546.066L180.119 548.907L180.968 548.225L178.739 545.498ZM170.99 551.407L170.141 552.089L172.794 555.612L173.644 554.93L170.99 551.407ZM163.559 557.771L162.71 558.453L165.364 561.976L166.213 561.294L163.559 557.771ZM158.358 567.09L156.235 564.136L155.386 564.818L156.978 567.09L157.403 567.659C157.827 567.659 158.358 567.659 158.783 567.772L158.358 567.09Z"
              fill="#808086"/>
        <path d="M326.286 61.7042L328.409 61.5906L326.286 61.7042L326.18 61.136L330.426 60.9087V61.3633L326.286 61.7042Z"
              fill="#808086"/>
    </g>

    <g class="loco">

        <path d="M183.973 593.547H185.511C186.114 593.547 186.604 593.383 186.979 593.055C187.354 592.727 187.541 592.302 187.541 591.78C187.541 591.259 187.365 590.846 187.014 590.541C186.65 590.23 186.144 590.075 185.493 590.075C184.878 590.075 184.38 590.242 183.999 590.576C183.618 590.91 183.41 591.355 183.375 591.912H180.932C180.979 590.734 181.427 589.794 182.276 589.091C183.126 588.388 184.236 588.036 185.607 588.036C186.932 588.036 188.001 588.347 188.815 588.968C189.636 589.589 190.046 590.406 190.046 591.42C190.046 592.188 189.803 592.841 189.316 593.38C188.842 593.907 188.212 594.241 187.427 594.382V594.435C188.382 594.517 189.138 594.827 189.694 595.366C190.257 595.911 190.538 596.62 190.538 597.493C190.538 598.624 190.072 599.541 189.141 600.244C188.215 600.936 187.017 601.281 185.546 601.281C184.122 601.281 182.971 600.921 182.092 600.2C181.219 599.491 180.75 598.548 180.686 597.37H183.226C183.267 597.909 183.495 598.34 183.911 598.662C184.333 598.984 184.89 599.146 185.581 599.146C186.243 599.146 186.785 598.976 187.207 598.636C187.629 598.296 187.84 597.859 187.84 597.326C187.84 596.746 187.635 596.289 187.225 595.955C186.814 595.627 186.252 595.463 185.537 595.463H183.973V593.547ZM197.139 601.281C195.545 601.281 194.291 600.687 193.377 599.497C192.463 598.313 192.006 596.693 192.006 594.637C192.006 592.592 192.466 590.978 193.386 589.794C194.3 588.616 195.551 588.027 197.139 588.027C198.727 588.027 199.978 588.616 200.892 589.794C201.806 590.972 202.263 592.583 202.263 594.628C202.263 596.679 201.809 598.299 200.9 599.488C199.986 600.684 198.732 601.281 197.139 601.281ZM197.139 599.154C197.9 599.154 198.495 598.762 198.923 597.977C199.351 597.186 199.564 596.072 199.564 594.637C199.564 593.213 199.348 592.108 198.914 591.323C198.486 590.544 197.895 590.154 197.139 590.154C196.383 590.154 195.791 590.544 195.363 591.323C194.924 592.114 194.704 593.219 194.704 594.637C194.704 596.066 194.921 597.18 195.354 597.977C195.782 598.762 196.377 599.154 197.139 599.154ZM221.44 601H219.076V592.439H219.006L215.561 600.877H213.891L210.445 592.439H210.375V601H208.011V588.317H211.087L214.69 597.309H214.761L218.364 588.317H221.44V601ZM232.321 601H223.919V588.317H232.321V590.506H226.573V593.564H231.996V595.604H226.573V598.803H232.321V601ZM237.595 601V590.506H233.886V588.317H243.967V590.506H240.249V601H237.595ZM251.042 588.317C252.349 588.317 253.406 588.716 254.215 589.513C255.029 590.31 255.437 591.358 255.437 592.659C255.437 593.954 255.018 595.003 254.18 595.806C253.342 596.603 252.252 597.001 250.91 597.001H248.405V601H245.751V588.317H251.042ZM248.405 594.927H250.33C251.092 594.927 251.684 594.73 252.105 594.338C252.527 593.945 252.738 593.389 252.738 592.668C252.738 591.947 252.527 591.391 252.105 590.998C251.689 590.611 251.101 590.418 250.339 590.418H248.405V594.927ZM262.986 588.098C264.867 588.098 266.355 588.687 267.451 589.864C268.553 591.042 269.104 592.642 269.104 594.663C269.104 596.679 268.553 598.275 267.451 599.453C266.35 600.631 264.861 601.22 262.986 601.22C261.105 601.22 259.617 600.631 258.521 599.453C257.42 598.275 256.869 596.679 256.869 594.663C256.869 592.642 257.42 591.042 258.521 589.864C259.617 588.687 261.105 588.098 262.986 588.098ZM262.986 590.312C261.949 590.312 261.123 590.705 260.508 591.49C259.887 592.275 259.576 593.333 259.576 594.663C259.576 595.987 259.884 597.042 260.499 597.827C261.114 598.606 261.943 598.996 262.986 598.996C264.023 598.996 264.85 598.606 265.465 597.827C266.08 597.042 266.388 595.987 266.388 594.663C266.388 593.333 266.08 592.275 265.465 591.49C264.85 590.705 264.023 590.312 262.986 590.312ZM271.028 601V588.317H276.627C277.816 588.317 278.76 588.602 279.457 589.17C280.154 589.738 280.503 590.509 280.503 591.481C280.503 592.173 280.274 592.779 279.817 593.301C279.366 593.822 278.801 594.133 278.121 594.232V594.303C278.988 594.367 279.703 594.684 280.266 595.252C280.828 595.832 281.109 596.538 281.109 597.37C281.109 598.489 280.717 599.374 279.932 600.024C279.146 600.675 278.077 601 276.724 601H271.028ZM273.683 593.591H275.669C276.378 593.591 276.926 593.441 277.312 593.143C277.699 592.85 277.893 592.434 277.893 591.895C277.893 591.385 277.723 590.989 277.383 590.708C277.043 590.433 276.562 590.295 275.941 590.295H273.683V593.591ZM276.047 599.022C277.617 599.022 278.402 598.401 278.402 597.159C278.402 595.946 277.597 595.34 275.985 595.34H273.683V599.022H276.047ZM184.79 617.683C184.69 619.177 184.409 620.193 183.946 620.732V620.803H189.123V612.497H185.124L184.79 617.683ZM182.619 625.505H180.211V620.803H181.099C181.521 620.516 181.825 620.103 182.013 619.563C182.177 619.089 182.288 618.395 182.347 617.48L182.786 610.317H191.777V620.803H193.359V625.505H190.96V623H182.619V625.505ZM200.584 610.098C202.465 610.098 203.953 610.687 205.049 611.864C206.15 613.042 206.701 614.642 206.701 616.663C206.701 618.679 206.15 620.275 205.049 621.453C203.947 622.631 202.459 623.22 200.584 623.22C198.703 623.22 197.215 622.631 196.119 621.453C195.018 620.275 194.467 618.679 194.467 616.663C194.467 614.642 195.018 613.042 196.119 611.864C197.215 610.687 198.703 610.098 200.584 610.098ZM200.584 612.312C199.547 612.312 198.721 612.705 198.105 613.49C197.484 614.275 197.174 615.333 197.174 616.663C197.174 617.987 197.481 619.042 198.097 619.827C198.712 620.606 199.541 620.996 200.584 620.996C201.621 620.996 202.447 620.606 203.062 619.827C203.678 619.042 203.985 617.987 203.985 616.663C203.985 615.333 203.678 614.275 203.062 613.49C202.447 612.705 201.621 612.312 200.584 612.312ZM217.784 610.317C219.091 610.317 220.148 610.716 220.957 611.513C221.771 612.31 222.179 613.358 222.179 614.659C222.179 615.954 221.76 617.003 220.922 617.806C220.084 618.603 218.994 619.001 217.652 619.001H215.147V623H212.493V610.317H217.784ZM215.147 616.927H217.072C217.834 616.927 218.426 616.73 218.848 616.338C219.27 615.945 219.48 615.389 219.48 614.668C219.48 613.947 219.27 613.391 218.848 612.998C218.432 612.611 217.843 612.418 217.081 612.418H215.147V616.927ZM240.328 623H237.076L232.752 617.428H232.682V623H230.098V617.428H230.027L225.677 623H222.495L227.681 616.373L222.794 610.317H225.8L230.027 615.688H230.098V610.317H232.682V615.688H232.752L236.988 610.317H239.941L235.09 616.329L240.328 623ZM245.276 617.683C245.177 619.177 244.896 620.193 244.433 620.732V620.803H249.609V612.497H245.61L245.276 617.683ZM243.105 625.505H240.697V620.803H241.585C242.007 620.516 242.312 620.103 242.499 619.563C242.663 619.089 242.774 618.395 242.833 617.48L243.272 610.317H252.264V620.803H253.846V625.505H251.446V623H243.105V625.505Z"
              fill="black"/>

        <g clip-path="url(#clip0)">
            <path d="M175.926 565.871L193.207 543.68C192.129 543.017 191.076 542.073 190.112 540.924C189.148 539.774 188.402 538.573 188.002 537.473L163.139 550.623C163.139 550.623 168.96 544.958 172.166 542.401C175.513 539.855 188.383 532.325 188.383 532.325C190.222 530.783 193.926 532.244 196.689 535.538C199.452 538.833 200.181 542.659 198.342 544.201C198.342 544.201 188.685 555.563 185.596 558.415C182.518 561.126 175.926 565.871 175.926 565.871Z"
                  fill="#E20000"/>
            <path d="M190.763 533.657C191.593 533.96 192.312 534.079 192.369 533.923C192.425 533.767 191.798 533.396 190.968 533.094C190.138 532.791 189.419 532.672 189.362 532.828C189.305 532.983 189.932 533.355 190.763 533.657Z"
                  fill="#F9D84F"/>
            <path d="M197.933 543.131C198.096 543.102 198.104 542.374 197.951 541.503C197.798 540.633 197.541 539.951 197.378 539.98C197.215 540.008 197.207 540.737 197.36 541.607C197.513 542.478 197.77 543.16 197.933 543.131Z"
                  fill="#F9D84F"/>
            <path d="M168.852 572.065C168.852 572.065 168.15 572.784 167.058 571.481L156.006 558.302C154.913 556.999 155.744 556.434 155.744 556.434C155.744 556.434 171.197 543.735 172.628 542.796C174.059 541.857 185.612 534.779 185.612 534.779C185.995 534.458 187.085 534.98 188.343 536.013C189.408 536.816 190.577 538.054 191.734 539.434C192.955 540.889 193.894 542.321 194.576 543.445C195.374 544.864 195.633 545.951 195.25 546.273L195.315 546.349C195.315 546.349 186.332 556.492 185.158 557.738C183.984 558.983 168.852 572.065 168.852 572.065Z"
                  fill="#4B5151"/>
            <path d="M162.753 566.347L160.311 563.436L159.008 564.528L161.45 567.44L162.753 566.347Z" fill="#2B3030"/>
            <path d="M128.119 595.391L125.677 592.479L124.375 593.572L126.817 596.484L128.119 595.391Z" fill="#2B3030"/>
            <path d="M132.039 600.065L121.758 587.806C120.858 586.733 120.994 585.183 122.067 584.284L151.567 559.545C152.639 558.645 154.189 558.781 155.089 559.854L165.306 572.037C166.205 573.11 166.069 574.659 164.996 575.559L135.497 600.298C134.488 601.274 132.938 601.138 132.039 600.065Z"
                  fill="#4B5151"/>
            <path d="M194.64 543.522L164.604 568.71L158.371 561.278L188.407 536.089C189.472 536.893 190.641 538.131 191.798 539.51C193.031 540.825 193.97 542.256 194.64 543.522Z"
                  fill="#5C5E5E"/>
            <path d="M163.314 569.662L157.081 562.229L123.75 590.181L129.983 597.614L163.314 569.662Z" fill="#5C5E5E"/>
        </g>
        <path d="M97.8875 629.127L87.6064 616.867C86.7068 615.795 86.8428 614.245 87.9156 613.345L117.415 588.606C118.488 587.707 120.038 587.843 120.937 588.916L131.154 601.099C132.054 602.171 131.918 603.721 130.845 604.621L101.345 629.359C100.337 630.336 98.7871 630.2 97.8875 629.127Z"
              fill="#4B5151"/>
        <path d="M129.162 598.723L122.929 591.291L89.5984 619.243L95.8313 626.675L129.162 598.723Z" fill="#5C5E5E"/>
        <defs>
            <clipPath id="clip0">
                <rect width="59" height="119.5" fill="white" transform="translate(190.564 501) rotate(50.0164)"/>
            </clipPath>
        </defs>
    </g>

    <g id="landmarks-ground">

        <g class="1" id="office">
        <g>
            <path d="M450.2 307.986L450.315 216.486L439.815 216.473L439.7 307.973L450.2 307.986Z" fill="#A1A8AD"/>
            <path d="M439.255 217.093L439.141 307.293L390.141 307.231L390.255 217.031L439.255 217.093Z" fill="rgb(215, 224, 233)"/>
            </g>
        </g>

        <g class="2" id="warehouse2">
            <g>
                <path d="M650.75 304.988L651.113 238.088L634.914 238L634.55 304.9L650.75 304.988Z" fill="#D7E0E9"/>
                <path d="M650.335 376.549L650.708 308.049L634.508 307.961L634.135 376.461L650.335 376.549Z" fill="#D7E0E9"/>
            </g>
        </g>

        <g class="3" id="warehouse3">
            <g>
                <path d="M455.521 467.94L454.294 440.767L393.655 443.506L394.882 470.679L455.521 467.94Z" fill="#D7E0E9"/>
                <path d="M434.868 437.832L434.43 428.142L416.848 428.936L417.286 438.626L434.868 437.832Z" fill="#D7E0E9"/>
                <path d="M413.739 438.471L413.08 423.886L393 424.793L393.659 439.378L413.739 438.471Z" fill="#D7E0E9"/>
                <path d="M434.329 424.411L433.875 410.919L431.177 411.01L431.631 424.502L434.329 424.411Z" fill="#D7E0E9"/>
                <path d="M429.602 424.731L429.259 414.537L426.16 414.641L426.504 424.835L429.602 424.731Z" fill="#D7E0E9"/>
            </g>
        </g>

        <g class="4" id="warehouse4">
            <g>
                <path d="M287.966 316.888L288.464 225.388L277.964 225.331L277.466 316.831L287.966 316.888Z" fill="#A1A8AD"/>
                <path d="M275.467 234.499L275.517 225.299L256.517 225.195L256.467 234.395L275.467 234.499Z" fill="#D7E0E9"/>
                <path d="M254 234.323L254.05 225.123L231.55 225L231.5 234.2L254 234.323Z" fill="#D7E0E9"/>
                <path d="M274.968 316.695L275.018 307.495L256.018 307.391L255.968 316.591L274.968 316.695Z" fill="#D7E0E9"/>
                <path d="M253.5 316.618L253.55 307.418L231.05 307.296L231 316.496L253.5 316.618Z" fill="#D7E0E9"/>
                <path d="M240.696 305.01L241.064 237.21L231.464 237.158L231.096 304.958L240.696 305.01Z" fill="#A1A8AD"/>
                <path d="M248.88 246.136L248.928 237.336L243.328 237.305L243.28 246.105L248.88 246.136Z" fill="#BCC2C6"/>
                <path d="M255.505 246.111L255.553 237.311L249.953 237.281L249.905 246.081L255.505 246.111Z" fill="#BCC2C6"/>
                <path d="M262.13 246.086L262.178 237.286L256.578 237.256L256.53 246.056L262.13 246.086Z" fill="#BCC2C6"/>
                <path d="M268.756 246.061L268.804 237.261L263.204 237.231L263.156 246.031L268.756 246.061Z" fill="#BCC2C6"/>
                <path d="M275.38 246.136L275.428 237.336L269.828 237.306L269.78 246.106L275.38 246.136Z" fill="#BCC2C6"/>
                <path d="M248.811 256.167L248.859 247.367L243.259 247.336L243.211 256.136L248.811 256.167Z" fill="#BCC2C6"/>
                <path d="M255.436 256.142L255.484 247.342L249.884 247.311L249.836 256.111L255.436 256.142Z" fill="#BCC2C6"/>
                <path d="M262.062 256.117L262.11 247.317L256.51 247.286L256.462 256.086L262.062 256.117Z" fill="#BCC2C6"/>
                <path d="M268.687 256.092L268.735 247.292L263.135 247.262L263.087 256.062L268.687 256.092Z" fill="#BCC2C6"/>
                <path d="M275.311 256.167L275.359 247.367L269.759 247.337L269.711 256.137L275.311 256.167Z" fill="#BCC2C6"/>
                <path d="M248.831 265.984L248.878 257.384L243.278 257.354L243.231 265.954L248.831 265.984Z" fill="#BCC2C6"/>
                <path d="M255.457 265.96L255.504 257.36L249.904 257.33L249.857 265.93L255.457 265.96Z" fill="#BCC2C6"/>
                <path d="M262.083 265.936L262.13 257.336L256.53 257.306L256.483 265.906L262.083 265.936Z" fill="#BCC2C6"/>
                <path d="M268.709 265.912L268.756 257.312L263.156 257.282L263.109 265.882L268.709 265.912Z" fill="#BCC2C6"/>
                <path d="M275.335 265.989L275.381 257.389L269.781 257.358L269.735 265.958L275.335 265.989Z" fill="#BCC2C6"/>
                <path d="M248.816 275.766L248.862 267.166L243.262 267.136L243.216 275.736L248.816 275.766Z" fill="#BCC2C6"/>
                <path d="M255.442 275.742L255.488 267.142L249.888 267.112L249.842 275.712L255.442 275.742Z" fill="#BCC2C6"/>
                <path d="M262.068 275.718L262.114 267.118L256.514 267.088L256.468 275.688L262.068 275.718Z" fill="#BCC2C6"/>
                <path d="M268.694 275.694L268.74 267.094L263.14 267.064L263.094 275.664L268.694 275.694Z" fill="#BCC2C6"/>
                <path d="M275.319 275.77L275.366 267.17L269.766 267.14L269.719 275.74L275.319 275.77Z" fill="#BCC2C6"/>
                <path d="M248.8 285.549L248.847 276.949L243.247 276.918L243.2 285.518L248.8 285.549Z" fill="#BCC2C6"/>
                <path d="M255.426 285.525L255.473 276.925L249.873 276.894L249.826 285.494L255.426 285.525Z" fill="#BCC2C6"/>
                <path d="M262.052 285.5L262.099 276.9L256.499 276.87L256.452 285.47L262.052 285.5Z" fill="#BCC2C6"/>
                <path d="M268.678 285.476L268.725 276.876L263.125 276.846L263.078 285.446L268.678 285.476Z" fill="#BCC2C6"/>
                <path d="M275.304 285.553L275.351 276.953L269.751 276.922L269.704 285.522L275.304 285.553Z" fill="#BCC2C6"/>
                <path d="M248.885 295.33L248.932 286.73L243.331 286.7L243.285 295.3L248.885 295.33Z" fill="#BCC2C6"/>
                <path d="M255.511 295.307L255.558 286.707L249.958 286.676L249.911 295.276L255.511 295.307Z" fill="#BCC2C6"/>
                <path d="M262.137 295.283L262.184 286.683L256.584 286.652L256.537 295.252L262.137 295.283Z" fill="#BCC2C6"/>
                <path d="M268.763 295.259L268.81 286.659L263.21 286.628L263.163 295.228L268.763 295.259Z" fill="#BCC2C6"/>
                <path d="M275.288 295.334L275.335 286.734L269.735 286.704L269.688 295.304L275.288 295.334Z" fill="#BCC2C6"/>
                <path d="M248.869 305.112L248.916 296.512L243.316 296.482L243.269 305.082L248.869 305.112Z" fill="#BCC2C6"/>
                <path d="M255.495 305.088L255.542 296.488L249.942 296.458L249.895 305.058L255.495 305.088Z" fill="#BCC2C6"/>
                <path d="M262.121 305.064L262.168 296.464L256.568 296.434L256.521 305.034L262.121 305.064Z" fill="#BCC2C6"/>
                <path d="M268.747 305.04L268.794 296.44L263.194 296.41L263.147 305.01L268.747 305.04Z" fill="#BCC2C6"/>
                <path d="M275.373 305.117L275.42 296.517L269.82 296.486L269.773 305.086L275.373 305.117Z" fill="#BCC2C6"/>
            </g>
        </g>

        <g class="5" id="warehouse4">
            <g>
                <path d="M207.357 492.345L201.464 447.227L108.75 459.335L114.642 504.453L207.357 492.345Z" fill="#D7E0E9" />
            </g>

        </g>

        <g class="6" id="warehouse6">
            <g>
                <path d="M301.901 141.825C301.501 143.125 301.501 144.525 301.601 145.825C301.601 146.725 301.701 147.625 301.701 148.525C301.701 149.525 301.901 150.625 302.701 151.125C306.001 153.225 309.201 146.025 309.201 143.625C309.301 139.525 303.501 137.125 301.901 141.825Z"
                  fill="#AE9379"/>
            <path d="M263.701 192.125C262.001 191.925 260.201 191.725 258.501 191.725L259.101 86.125H264.301L263.701 192.125Z"
                  fill="#A1A8AD"/>
            <path d="M277.001 115.325C276.801 115.525 277.101 116.025 277.401 115.925C277.701 115.825 277.901 115.525 278.001 115.225C278.401 114.425 278.801 113.625 279.101 112.725C279.501 111.825 279.901 110.925 279.901 110.025C279.901 109.025 279.501 108.025 278.601 107.625C277.801 107.225 276.801 107.625 276.001 108.125C273.301 110.025 272.801 113.925 273.501 117.125C273.601 117.325 273.601 117.625 273.801 117.825C274.401 118.525 275.601 117.825 276.001 117.025C276.401 116.125 276.601 115.025 277.401 114.625"
                  fill="#AE9379"/>
            <path d="M282.001 152.625C285.101 146.025 287.201 157.825 282.501 157.825C280.501 157.925 281.501 153.725 282.001 152.625Z"
                  fill="#AE9379"/>
            <path d="M226.701 150.825C225.801 143.625 233.901 152.425 229.901 155.025C228.301 156.125 226.901 152.025 226.701 150.825Z"
                  fill="#AE9379"/>
            <path d="M296.601 173.925C294.401 173.625 292.901 171.625 292.101 169.625C290.101 164.425 291.901 158.525 292.201 152.925C292.401 148.225 291.501 143.525 290.601 138.825C290.301 137.125 289.601 135.125 287.901 134.925C287.001 134.825 286.201 135.325 285.301 135.425C282.901 135.725 281.101 132.825 281.301 130.425C281.501 128.025 283.001 125.925 284.201 123.725C285.401 121.625 286.301 118.925 285.201 116.725C284.801 115.825 284.101 115.125 283.801 114.225C283.101 112.125 284.601 110.025 285.401 108.025C287.201 103.625 286.201 98.7252 286.101 94.0252C286.101 92.2252 286.201 90.3252 287.001 88.8252C287.901 87.2252 289.601 86.0252 291.401 86.4252C293.201 86.7252 294.401 88.5252 295.401 90.0252C298.801 95.5252 302.201 101.325 302.901 107.725C303.301 112.225 302.401 116.725 302.601 121.225C302.901 127.825 305.701 134.225 305.401 140.825C305.201 145.825 303.101 150.625 301.601 155.425C300.401 159.525 299.901 163.325 300.501 167.525C300.701 170.125 301.001 174.525 296.601 173.925Z"
                  fill="#AE9379"/>
            <path d="M244.901 140.425C245.001 140.325 245.101 140.425 245.201 140.525L245.801 141.525C245.901 141.625 245.801 141.725 245.701 141.825C245.601 141.925 245.501 141.825 245.401 141.725L244.801 140.725C244.701 140.625 244.801 140.425 244.901 140.425Z"
                  fill="#5A575B"/>
            <path d="M243.801 138.725C243.901 138.625 244.001 138.725 244.101 138.825L244.701 139.825C244.801 139.925 244.701 140.025 244.601 140.125C244.501 140.225 244.401 140.125 244.301 140.025L243.701 139.025C243.701 138.925 243.701 138.825 243.801 138.725Z"
                  fill="#5A575B"/>
            <path d="M239.201 143.925C239.301 143.825 239.401 143.925 239.501 144.025L240.101 145.025C240.201 145.125 240.101 145.225 240.001 145.325C239.901 145.425 239.801 145.325 239.701 145.225L239.101 144.225C239.101 144.125 239.101 143.925 239.201 143.925Z"
                  fill="#5A575B"/>
            <path d="M238.101 142.225C238.201 142.125 238.301 142.225 238.401 142.325L239.001 143.325C239.101 143.425 239.001 143.525 238.901 143.625C238.801 143.725 238.701 143.625 238.601 143.525L238.001 142.525C238.001 142.425 238.001 142.325 238.101 142.225Z"
                  fill="#5A575B"/>
            <path d="M250.339 149.099L250.765 148.837L250.241 147.986L249.815 148.248L250.339 149.099Z" fill="#5A575B"/>
            <path d="M244.177 152.906L244.603 152.644L244.078 151.793L243.653 152.055L244.177 152.906Z" fill="#5A575B"/>
            <path d="M243.901 151.926L243.601 151.526L244.101 151.226" fill="#5A575B"/>
            <path d="M243.301 151.425L244.001 151.025L244.201 151.425L244.001 151.625L244.101 151.825L243.701 152.025L243.301 151.425Z"
                  fill="#5A575B"/>
            <path d="M250.101 148.125L249.801 147.725L249.301 148.025" fill="#5A575B"/>
            <path d="M249.201 147.825L249.901 147.425L250.301 148.025L249.801 148.225L249.701 148.025L249.501 148.225L249.201 147.825Z"
                  fill="#5A575B"/>
            <path d="M238.001 141.625L243.301 138.325L246.801 143.925L246.901 144.825L242.201 147.725L241.401 147.125L238.001 141.625Z"
                  fill="#5A575B"/>
            <path d="M245.033 152.304L249.801 149.367L246.969 144.77L242.201 147.707L245.033 152.304Z" fill="#5A575B"/>
            <path d="M242.201 147.325L244.801 151.625C244.601 151.725 244.301 151.725 244.101 151.425L242.001 148.025C241.901 147.825 241.901 147.525 242.201 147.325Z"
                  fill="#5A575B"/>
            <path d="M246.801 144.525L249.401 148.825C249.601 148.725 249.701 148.325 249.601 148.125L247.501 144.725C247.301 144.425 247.001 144.425 246.801 144.525Z"
                  fill="#5A575B"/>
            <path d="M247.744 151.45C249.061 150.639 249.963 149.715 249.761 149.385C249.558 149.056 248.326 149.447 247.01 150.258C245.693 151.069 244.79 151.993 244.993 152.323C245.196 152.652 246.427 152.261 247.744 151.45Z"
                  fill="#5A575B"/>
            <path d="M222.001 125.825C222.001 125.725 222.101 125.625 222.201 125.625L223.401 125.725C223.501 125.725 223.601 125.825 223.601 125.925C223.601 126.025 223.501 126.125 223.401 126.125L222.201 126.025C222.101 126.025 222.001 125.925 222.001 125.825Z"
                  fill="#5A575B"/>
            <path d="M220.101 125.725C220.101 125.625 220.201 125.525 220.301 125.525L221.501 125.625C221.601 125.625 221.701 125.725 221.701 125.825C221.701 125.925 221.601 126.025 221.501 126.025L220.301 125.925C220.101 125.925 220.101 125.825 220.101 125.725Z"
                  fill="#5A575B"/>
            <path d="M221.601 132.425C221.601 132.325 221.701 132.225 221.801 132.225L223.001 132.325C223.101 132.325 223.201 132.425 223.201 132.525C223.201 132.625 223.101 132.725 223.001 132.725L221.801 132.625C221.701 132.725 221.601 132.625 221.601 132.425Z"
                  fill="#5A575B"/>
            <path d="M219.701 132.325C219.701 132.225 219.801 132.125 219.901 132.125L221.101 132.225C221.201 132.225 221.301 132.325 221.301 132.425C221.301 132.525 221.201 132.625 221.101 132.625L219.901 132.525C219.701 132.525 219.601 132.425 219.701 132.325Z"
                  fill="#5A575B"/>
            <path d="M232.293 126.366L232.323 125.867L231.325 125.806L231.295 126.306L232.293 126.366Z" fill="#5A575B"/>
            <path d="M231.803 133.552L231.833 133.053L230.835 132.992L230.805 133.492L231.803 133.552Z" fill="#5A575B"/>
            <path d="M230.901 133.225H230.401L230.501 132.725" fill="#5A575B"/>
            <path d="M230.201 133.425V132.625L230.701 132.725V133.025H230.901V133.525L230.201 133.425Z" fill="#5A575B"/>
            <path d="M231.301 126.025L230.901 125.925L230.801 126.525" fill="#5A575B"/>
            <path d="M230.601 126.525V125.725H231.301V126.225H231.101V126.525H230.601Z" fill="#5A575B"/>
            <path d="M219.101 132.125L219.401 125.825L226.001 126.225L226.901 126.625L226.501 132.225L225.501 132.525L219.101 132.125Z"
                  fill="#5A575B"/>
            <path d="M231.857 132.576L232.198 126.986L226.807 126.658L226.467 132.248L231.857 132.576Z" fill="#5A575B"/>
            <path d="M226.201 132.025L231.201 132.325C231.201 132.625 230.901 132.825 230.701 132.825L226.701 132.625C226.401 132.525 226.101 132.325 226.201 132.025Z"
                  fill="#5A575B"/>
            <path d="M226.501 126.625L231.501 126.925C231.501 126.625 231.301 126.425 231.001 126.425L227.001 126.225C226.701 126.125 226.501 126.325 226.501 126.625Z"
                  fill="#5A575B"/>
            <path d="M232.739 129.816C232.833 128.272 232.597 127.002 232.211 126.978C231.825 126.955 231.436 128.187 231.342 129.731C231.248 131.275 231.485 132.545 231.871 132.568C232.257 132.592 232.646 131.36 232.739 129.816Z"
                  fill="#5A575B"/>
            <path d="M214.201 112.825C214.201 112.725 214.201 112.625 214.301 112.525L215.401 112.025C215.501 112.025 215.601 112.025 215.701 112.125C215.701 112.225 215.701 112.325 215.601 112.425L214.501 112.925C214.401 113.025 214.201 112.925 214.201 112.825Z"
                  fill="#5A575B"/>
            <path d="M212.401 113.625C212.401 113.525 212.401 113.425 212.501 113.325L213.601 112.825C213.701 112.825 213.801 112.825 213.901 112.925C213.901 113.025 213.901 113.125 213.801 113.225L212.701 113.725C212.501 113.825 212.401 113.725 212.401 113.625Z"
                  fill="#5A575B"/>
            <path d="M216.801 119.025C216.801 118.925 216.801 118.825 216.901 118.725L218.001 118.225C218.101 118.225 218.201 118.225 218.301 118.325C218.301 118.425 218.301 118.525 218.201 118.625L217.101 119.125C217.001 119.225 216.801 119.125 216.801 119.025Z"
                  fill="#5A575B"/>
            <path d="M215.001 119.825C215.001 119.725 215.001 119.625 215.101 119.525L216.201 119.025C216.301 119.025 216.401 119.025 216.501 119.125C216.501 119.225 216.501 119.325 216.401 119.425L215.301 119.925C215.101 119.925 215.001 119.925 215.001 119.825Z"
                  fill="#5A575B"/>
            <path d="M223.621 108.732L223.427 108.271L222.506 108.659L222.7 109.12L223.621 108.732Z" fill="#5A575B"/>
            <path d="M226.425 115.413L226.231 114.952L225.309 115.34L225.503 115.801L226.425 115.413Z" fill="#5A575B"/>
            <path d="M225.401 115.625L225.001 115.825L224.801 115.325" fill="#5A575B"/>
            <path d="M224.901 116.125L224.601 115.425L225.001 115.225L225.101 115.425H225.301L225.501 115.825L224.901 116.125Z"
                  fill="#5A575B"/>
            <path d="M222.601 108.925L222.201 109.125L222.401 109.625" fill="#5A575B"/>
            <path d="M222.201 109.725L221.901 108.925L222.501 108.725L222.701 109.125L222.501 109.225L222.601 109.525L222.201 109.725Z"
                  fill="#5A575B"/>
            <path d="M214.301 119.825L211.901 114.025L217.901 111.525H218.901L221.001 116.625L220.301 117.325L214.301 119.825Z"
                  fill="#5A575B"/>
            <path d="M226.02 114.557L223.848 109.395L218.871 111.489L221.042 116.651L226.02 114.557Z" fill="#5A575B"/>
            <path d="M220.701 116.625L225.301 114.625C225.401 114.925 225.301 115.125 225.001 115.325L221.301 116.925C221.001 117.025 220.801 116.825 220.701 116.625Z"
                  fill="#5A575B"/>
            <path d="M218.601 111.625L223.201 109.625C223.101 109.325 222.801 109.225 222.501 109.325L218.801 110.925C218.601 111.125 218.401 111.325 218.601 111.625Z"
                  fill="#5A575B"/>
            <path d="M225.953 114.517C226.309 114.367 226.112 113.09 225.512 111.665C224.913 110.239 224.138 109.206 223.781 109.355C223.425 109.505 223.622 110.782 224.222 112.208C224.822 113.633 225.597 114.667 225.953 114.517Z"
                  fill="#5A575B"/>
            <path d="M245.901 178.525C245.901 176.125 245.801 173.625 244.901 171.425C244.001 169.125 242.201 167.125 239.801 166.725C238.801 166.525 237.501 166.725 237.001 167.725C236.801 168.125 236.701 168.525 236.701 169.025C236.401 172.425 237.901 176.125 236.201 178.925C235.801 179.625 235.201 180.225 234.801 180.925C234.201 182.125 234.301 183.425 234.401 184.725C234.401 185.125 234.401 185.525 234.701 185.825C234.901 186.125 235.101 186.225 235.401 186.425C236.801 187.225 238.301 188.125 240.001 188.225C243.801 188.325 245.901 181.725 245.901 178.525Z"
                  fill="#AE9379"/>
            <path d="M277.401 182.525C278.801 184.525 280.301 186.425 282.301 187.825C284.301 189.225 287.001 189.825 289.201 188.825C290.201 188.425 291.101 187.525 291.001 186.425C291.001 186.025 290.801 185.625 290.501 185.225C288.801 182.325 285.501 180.125 285.301 176.725C285.301 175.925 285.401 175.125 285.301 174.325C285.101 173.025 284.301 171.925 283.501 170.925C283.301 170.625 283.001 170.325 282.701 170.225C282.401 170.125 282.101 170.125 281.801 170.125C280.101 170.225 278.401 170.425 277.001 171.225C273.501 173.325 275.501 179.925 277.401 182.525Z"
                  fill="#AE9379"/>
            <path d="M251.701 101.525C252.701 99.725 252.701 97.425 251.701 95.525C251.201 94.525 250.001 93.525 249.001 94.125C248.201 94.625 248.301 95.725 248.401 96.625C248.701 98.425 248.901 100.325 249.201 102.125C250.101 102.525 251.201 102.125 251.601 101.325"
                  fill="#AE9379"/>
            <path d="M247.401 111.525C247.701 110.925 248.001 110.325 248.001 109.625C248.001 108.925 247.701 108.225 247.101 108.025C246.401 107.825 245.601 108.325 245.301 108.925C245.001 109.625 245.001 110.425 245.001 111.125C245.001 111.625 245.101 112.225 245.401 112.525C245.801 112.825 246.501 112.725 246.901 112.325C247.301 111.925 247.501 111.425 247.701 110.925"
                  fill="#AE9379"/>
            </g>
        </g>

        <g class="7" id="warehouse7">
            <g>
                <path d="M583.9 313.102L527.3 382.102L524.2 379.402L580.7 310.402L583.9 313.102Z" fill="#D7E0E9"/>
                <path d="M495.2 358.702L491.9 356.202L550.9 278.702L554.2 281.202L495.2 358.702Z" fill="#D7E0E9"/>
                <path d="M520.805 335.747L516.825 332.721L509.017 342.989L512.997 346.016L520.805 335.747Z" fill="#D7E0E9"/>
                <path d="M522.986 343.811L519.006 340.784L511.198 351.053L515.178 354.079L522.986 343.811Z" fill="#D7E0E9"/>
                <path d="M509.916 347.257L507.209 345.199L502.125 351.886L504.831 353.944L509.916 347.257Z" fill="#D7E0E9"/>
                <path d="M528.196 326.644L525.49 324.586L520.405 331.273L523.112 333.331L528.196 326.644Z" fill="#D7E0E9"/>
                <path d="M520.304 358.819L517.597 356.761L512.876 362.97L515.582 365.028L520.304 358.819Z" fill="#D7E0E9"/>
                <path d="M527.714 345.111L525.008 343.053L520.287 349.262L522.993 351.32L527.714 345.111Z" fill="#D7E0E9"/>
                <path d="M512.141 354.877L508.718 352.274L503.997 358.483L507.42 361.086L512.141 354.877Z" fill="#D7E0E9"/>
                <path d="M503.891 365.135L506.493 361.712L500.285 356.991L497.682 360.414L503.891 365.135Z" fill="#D7E0E9"/>
                <path d="M527.088 335.088L525.018 333.515L520.297 339.723L522.367 341.297L527.088 335.088Z" fill="#D7E0E9"/>
                <path d="M528.186 389.431L518.93 382.605L507.417 398.219L516.672 405.044L528.186 389.431Z" fill="#A1A8AD"/>
                <path d="M523.987 390.075L517.065 384.971L508.816 396.157L515.737 401.261L523.987 390.075Z" fill="#BCC2C6"/>
                <path d="M518.4 397.902L473 364.802L478.3 357.702L522.8 392.102L518.4 397.902ZM474.4 364.502L518.2 396.502L521.4 392.302L478.5 359.102L474.4 364.502Z"
                      fill="#A1A8AD"/>
                <path d="M522 392.702H511.5L509.6 383.902L499.3 383.702L497.5 374.502L486.4 374.302L483.9 364.302L473.7 365.102L473.6 364.202L484.7 363.202L487.2 373.302L498.3 373.502L500.1 382.702L510.4 383.002L512.3 391.702H522V392.702Z"
                      fill="#A1A8AD"/>
                <path d="M517.8 397.302L515.2 388.102L505.9 388.602L503.2 378.702L493.9 379.602L490.4 369.002L479.7 369.402L477.9 359.202L478.9 359.002L480.6 368.402L491.1 368.002L494.6 378.602L504 377.602L506.7 387.602L515.9 387.002L518.8 397.102L517.8 397.302Z"
                      fill="#A1A8AD"/>
            </g>
        </g>

        <g class="8" id="warehouse8">
            <g>
                <path d="M600.1 174.002L608.6 176.602L618.5 148.202L610.5 145.102L600.1 174.002Z" fill="#D7E0E9"/>
                <path d="M608.6 176.602L613.4 176.802L623.2 149.102L618.5 148.202L608.6 176.602Z" fill="#A1A8AD"/>
                <path d="M623.2 149.102L610.5 145.102L618.5 148.202L623.2 149.102Z" fill="#A1A8AD"/>
                <path d="M595.5 194.902L600.6 196.402L606.6 179.202L601.7 177.302L595.5 194.902Z" fill="#D7E0E9"/>
                <path d="M600.6 196.402L603.5 196.602L609.5 179.702L606.6 179.202L600.6 196.402Z" fill="#A1A8AD"/>
                <path d="M609.5 179.702L601.7 177.302L606.6 179.202L609.5 179.702Z" fill="#A1A8AD"/>
                <path d="M590 209.802L593.9 211.002L598.4 198.002L594.7 196.602L590 209.802Z" fill="#D7E0E9"/>
                <path d="M593.9 211.002L596.1 211.102L600.6 198.402L598.4 198.002L593.9 211.002Z" fill="#A1A8AD"/>
                <path d="M600.6 198.402L594.7 196.602L598.4 198.002L600.6 198.402Z" fill="#A1A8AD"/>
            </g>
        </g>

        <g class="9" id="warehouse9">
            <g class="decor3">
        <path d="M512.757 222.774L512.799 214.974L486.999 214.834L486.957 222.634L512.757 222.774Z" fill="#D7E0E9"/>
        <path d="M498.502 210.223L498.537 203.723L479.537 203.619L479.502 210.119L498.502 210.223Z" fill="#D7E0E9"/>
        <path d="M520.572 209.84L520.605 203.64L505.205 203.556L505.172 209.756L520.572 209.84Z" fill="#D7E0E9"/>
        <path d="M481.472 262.486L481.576 243.386L473.976 243.344L473.872 262.444L481.472 262.486Z" fill="#D7E0E9"/>
        <path d="M492.229 266.061L492.321 249.261L485.121 249.222L485.029 266.022L492.229 266.061Z" fill="#D7E0E9"/>
    </g>
        </g>

        <g class="10" id="warehouse10">
            <g>
                <path d="M173.15 329.186L178.51 297.942L161.361 295L156 326.244L173.15 329.186Z" fill="#D7E0E9"/>
            </g>
        </g>

        <g class="11" id="warehouse11">
            <g>
                <path d="M231.99 398.298L239.181 356.386L222.031 353.443L214.841 395.355L231.99 398.298Z" fill="#D7E0E9"
            />
            <path d="M240.957 440.308L254.24 412.299L247.284 409L234 437.008L240.957 440.308Z" fill="#D7E0E9"
            />
            </g>

        </g>

        <g class="12" id="warehouse12">
            <g>
                <path d="M124.252 203.757L116.446 198L106 212.164L113.807 217.921L124.252 203.757Z" fill="#D7E0E9"
            />
            <path d="M154.99 206.803L143.24 198.138L123.358 225.098L135.108 233.764L154.99 206.803Z" fill="#D7E0E9"/>
            </g>

        </g>


    </g>

    <g class="decor">
        <path d="M557.5 89.1C557.6 89 557.7 89.1 557.8 89.2L558.4 90.2C558.5 90.3 558.4 90.4 558.3 90.5C558.2 90.6 558.1 90.5 558 90.4L557.4 89.4C557.4 89.3 557.4 89.2 557.5 89.1Z"
              fill="#5A575B"/>
        <path d="M556.5 87.3998C556.6 87.2998 556.7 87.3998 556.8 87.4998L557.4 88.4998C557.5 88.5998 557.4 88.6998 557.3 88.7998C557.2 88.8998 557.1 88.7998 557 88.6998L556.4 87.6998C556.3 87.5998 556.4 87.4998 556.5 87.3998Z"
              fill="#5A575B"/>
        <path d="M551.8 92.6C551.9 92.5 552 92.6 552.1 92.7L552.7 93.7C552.8 93.8 552.7 93.9 552.6 94C552.5 94.1 552.4 94 552.3 93.9L551.7 92.9C551.7 92.8 551.7 92.7 551.8 92.6Z"
              fill="#5A575B"/>
        <path d="M550.8 90.8998C550.9 90.7998 551 90.8998 551.1 90.9998L551.7 91.9998C551.8 92.0998 551.7 92.1998 551.6 92.2998C551.5 92.3998 551.4 92.2998 551.3 92.1998L550.7 91.1998C550.7 91.0998 550.7 90.9998 550.8 90.8998Z"
              fill="#5A575B"/>
        <path d="M562.982 97.7359L563.407 97.4736L562.883 96.6222L562.457 96.8845L562.982 97.7359Z" fill="#5A575B"/>
        <path d="M556.82 101.543L557.245 101.281L556.721 100.429L556.295 100.692L556.82 101.543Z" fill="#5A575B"/>
        <path d="M556.5 100.6L556.3 100.2L556.7 100" fill="#5A575B"/>
        <path d="M555.9 100.2L556.6 99.7002L556.9 100.2L556.6 100.3L556.7 100.5L556.3 100.8L555.9 100.2Z" fill="#5A575B"/>
        <path d="M562.7 96.7999L562.5 96.3999L562 96.6999" fill="#5A575B"/>
        <path d="M561.9 96.5001L562.5 96.1001L562.9 96.7001L562.5 97.0001L562.4 96.8001L562.1 96.9001L561.9 96.5001Z"
              fill="#5A575B"/>
        <path d="M550.7 90.3L556 87L559.4 92.6L559.6 93.6L554.9 96.5L554 95.8L550.7 90.3Z" fill="#5A575B"/>
        <path d="M557.643 101.078L562.411 98.1411L559.578 93.5435L554.811 96.4807L557.643 101.078Z" fill="#5A575B"/>
        <path d="M554.8 96.1001L557.4 100.4C557.2 100.5 556.9 100.5 556.7 100.2L554.6 96.8001C554.5 96.5001 554.6 96.2001 554.8 96.1001Z"
              fill="#5A575B"/>
        <path d="M559.4 93.1999L562 97.4999C562.2 97.3999 562.3 96.9999 562.2 96.7999L560.1 93.3999C559.9 93.1999 559.6 93.0999 559.4 93.1999Z"
              fill="#5A575B"/>
        <path d="M560.384 100.249C561.701 99.4377 562.604 98.5133 562.401 98.1841C562.198 97.855 560.966 98.2457 559.65 99.0568C558.333 99.8679 557.43 100.792 557.633 101.121C557.836 101.451 559.067 101.06 560.384 100.249Z"
              fill="#5A575B"/>
        <path d="M543.6 109.8C543.6 109.7 543.7 109.6 543.9 109.6L545.1 109.8C545.2 109.8 545.3 109.9 545.3 110.1C545.3 110.2 545.2 110.3 545 110.3L543.8 110.1C543.7 110 543.6 109.9 543.6 109.8Z"
              fill="#5A575B"/>
        <path d="M541.7 109.5C541.7 109.4 541.8 109.3 542 109.3L543.2 109.5C543.3 109.5 543.4 109.6 543.4 109.8C543.4 109.9 543.3 110 543.1 110L541.9 109.8C541.7 109.7 541.6 109.6 541.7 109.5Z"
              fill="#5A575B"/>
        <path d="M542.5 116.4C542.5 116.3 542.6 116.2 542.8 116.2L544 116.4C544.1 116.4 544.2 116.5 544.2 116.7C544.2 116.8 544.1 116.9 543.9 116.9L542.7 116.7C542.6 116.6 542.5 116.5 542.5 116.4Z"
              fill="#5A575B"/>
        <path d="M540.6 116C540.6 115.9 540.7 115.8 540.9 115.8L542.1 116C542.2 116 542.3 116.1 542.3 116.3C542.3 116.4 542.2 116.5 542 116.5L540.8 116.3C540.6 116.3 540.6 116.2 540.6 116Z"
              fill="#5A575B"/>
        <path d="M553.737 111.364L553.818 110.871L552.83 110.71L552.75 111.204L553.737 111.364Z" fill="#5A575B"/>
        <path d="M552.547 118.491L552.627 117.997L551.64 117.837L551.559 118.33L552.547 118.491Z" fill="#5A575B"/>
        <path d="M551.7 118.099L551.2 117.999L551.3 117.399" fill="#5A575B"/>
        <path d="M550.9 118.199L551 117.399L551.5 117.499V117.799H551.7L551.6 118.299L550.9 118.199Z" fill="#5A575B"/>
        <path d="M552.8 110.899L552.4 110.799L552.3 111.399" fill="#5A575B"/>
        <path d="M552 111.299L552.2 110.5L552.9 110.599L552.8 111.099H552.6L552.5 111.4L552 111.299Z" fill="#5A575B"/>
        <path d="M540 115.7L541 109.6L547.5 110.6L548.3 111.1L547.4 116.6L546.4 116.8L540 115.7Z" fill="#5A575B"/>
        <path d="M552.714 117.548L553.612 112.021L548.281 111.155L547.384 116.683L552.714 117.548Z" fill="#5A575B"/>
        <path d="M547.1 116.399L552.1 117.199C552.1 117.499 551.8 117.699 551.5 117.599L547.5 116.999C547.2 116.899 547 116.599 547.1 116.399Z"
              fill="#5A575B"/>
        <path d="M548 111L553 111.8C553 111.5 552.9 111.3 552.6 111.2L548.6 110.6C548.3 110.6 548 110.8 548 111Z"
              fill="#5A575B"/>
        <path d="M553.871 114.748C554.119 113.221 554.011 111.934 553.629 111.872C553.247 111.81 552.737 112.997 552.489 114.523C552.241 116.05 552.35 117.337 552.731 117.399C553.113 117.461 553.623 116.274 553.871 114.748Z"
              fill="#5A575B"/>

    </g>

    <g class="decor2" opacity="0.7">
        <path d="M402.751 112.661L402.936 78.6606L399.036 78.6394L398.851 112.639L402.751 112.661Z" fill="rgb(215, 224, 233)"/>
        <path d="M402.471 171.26L402.774 115.56L398.874 115.539L398.571 171.239L402.471 171.26Z" fill="rgb(215, 224, 233)"/>
        <path d="M395.073 139.896L395.262 105.196L391.062 105.173L390.873 139.873L395.073 139.896Z" fill="rgb(215, 224, 233)"/>
        <path d="M394.895 178.033L395.083 143.333L390.883 143.31L390.695 178.01L394.895 178.033Z" fill="rgb(215, 224, 233)"/>
        <path d="M420.507 179.358L420.541 173.258L408.541 173.193L408.507 179.293L420.507 179.358Z" fill="rgb(215, 224, 233)"/>
    </g>

</svg>
