<svg width="221" height="55" xmlns="http://www.w3.org/2000/svg" xmlns:xlink="http://www.w3.org/1999/xlink"><defs><path id="a" d="M.048.239h49.645v46.58H.048z"/></defs><g fill="none" fill-rule="evenodd"><text font-family="Circe-Bold, Circe" font-size="27.6" font-weight="bold" letter-spacing=".166" fill="#1A1A1A"><tspan x="127.267" y="21">I </tspan> <tspan x="143.026" y="21" font-family="Circe-ExtraBold, Circe" font-weight="600">Love</tspan> <tspan x="127.267" y="48">Kitchen</tspan></text><path d="M7.141 5.205c.063.295 6.23 29.692 6.667 48.054.023.949.819 1.702 1.786 1.702h.043c.987-.022 1.769-.82 1.745-1.783-.445-18.677-6.676-48.378-6.74-48.676-.198-.943-1.14-1.549-2.11-1.356-.967.195-1.59 1.116-1.39 2.06zM102.288 8.6c-1.211-6.365-10.474-7.331-10.867-7.37l-2.26-.217.313 2.194c.043.298 4.265 30.016 3.495 48.371-.04.962.726 1.774 1.713 1.813l.074.002c.954 0 1.745-.734 1.785-1.672.653-15.566-2.205-39.035-3.198-46.575 2.109.557 4.983 1.739 5.43 4.09 1.095 5.753-1.089 8.589-2.394 10.283l-.064.083a1.715 1.715 0 0 0 .357 2.44c.79.579 1.91.422 2.503-.348l.063-.082c1.439-1.868 4.432-5.755 3.05-13.012M15.145 1.279c-.956.242-1.529 1.194-1.28 2.126.755 2.82 2.735 10.63 2.85 12.865.048.931.838 1.655 1.784 1.655.03 0 .06 0 .09-.002.987-.048 1.746-.867 1.696-1.828-.154-2.997-2.673-12.495-2.96-13.569-.25-.932-1.224-1.49-2.18-1.247M1.337 5.19C.382 5.433-.19 6.384.058 7.316c.753 2.82 2.735 10.628 2.85 12.864.047.932.836 1.656 1.783 1.656.03 0 .06 0 .091-.003.986-.048 1.745-.866 1.696-1.827-.154-2.997-2.673-12.496-2.96-13.57-.25-.931-1.228-1.49-2.18-1.246" fill="#1A1A1A"/><g transform="translate(29.33 .478)"><mask id="b" fill="#fff"><use xlink:href="#a"/></mask><path d="M44.528 4.54c-4.306-2.08-10.676-.717-19.474 4.172-6.46 3.59-10.049 7.402-10.669 11.331-.423 2.68.538 5.275 2.854 7.71 3.42 3.596 8.122 5.062 12.9 4.024 3.681-.801 6.62-3.026 7.485-5.67.3-.917-.22-1.898-1.16-2.19-.939-.294-1.946.213-2.246 1.13-.472 1.44-2.468 2.808-4.857 3.327-1.658.361-5.904.79-9.501-2.991-1.558-1.639-2.193-3.212-1.941-4.81.433-2.745 3.596-5.882 8.905-8.833C36.264 6.494 40.8 6.628 42.94 7.664c1.682.813 2.686 2.574 3.07 5.383C47.582 24.59 32.276 42.389 29.3 43.34h-.022c-2.478 0-16.143-9.179-22.886-19.938-3.406-5.435-3.05-9.792-2.151-12.49.971-2.917 3.17-5.44 5.604-6.426 4.92-1.996 9.75.603 9.793.627.858.479 1.95.19 2.44-.645a1.72 1.72 0 0 0-.662-2.379c-.256-.143-6.368-3.489-12.944-.822-3.406 1.382-6.33 4.665-7.63 8.568-1.131 3.395-1.614 8.82 2.5 15.385 6.548 10.447 20.967 21.6 26.07 21.598.135 0 .263-.008.383-.023 3.238-.419 9.154-7.629 12.34-12.373 3.227-4.804 8.482-14.029 7.418-21.834-.544-3.99-2.235-6.698-5.025-8.047" fill="#FF2626" mask="url(#b)"/><path d="M39.974 19.763c-.13-.955-1.028-1.626-2.007-1.499-.978.127-1.667 1.003-1.536 1.958.13.954 1.028 1.625 2.006 1.498.98-.127 1.667-1.003 1.537-1.957" fill="#FF2626" mask="url(#b)"/></g></g></svg>