<svg width="91" height="37" fill="none" xmlns="http://www.w3.org/2000/svg"><path fill="#000" fill-opacity=".2" stroke="#fff" d="M.5.5h90v36H.5z"/><path d="M25.164 23l-3.018-8.455h1.424l2.303 6.978h.035l2.309-6.978h1.4L26.6 23h-1.436zm13.398 0h-5.367v-8.455h5.367v1.13h-4.055v2.473h3.838v1.09h-3.838v2.625h4.055V23zm9.238 0h-5.25v-8.455h1.312v7.318H47.8V23zm9.132 0h-5.367v-8.455h5.367v1.13h-4.055v2.473h3.838v1.09h-3.838v2.625h4.055V23zm4.907-2.355c.047.418.256.753.627 1.007.371.254.836.381 1.395.381.531 0 .97-.123 1.318-.369.344-.246.516-.559.516-.937a1 1 0 0 0-.37-.803c-.246-.211-.642-.383-1.189-.516l-1.095-.264c-1.516-.367-2.274-1.126-2.274-2.279 0-.726.287-1.318.861-1.775.57-.457 1.309-.686 2.215-.686.89 0 1.617.229 2.18.686.562.453.853 1.045.873 1.775h-1.277a1.357 1.357 0 0 0-.545-.996c-.32-.238-.737-.357-1.248-.357-.508 0-.922.117-1.243.351-.316.235-.474.54-.474.914a.9.9 0 0 0 .357.733c.239.187.631.35 1.178.486l.932.229c.867.203 1.494.49 1.88.86.383.368.575.862.575 1.483 0 .79-.293 1.416-.88 1.881-.585.461-1.38.692-2.384.692-.941 0-1.703-.225-2.285-.674-.586-.453-.899-1.06-.938-1.822h1.295z" fill="#fff"/></svg>