<svg width="1374" height="705" fill="none" xmlns="http://www.w3.org/2000/svg"><path d="M867.194 30.81c218.166-81.54 124.922 20.949 310.516 53.14 85.79 0 162.63 3.218 135.63 62.942-29.15 64.49 92.8 109.89 52.35 163.03-72.7 95.505-11.3 93.897-38.66 152.711-27.37 58.815-58.9 47.464-42.84 111.954 12.68 50.883-74.95 62.942-106.48 102.151-51.13 63.589-124.92 0-185.594 0-60.676 0-32.753-55.076-124.922-27.343-58.297 17.54-46.685 43.677-145.694 52.576-59.021 5.304-68.457-17.494-166.015-7.692-97.558 9.803-143.784-38.698-190.357-56.75-106.481-41.273-185.598-12.551-185.598-100.088 0-125.368-149.311-58.815-174.296-129.495-24.984-70.681 47.59-92.349 47.59-176.96 0-128.28 162.993-70.164 239.73-131.042 76.738-60.878 107.076-59.536 262.931-48.186C711.339 63.108 725.021 83.95 867.194 30.81z" fill="#F7F9FB"/></svg>