<svg xmlns="http://www.w3.org/2000/svg" width="935" height="807"><path d="M913.738 301.271c10.568 65.523 33.59 120.851 12.958 182.769-10.693 32.202-31.451 66.642-36.357 102.077-3.271 23.748-18.745 46.003-38.874 59.307-11.448 7.46-25.034 10.941-38.37 14.174-24.28 5.968-75.356-1.99-99.887 1.616-23.022 3.481-47.806 10.444-65.292 23.375-31.074 23.125-62.776 38.294-110.959 38.667-45.163.373-88.062-19.893-132.596-27.229-22.142-3.605-44.786-2.984-67.305-3.854-49.189-1.865-97.497-6.465-144.045-22.256-26.041-8.827-53.214-25.239-70.072-46.749-30.696-39.04-41.263-83.676-55.353-129.803-6.04-20.018-19.626-35.186-28.18-54.582-9.058-20.515-13.965-51.971-15.726-74.351C18.648 301.147-1.984 258.874.155 196.583c1.006-27.477 10.19-65.648 29.69-85.292 8.05-8.082 18.115-13.677 28.18-19.023 47.427-25.364 89.32-54.955 139.515-74.35 46.422-17.905 103.411-4.85 152.474-4.974 47.428-.125 96.113-8.58 142.912-1.492 26.67 3.978 52.963 10.32 79.005 17.158 50.321 13.055 100.768 25.736 149.831 42.894 40.509 14.299 102.782 32.451 130.458 66.518 37.238 45.63 49.818 90.017 61.518 163.249z" fill="#DFEDD2"/><g class="decor1" fill="#5A575B"><path d="M225.799 122.575c-.127-.128-.254 0-.381.128l-.763 1.281c-.128.128 0 .256.127.384s.254 0 .381-.128l.764-1.281c0-.128 0-.256-.128-.384zm1.273-2.177c-.128-.128-.255 0-.382.128l-.763 1.281c-.128.128 0 .256.127.384.127.129.254 0 .382-.128l.763-1.28c.127-.128 0-.257-.127-.385zm5.978 6.66c-.127-.128-.254 0-.381.129l-.763 1.28c-.128.128 0 .256.127.384.127.129.254 0 .381-.128l.764-1.28c0-.128 0-.257-.128-.385zm1.273-2.177c-.128-.128-.255 0-.382.128l-.763 1.281c-.128.128 0 .256.127.384s.254 0 .381-.128l.764-1.281c0-.128 0-.256-.127-.384zm-15.497 8.755l-.542-.336.667-1.09.542.336-.667 1.09zm7.839 4.876l-.542-.336.667-1.09.542.336-.667 1.09z"/><path d="M227.072 137.303l.254-.512-.509-.255"/><path d="M227.835 136.792l-.891-.64-.381.64.381.128-.127.256.509.385.509-.769zm-8.651-4.356l.255-.512.636.384"/><path d="M220.202 132.053l-.763-.512-.509.768.509.384.127-.256.382.128.254-.512zm14.248-7.94l-6.742-4.227-4.326 7.172-.254 1.281 5.979 3.714 1.145-.896 4.198-7.044z"/><path d="M225.618 137.917l-6.065-3.762 3.603-5.888 6.065 3.762-3.603 5.888z"/><path d="M229.234 131.541l-3.307 5.507c.254.128.636.128.89-.256l2.672-4.354c.127-.385 0-.769-.255-.897zm-5.852-3.714l-3.307 5.507c-.254-.128-.382-.641-.254-.897l2.671-4.354c.254-.256.636-.384.89-.256zm-1.251 9.027c-1.675-1.039-2.824-2.222-2.566-2.644.258-.421 1.825.079 3.5 1.118 1.675 1.038 2.823 2.222 2.565 2.644-.258.421-1.824-.079-3.499-1.118zm21.351 12.232c0-.128-.128-.256-.382-.256l-1.527.256c-.127 0-.254.128-.254.384 0 .127.127.255.382.255l1.526-.255c.127-.128.255-.256.255-.384zm2.417-.384c0-.128-.127-.256-.382-.256l-1.526.256c-.128 0-.255.128-.255.384 0 .128.127.256.382.256l1.526-.256c.255-.128.382-.256.255-.384zm-1.018 8.836c0-.128-.127-.256-.382-.256l-1.526.256c-.127 0-.255.128-.255.384 0 .128.128.256.382.256l1.527-.256c.127-.128.254-.256.254-.384zm2.417-.512c0-.128-.127-.256-.382-.256l-1.526.256c-.127 0-.255.129-.255.385 0 .128.128.256.382.256l1.527-.256c.254 0 .254-.128.254-.385zm-16.712-5.938l-.102-.631 1.256-.205.102.631-1.256.205zm1.515 9.128l-.102-.632 1.255-.205.102.631-1.255.206z"/><path d="M233.178 159.715l.636-.128-.128-.768"/><path d="M234.195 159.844l-.127-1.025-.636.128v.385h-.254l.127.64.89-.128zm-2.417-9.35l.509-.128.127.768"/><path d="M232.796 151.006l-.254-1.024-.891.128.127.64h.255l.127.384.636-.128zm15.265 5.636l-1.272-7.812-8.269 1.28-1.017.641 1.145 7.044 1.272.256 8.141-1.409z"/><path d="M231.888 159.009l-1.142-7.079 6.78-1.108 1.143 7.079-6.781 1.108z"/><path d="M239.029 157.538l-6.36 1.024c0 .385.381.641.763.513l5.088-.769c.382-.128.636-.512.509-.768zm-1.145-6.916l-6.36 1.025c0-.384.127-.64.509-.769l5.088-.768c.382 0 .763.256.763.512zm-7.468 4.801c-.316-1.955-.178-3.605.308-3.684.485-.079 1.134 1.441 1.45 3.396.315 1.955.177 3.604-.308 3.684-.486.079-1.135-1.442-1.45-3.396z"/></g><path d="M47.74 466.234c3.604 15.911 7.73 32.038 15.86 46.06 7.985 13.775 19.559 24.962 30.863 35.912 11.99 11.669 24.105 23.328 36.095 34.997 21.112 20.475 45.226 42.26 74.285 42.724 9.351.181 19.04-1.849 27.958.934 10.597 3.297 18.128 12.739 27.423 18.834 13.282 8.743 28.753 9.737 43.963 12.294 15.346 2.674 26.436 9.145 40.412 13.723 34.157 11.121 82.525 4.962 117.691-.568 13.472-2.063 26.866-5.149 40.425-6.063 18.462-1.162 36.828 1.409 55.251 3.076 39.627 3.377 79.359 1.479 118.859-1.815 7.903-.607 16.01-1.873 24.241-3.148l.628-.048.376-.029.502-.039.251-.019c.376-.029.627-.048.994-.205.502-.038 1.003-.077 1.496-.243.501-.039 1.129-.087 1.621-.253 3.127-.369 6.253-.738 9.39-.979l.753-.058.25-.019.126-.01.502-.039c3.763-.289 7.537-.451 11.204-.347 16.04.18 31.039 6.607 47.203 3.437 10.442-2.087 20.235-7.722 30.957-7.776 11.726-.13 22.961 6.586 34.754 5.68 15.818-1.088 27.742-15.238 35.246-29.433 14.333-27.311 22.23-58.313 17.386-88.903-4.39-27.927-23.748-51.545-28.476-78.932-2.726-15.978-2.711-32.424-2.552-48.624.381-49.878 8.706-96.512-5.958-145.104-9.747-32.012-23.808-62.664-41.95-90.562-7.724-11.997-19.405-18.16-17.769-33.189-12.596-27.358-14.362-34.5-30-46-18.862-21-46.53-23.524-61.066-30.5-51.726-24.802-98.9-32.096-156.434-32.096-61.81 11.947-76.468-4.87-139.824 0-24.841 1.91-49.545 8.948-74.135 9.168-1.515-.012-2.905-.033-4.42-.045-30.342-.751-60.029-4.507-90.534-.749-44.131 5.448-87.305 18.532-127.495 37.68-23.506 11.186-46.432 25.025-62.803 45.427-37.113 46.406-26.606 101.742-26.62 156.473.26 59.978 9.899 120.519 23.07 179.376z" fill="#54341D"/><g class="1"><path fill="#53341D" d="M342 260h123v157H342z"/><path class="path1" d="M362.297 402.903l-.147-117.184 13.357-.017.147 117.184-13.357.017z" fill="#A1A8AD"/><path class="path2" d="M375.73 402.657l-.147-116.8 63.605-.081.147 116.8-63.605.081z" fill="#D7E0E9"/></g><g class="2"><path fill="#53341D" d="M80 300h85v217H80z"/><path d="M107.176 399.064l-.463-85.679 20.608-.113.463 85.679-20.608.113zm.527 91.648l-.474-87.728 20.608-.113.474 87.728-20.608.113z" opacity=".7" fill="#D7E0E9"/></g><g class="3"><path fill="#53341D" d="M338 518h116v112H338z"/><path d="M355.527 607.757l1.561-34.8 77.14 3.507-1.561 34.8-77.14-3.507zm26.273-38.56l.557-12.41 22.367 1.017-.557 12.41-22.367-1.017zm26.879.819l.838-18.68 25.544 1.162-.838 18.679-25.544-1.161zm-26.193-18.006l.578-17.28 3.432.117-.578 17.279-3.432-.116zm6.014.409l.436-13.055 3.942.133-.437 13.055-3.941-.133z" opacity=".7" fill="#D7E0E9"/></g><g class="4"><path fill="#53341D" d="M553 277h105v158H553z"/><g opacity=".7"><path d="M568.676 414.305l-.633-117.185 13.357-.073.633 117.185-13.357.073z" fill="#A1A8AD"/><path d="M584.576 308.788l-.064-11.782 24.17-.132.064 11.782-24.17.132zm27.308-.225l-.064-11.783 28.623-.156.064 11.782-28.623.157zm-26.673 105.494l-.063-11.783 24.17-.132.063 11.782-24.17.133zm27.309-.098l-.063-11.782 28.622-.157.064 11.782-28.623.157z" fill="#D7E0E9"/><path d="M628.809 399.092l-.469-86.832 12.212-.066.469 86.831-12.212.067z" fill="#A1A8AD"/><path d="M618.397 323.692l-.061-11.27 7.124-.039.061 11.27-7.124.039zm-8.428-.032l-.061-11.271 7.124-.038.061 11.27-7.124.039zm-8.427-.032l-.062-11.27 7.124-.039.061 11.27-7.123.039zm-8.428-.032l-.062-11.27 7.124-.039.061 11.27-7.123.039zm-8.428.097l-.061-11.27 7.124-.039.061 11.27-7.124.039zm33.799 12.845l-.061-11.271 7.123-.039.062 11.271-7.124.039zm-8.428-.032l-.061-11.27 7.124-.039.061 11.27-7.124.039zm-8.428-.032l-.061-11.27 7.124-.039.061 11.27-7.124.039zm-8.428-.031l-.061-11.271 7.124-.039.061 11.271-7.124.039zm-8.427.096l-.061-11.27 7.124-.039.061 11.27-7.124.039zm33.686 12.573l-.06-11.015 7.124-.038.06 11.014-7.124.039zm-8.429-.031l-.06-11.014 7.124-.039.059 11.014-7.123.039zm-8.429-.03l-.06-11.014 7.124-.039.059 11.014-7.123.039zm-8.429-.031l-.06-11.014 7.124-.039.06 11.014-7.124.039zm-8.429.097l-.059-11.014 7.123-.039.06 11.015-7.124.038zm33.736 12.522l-.06-11.014 7.123-.039.06 11.014-7.123.039zm-8.429-.031l-.06-11.014 7.123-.039.06 11.014-7.123.039zm-8.43-.03l-.059-11.014 7.123-.039.06 11.014-7.124.039zm-8.429-.03l-.059-11.014 7.123-.039.06 11.014-7.124.039zm-8.428.096l-.06-11.014 7.124-.038.06 11.014-7.124.038zm33.735 12.524l-.06-11.014 7.124-.039.06 11.014-7.124.039zm-8.429-.031l-.06-11.014 7.124-.039.06 11.014-7.124.039zm-8.429-.031l-.06-11.014 7.124-.039.06 11.014-7.124.039zm-8.429-.031l-.06-11.014 7.124-.039.06 11.014-7.124.039zm-8.428.098l-.06-11.014 7.124-.039.059 11.014-7.123.039zm33.608 12.522l-.06-11.014 7.124-.039.059 11.014-7.123.039zm-8.429-.031l-.06-11.014 7.124-.039.059 11.015-7.123.038zm-8.429-.03l-.06-11.014 7.123-.039.06 11.015-7.123.038zm-8.429-.031l-.06-11.014 7.123-.038.06 11.014-7.123.038zm-8.302.098l-.059-11.014 7.124-.039.059 11.014-7.124.039zm33.608 12.522l-.06-11.014 7.124-.039.06 11.014-7.124.039zm-8.429-.031l-.06-11.014 7.124-.039.06 11.015-7.124.038zm-8.429-.03l-.06-11.014 7.124-.039.06 11.014-7.124.039zm-8.429-.031l-.06-11.014 7.124-.038.06 11.014-7.124.038zm-8.428.098l-.06-11.014 7.124-.039.06 11.014-7.124.039z" fill="#BCC2C6"/></g></g><g class="5"><path fill="#53341D" d="M677.962 536l149.987 17.89-10.671 89.462-149.987-17.89z"/><path d="M684 609.895l7.496-57.782 117.943 15.507-7.496 57.782L684 609.895z" fill="#D7E0E9"/></g><g class="6"><path fill="#53341D" d="M525 96h162v179H525z"/><path class="path1" d="M599.544 254.52c2.162-.256 4.452-.512 6.615-.512l-.764-135.242h-6.615l.764 135.754z" fill="#A1A8AD"/><path class="path2" d="M582.625 156.163c.254.256-.128.896-.509.768-.382-.128-.636-.512-.763-.896-.509-1.025-1.018-2.049-1.4-3.202-.509-1.153-1.017-2.305-1.017-3.458 0-1.281.508-2.561 1.653-3.074 1.018-.512 2.29 0 3.308.641 3.435 2.433 4.071 7.428 3.18 11.526-.127.256-.127.64-.382.896-.763.897-2.289 0-2.798-1.024-.509-1.153-.763-2.561-1.781-3.074" fill="#AE9379"/><path class="path3" d="M576.264 203.933c-3.943-8.453-6.615 6.66-.636 6.66 2.544.128 1.272-5.251.636-6.66z" fill="#AE9379"/><path class="path4" d="M646.612 201.627c1.145-9.221-9.159 2.049-4.071 5.379 2.036 1.409 3.817-3.842 4.071-5.379z" fill="#AE9379"/><path class="path5" d="M557.691 231.212c2.799-.385 4.707-2.946 5.725-5.507 2.544-6.66.254-14.216-.127-21.388-.255-6.019.89-12.039 2.035-18.058.382-2.177 1.272-4.738 3.435-4.995 1.145-.128 2.162.513 3.307.641 3.053.384 5.343-3.33 5.089-6.404-.255-3.073-2.163-5.763-3.689-8.58-1.527-2.69-2.672-6.148-1.272-8.965.508-1.153 1.399-2.049 1.78-3.202.891-2.689-1.017-5.379-2.035-7.94-2.29-5.635-1.018-11.911-.89-17.93 0-2.305-.128-4.739-1.145-6.66-1.145-2.049-3.308-3.586-5.598-3.073-2.289.384-3.816 2.689-5.088 4.61-4.325 7.044-8.65 14.472-9.541 22.668-.509 5.764.636 11.527.382 17.29-.382 8.452-3.944 16.649-3.562 25.102.254 6.403 2.926 12.55 4.834 18.698 1.526 5.251 2.163 10.117 1.399 15.496-.254 3.33-.636 8.965 4.961 8.197z" fill="#AE9379"/><path class="path6" d="M623.459 188.308c-.127-.128-.254 0-.381.128l-.764 1.281c-.127.128 0 .256.128.384.127.128.254 0 .381-.128l.763-1.28c.128-.129 0-.385-.127-.385z" fill="#5A575B"/><path class="path7" d="M624.859 186.131c-.128-.129-.255 0-.382.128l-.763 1.28c-.128.128 0 .256.127.385.127.128.254 0 .382-.129l.763-1.28c0-.128 0-.256-.127-.384z" fill="#5A575B"/><path class="path8" d="M630.71 192.791c-.127-.128-.254 0-.381.128l-.764 1.281c-.127.128 0 .256.128.384.127.128.254 0 .381-.128l.764-1.281c0-.128 0-.384-.128-.384z" fill="#5A575B"/><path class="path9" d="M632.11 190.613c-.128-.128-.255 0-.382.128l-.763 1.281c-.127.128 0 .256.127.384s.254 0 .382-.128l.763-1.28c0-.129 0-.257-.127-.385z" fill="#5A575B"/><path class="path10" d="M616.541 199.417l-.541-.336.667-1.09.541.336-.667 1.09z" fill="#5A575B"/><path class="path11" d="M624.38 204.293l-.541-.336.667-1.09.541.336-.667 1.09z" fill="#5A575B"/><path class="path11" d="M624.731 203.036l.382-.512-.636-.384" fill="#5A575B"/><path class="path12" d="M625.495 202.396l-.891-.512-.254.512.254.256-.127.256.509.256.509-.768z" fill="#5A575B"/><path class="path13" d="M616.844 198.169l.382-.512.636.384" fill="#5A575B"/><path class="path14" d="M617.989 197.785l-.89-.512-.509.768.636.256.127-.256.255.256.381-.512z" fill="#5A575B"/><path class="path15" d="M632.237 189.845l-6.742-4.226-4.453 7.172-.127 1.153 5.979 3.714 1.018-.769 4.325-7.044z" fill="#5A575B"/><path class="path16" d="M623.291 203.522l-6.065-3.762 3.603-5.888 6.065 3.762-3.603 5.888z" fill="#5A575B"/><path class="path17" d="M626.894 197.145l-3.308 5.507c.255.128.637.128.891-.256l2.671-4.354a.677.677 0 0 0-.254-.897z" fill="#5A575B"/><path class="path18" d="M621.042 193.559l-3.307 5.507c-.255-.128-.382-.64-.255-.896l2.672-4.355c.254-.384.636-.384.89-.256z" fill="#5A575B"/><path class="path19" d="M619.843 202.428c-1.675-1.039-2.824-2.223-2.566-2.644.258-.422 1.825.078 3.5 1.117s2.823 2.223 2.565 2.644c-.258.422-1.824-.079-3.499-1.117z" fill="#5A575B"/><path class="path20" d="M652.59 169.609c0-.128-.127-.256-.254-.256l-1.526.128c-.128 0-.255.128-.255.256s.127.256.255.256l1.526-.128c.127 0 .254-.128.254-.256z" fill="#5A575B"/><path class="path21" d="M655.007 169.482c0-.128-.127-.256-.254-.256l-1.526.128c-.128 0-.255.128-.255.256s.127.255.255.255l1.526-.128c.254 0 .254-.127.254-.255z" fill="#5A575B"/><path class="path22" d="M653.099 178.062c0-.128-.127-.256-.254-.256l-1.527.128c-.127 0-.254.128-.254.256s.127.256.254.256l1.527-.128c.127.128.254 0 .254-.256z" fill="#5A575B"/><path class="path23" d="M655.516 177.934c0-.128-.127-.256-.254-.256l-1.527.128c-.127 0-.254.128-.254.256s.127.256.254.256l1.527-.128c.254 0 .382-.128.254-.256z" fill="#5A575B"/><path class="path24" d="M639.498 170.302l-.039-.639 1.27-.078.039.639-1.27.078z" fill="#5A575B"/><path class="path25" d="M640.121 179.506l-.038-.639 1.27-.078.038.639-1.27.078z" fill="#5A575B"/><path class="path26" d="M641.269 179.086h.636l-.127-.64" fill="#5A575B"/><path class="path27" d="M642.159 179.343v-1.024l-.636.128v.384h-.254v.64l.89-.128z" fill="#5A575B"/><path class="path28" d="M640.76 169.866l.509-.128.127.768" fill="#5A575B"/><path class="path29" d="M641.65 170.505v-1.024h-.89v.64h.254v.384h.636z" fill="#5A575B"/><path class="path30" d="M656.28 177.678l-.382-8.069-8.396.513-1.145.512.509 7.172 1.272.384 8.142-.512z" fill="#5A575B"/><path class="path31" d="M640.052 178.256l-.433-7.159 6.857-.42.433 7.159-6.857.42z" fill="#5A575B"/><path class="path32" d="M647.248 177.551l-6.361.384c0 .384.382.64.636.64l5.089-.256c.381-.128.763-.384.636-.768z" fill="#5A575B"/><path class="path33" d="M646.866 170.634l-6.361.384c0-.384.255-.641.636-.641l5.089-.256c.382-.128.636.128.636.513z" fill="#5A575B"/><path class="path34" d="M638.93 174.721c-.12-1.977.181-3.604.672-3.634.491-.03.986 1.548 1.106 3.525.119 1.977-.182 3.604-.673 3.634-.491.03-.985-1.548-1.105-3.525z" fill="#5A575B"/><path class="path35" d="M662.513 152.961c0-.128 0-.256-.127-.384l-1.399-.64c-.128 0-.255 0-.382.128 0 .128 0 .256.127.384l1.4.64c.127.128.381 0 .381-.128z" fill="#5A575B"/><path class="path36" d="M664.803 153.985c0-.128 0-.256-.127-.384l-1.4-.64c-.127 0-.254 0-.381.128 0 .128 0 .256.127.384l1.399.64c.255.128.382 0 .382-.128z" fill="#5A575B"/><path class="path37" d="M659.206 160.901c0-.128 0-.256-.128-.384l-1.399-.64c-.127 0-.254 0-.381.128 0 .128 0 .256.127.384l1.399.64c.127.128.382 0 .382-.128z" fill="#5A575B"/><path class="path38" d="M661.496 161.926c0-.128 0-.256-.128-.384l-1.399-.64c-.127 0-.254 0-.382.128 0 .128 0 .256.128.384l1.399.64c.254 0 .382 0 .382-.128z" fill="#5A575B"/><path class="path39" d="M650.529 147.719l.247-.59 1.173.496-.247.589-1.173-.495z" fill="#5A575B"/><path class="path40" d="M646.963 156.275l.247-.59 1.172.497-.246.589-1.173-.496z" fill="#5A575B"/><path class="path41" d="M648.266 156.545l.508.256.255-.639" fill="#5A575B"/><path class="path42" d="M648.902 157.187l.381-.896-.509-.256-.127.256h-.254l-.255.512.764.384z" fill="#5A575B"/><path class="path43" d="M651.828 147.965l.508.257-.254.64" fill="#5A575B"/><path class="path44" d="M652.336 148.99l.382-1.024-.763-.256-.255.512.255.128-.128.384.509.256z" fill="#5A575B"/><path class="path45" d="M662.386 161.926l3.053-7.428-7.633-3.202h-1.272l-2.671 6.532.89.896 7.633 3.202z" fill="#5A575B"/><path class="path46" d="M647.477 155.178l2.764-6.61 6.332 2.681-2.764 6.61-6.332-2.681z" fill="#5A575B"/><path class="path47" d="M654.245 157.827l-5.852-2.561c-.127.384 0 .641.381.897l4.707 2.049c.382.128.636-.128.764-.385z" fill="#5A575B"/><path class="path48" d="M656.916 151.424l-5.852-2.561c.127-.384.509-.513.891-.384l4.706 2.049c.255.256.509.512.255.896z" fill="#5A575B"/><path class="path49" d="M647.563 155.128c-.453-.192-.202-1.828.561-3.653.763-1.825 1.748-3.149 2.202-2.957.453.192.202 1.827-.561 3.652-.763 1.826-1.749 3.15-2.202 2.958z" fill="#5A575B"/><path class="path50" d="M622.187 237.103c0-3.074.128-6.276 1.273-9.093 1.144-2.946 3.434-5.507 6.487-6.019 1.272-.256 2.926 0 3.562 1.28.255.513.382 1.025.382 1.665.381 4.355-1.527 9.093.636 12.679.509.897 1.272 1.665 1.781 2.561.763 1.537.636 3.202.509 4.867 0 .512 0 1.025-.382 1.409-.254.384-.509.512-.89.768-1.781 1.025-3.69 2.177-5.852 2.306-4.834.128-7.506-8.325-7.506-12.423z" fill="#AE9379"/><path class="path51" d="M582.116 242.226c-1.781 2.561-3.689 4.994-6.233 6.787-2.545 1.793-5.979 2.562-8.778 1.281-1.272-.512-2.417-1.665-2.29-3.074 0-.512.255-1.024.636-1.536 2.163-3.715 6.361-6.532 6.615-10.886 0-1.025-.127-2.05 0-3.074.255-1.665 1.272-3.074 2.29-4.355.254-.384.636-.768 1.018-.896.381-.128.763-.128 1.145-.128 2.162.128 4.325.384 6.106 1.409 4.452 2.689 1.908 11.142-.509 14.472z" fill="#AE9379"/><path class="path52" d="M614.809 138.489c-1.272-2.305-1.272-5.251 0-7.684.636-1.281 2.163-2.562 3.435-1.793 1.017.64.89 2.049.763 3.201-.382 2.306-.636 4.739-1.018 7.044-1.145.513-2.544 0-3.053-1.024" fill="#AE9379"/><path class="path53" d="M620.279 151.296c-.382-.769-.763-1.537-.763-2.434 0-.896.381-1.793 1.145-2.049.89-.256 1.908.384 2.289 1.153.382.896.382 1.921.382 2.817 0 .641-.127 1.409-.509 1.793-.509.385-1.399.257-1.908-.256-.509-.512-.763-1.152-1.018-1.793" fill="#AE9379"/></g><g opacity=".7"><path fill="#53341D" d="M175 350h167v201H175z"/><path d="M192.216 409.456l72.001 88.368 3.944-3.458-71.875-88.368-4.07 3.458zm112.836 58.4l4.198-3.202-75.055-99.254-4.198 3.202 75.055 99.254zm-32.573-29.399l5.063-3.876 9.933 13.151-5.063 3.876-9.933-13.151zm-2.774 10.328l5.063-3.877 9.933 13.151-5.063 3.876-9.933-13.15zm16.627 4.413l3.443-2.636 6.468 8.564-3.443 2.635-6.468-8.563zm-23.255-26.399l3.443-2.635 6.468 8.563-3.443 2.636-6.468-8.564zm10.04 41.206l3.443-2.636 6.006 7.952-3.443 2.636-6.006-7.952zm-9.427-17.556l3.443-2.635 6.006 7.951-3.443 2.636-6.006-7.952zm19.811 12.508l4.354-3.333 6.006 7.951-4.354 3.334-6.006-7.952zm10.495 13.138l-3.311-4.384 7.899-6.046 3.311 4.383-7.899 6.047zm-29.509-38.481l2.633-2.016 6.006 7.952-2.633 2.015-6.006-7.951z" fill="#D7E0E9"/><path d="M263.09 507.21l11.774-8.741 14.647 19.996-11.774 8.741-14.647-19.996z" fill="#A1A8AD"/><path d="M268.432 508.035l8.805-6.537 10.494 14.327-8.805 6.537-10.494-14.327z" fill="#BCC2C6"/><path d="M275.539 518.059l57.754-42.391-6.743-9.093-56.609 44.056 5.598 7.428zm55.973-42.775l-55.719 40.982-4.071-5.379 54.574-42.519 5.216 6.916z" fill="#A1A8AD"/><path d="M270.959 511.399h13.357l2.417-11.27 13.103-.256 2.29-11.782 14.12-.256 3.181-12.807 12.975 1.024.127-1.152-14.12-1.281-3.18 12.935-14.121.256-2.29 11.783-13.102.384-2.417 11.142h-12.34v1.28z" fill="#A1A8AD"/><path d="M276.302 517.291l3.308-11.783 11.83.64 3.435-12.679 11.83 1.153 4.453-13.575 13.611.512 2.29-13.063-1.272-.256-2.163 12.038-13.357-.512-4.452 13.575-11.958-1.28-3.435 12.807-11.703-.769-3.689 12.935 1.272.257z" fill="#A1A8AD"/></g><g class="8"><path fill="#53341D" d="M116 201.016L175.759 173l48.391 103.22-59.759 28.016z"/><g opacity=".7"><path d="M171.608 231.31l-10.813 3.33-12.594-36.372 10.177-3.97 13.23 37.012z" fill="#D7E0E9"/><path d="M160.795 234.64l-6.106.256-12.467-35.475 5.979-1.153 12.594 36.372z" fill="#A1A8AD"/><path d="M142.222 199.421l16.156-5.123-10.177 3.97-5.979 1.153z" fill="#A1A8AD"/><path d="M177.459 258.076l-6.488 1.921-7.632-22.028 6.233-2.433 7.887 22.54z" fill="#D7E0E9"/><path d="M170.971 259.997l-3.689.257-7.632-21.645 3.689-.64 7.632 22.028z" fill="#A1A8AD"/><path d="M159.65 238.61l9.922-3.074-6.233 2.433-3.689.641z" fill="#A1A8AD"/><path d="M184.456 277.159l-4.961 1.537-5.725-16.649 4.707-1.793 5.979 16.905z" fill="#D7E0E9"/><path d="M179.495 278.696l-2.799.128-5.725-16.265 2.799-.512 5.725 16.649z" fill="#A1A8AD"/><path d="M170.971 262.559l7.506-2.305-4.707 1.793-2.799.512z" fill="#A1A8AD"/></g></g><path d="M306.254 268.728l-.054-9.99 32.82-.18.054 9.99-32.82.18zm18.134-16.075l-.045-8.325 24.17-.132.045 8.324-24.17.133zm-28.076-.491l-.043-7.94 19.591-.107.043 7.94-19.591.107zm30.664 76.508l-.103-19.199 7.588-.041.104 19.199-7.589.041zm-10.711 3.371l-.091-16.887 7.188-.04.092 16.888-7.189.039z" fill="#AFACAC"/><path d="M714.735 430.054l-6.819-40.013 21.816-3.768 6.819 40.013-21.816 3.768zm-74.852 88.512l-9.147-53.677 21.816-3.768 9.147 53.677-21.816 3.768zm-11.406 53.802l-16.899-35.87 8.85-4.226 16.899 35.871-8.85 4.225z" fill="#D7E0E9"/><g class="12"><path fill="#53341D" d="M715 233h105v92H715z"/><path d="M776.938 269.417l9.931-7.373 13.288 18.141-9.931 7.373-13.288-18.141zm-39.102 3.901l14.947-11.098 25.292 34.529-14.947 11.097-25.292-34.528z" fill="#D7E0E9"/></g><g class="6"><path fill="#53341D" d="M525 96h162v179H525z"/><path class="path" d="M599.544 254.52c2.162-.256 4.452-.512 6.615-.512l-.764-135.242h-6.615l.764 135.754z" fill="#A1A8AD"/><path class="path1" d="M582.625 156.163c.254.256-.128.896-.509.768-.382-.128-.636-.512-.763-.896-.509-1.025-1.018-2.049-1.4-3.202-.509-1.153-1.017-2.305-1.017-3.458 0-1.281.508-2.561 1.653-3.074 1.018-.512 2.29 0 3.308.641 3.435 2.433 4.071 7.428 3.18 11.526-.127.256-.127.64-.382.896-.763.897-2.289 0-2.798-1.024-.509-1.153-.763-2.561-1.781-3.074m-5.852 48.667c-3.943-8.453-6.615 6.66-.636 6.66 2.544.128 1.272-5.251.636-6.66zm70.348-2.306c1.145-9.221-9.159 2.049-4.071 5.379 2.036 1.409 3.817-3.842 4.071-5.379zm-88.921 29.585c2.799-.385 4.707-2.946 5.725-5.507 2.544-6.66.254-14.216-.127-21.388-.255-6.019.89-12.039 2.035-18.058.382-2.177 1.272-4.738 3.435-4.995 1.145-.128 2.162.513 3.307.641 3.053.384 5.343-3.33 5.089-6.404-.255-3.073-2.163-5.763-3.689-8.58-1.527-2.69-2.672-6.148-1.272-8.965.508-1.153 1.399-2.049 1.78-3.202.891-2.689-1.017-5.379-2.035-7.94-2.29-5.635-1.018-11.911-.89-17.93 0-2.305-.128-4.739-1.145-6.66-1.145-2.049-3.308-3.586-5.598-3.073-2.289.384-3.816 2.689-5.088 4.61-4.325 7.044-8.65 14.472-9.541 22.668-.509 5.764.636 11.527.382 17.29-.382 8.452-3.944 16.649-3.562 25.102.254 6.403 2.926 12.55 4.834 18.698 1.526 5.251 2.163 10.117 1.399 15.496-.254 3.33-.636 8.965 4.961 8.197z" fill="#AE9379"/><path class="path2" d="M623.459 188.308c-.127-.128-.254 0-.381.128l-.764 1.281c-.127.128 0 .256.128.384.127.128.254 0 .381-.128l.763-1.28c.128-.129 0-.385-.127-.385zm1.4-2.177c-.128-.129-.255 0-.382.128l-.763 1.28c-.128.128 0 .256.127.385.127.128.254 0 .382-.129l.763-1.28c0-.128 0-.256-.127-.384zm5.851 6.66c-.127-.128-.254 0-.381.128l-.764 1.281c-.127.128 0 .256.128.384.127.128.254 0 .381-.128l.764-1.281c0-.128 0-.384-.128-.384zm1.4-2.178c-.128-.128-.255 0-.382.128l-.763 1.281c-.127.128 0 .256.127.384s.254 0 .382-.128l.763-1.28c0-.129 0-.257-.127-.385zm-15.569 8.804l-.541-.336.667-1.09.541.336-.667 1.09zm7.839 4.876l-.541-.336.667-1.09.541.336-.667 1.09z" fill="#5A575B"/><path class="path2" d="M624.731 203.036l.382-.512-.636-.384" fill="#5A575B"/><path class="path2" d="M625.495 202.396l-.891-.512-.254.512.254.256-.127.256.509.256.509-.768zm-8.651-4.227l.382-.512.636.384" fill="#5A575B"/><path class="path2" d="M617.989 197.785l-.89-.512-.509.768.636.256.127-.256.255.256.381-.512zm14.248-7.94l-6.742-4.226-4.453 7.172-.127 1.153 5.979 3.714 1.018-.769 4.325-7.044z" fill="#5A575B"/><path class="path2" d="M623.291 203.522l-6.065-3.762 3.603-5.888 6.065 3.762-3.603 5.888z" fill="#5A575B"/><path class="path2" d="M626.894 197.145l-3.308 5.507c.255.128.637.128.891-.256l2.671-4.354a.677.677 0 0 0-.254-.897zm-5.852-3.586l-3.307 5.507c-.255-.128-.382-.64-.255-.896l2.672-4.355c.254-.384.636-.384.89-.256zm-1.199 8.869c-1.675-1.039-2.824-2.223-2.566-2.644.258-.422 1.825.078 3.5 1.117s2.823 2.223 2.565 2.644c-.258.422-1.824-.079-3.499-1.117zm32.747-32.819c0-.128-.127-.256-.254-.256l-1.526.128c-.128 0-.255.128-.255.256s.127.256.255.256l1.526-.128c.127 0 .254-.128.254-.256zm2.417-.127c0-.128-.127-.256-.254-.256l-1.526.128c-.128 0-.255.128-.255.256s.127.255.255.255l1.526-.128c.254 0 .254-.127.254-.255zm-1.908 8.58c0-.128-.127-.256-.254-.256l-1.527.128c-.127 0-.254.128-.254.256s.127.256.254.256l1.527-.128c.127.128.254 0 .254-.256zm2.417-.128c0-.128-.127-.256-.254-.256l-1.527.128c-.127 0-.254.128-.254.256s.127.256.254.256l1.527-.128c.254 0 .382-.128.254-.256zm-16.018-7.632l-.039-.639 1.27-.078.039.639-1.27.078zm.623 9.204l-.038-.639 1.27-.078.038.639-1.27.078z" fill="#5A575B"/><path class="path2" d="M641.269 179.086h.636l-.127-.64" fill="#5A575B"/><path class="path2" d="M642.159 179.343v-1.024l-.636.128v.384h-.254v.64l.89-.128zm-1.399-9.477l.509-.128.127.768" fill="#5A575B"/><path class="path2" d="M641.65 170.505v-1.024h-.89v.64h.254v.384h.636zm14.63 7.173l-.382-8.069-8.396.513-1.145.512.509 7.172 1.272.384 8.142-.512z" fill="#5A575B"/><path class="path2" d="M640.052 178.256l-.433-7.159 6.857-.42.433 7.159-6.857.42z" fill="#5A575B"/><path class="path2" d="M647.248 177.551l-6.361.384c0 .384.382.64.636.64l5.089-.256c.381-.128.763-.384.636-.768zm-.382-6.917l-6.361.384c0-.384.255-.641.636-.641l5.089-.256c.382-.128.636.128.636.513zm-7.936 4.087c-.12-1.977.181-3.604.672-3.634.491-.03.986 1.548 1.106 3.525.119 1.977-.182 3.604-.673 3.634-.491.03-.985-1.548-1.105-3.525zm23.583-21.76c0-.128 0-.256-.127-.384l-1.399-.64c-.128 0-.255 0-.382.128 0 .128 0 .256.127.384l1.4.64c.127.128.381 0 .381-.128zm2.29 1.024c0-.128 0-.256-.127-.384l-1.4-.64c-.127 0-.254 0-.381.128 0 .128 0 .256.127.384l1.399.64c.255.128.382 0 .382-.128zm-5.597 6.916c0-.128 0-.256-.128-.384l-1.399-.64c-.127 0-.254 0-.381.128 0 .128 0 .256.127.384l1.399.64c.127.128.382 0 .382-.128zm2.29 1.025c0-.128 0-.256-.128-.384l-1.399-.64c-.127 0-.254 0-.382.128 0 .128 0 .256.128.384l1.399.64c.254 0 .382 0 .382-.128zm-10.967-14.207l.247-.59 1.173.496-.247.589-1.173-.495zm-3.566 8.556l.247-.59 1.172.497-.246.589-1.173-.496zm1.303.27l.508.256.255-.639" fill="#5A575B"/><path class="path2" d="M648.902 157.187l.381-.896-.509-.256-.127.256h-.254l-.255.512.764.384zm2.926-9.222l.508.257-.254.64" fill="#5A575B"/><path class="path2" d="M652.336 148.99l.382-1.024-.763-.256-.255.512.255.128-.128.384.509.256zm10.05 12.936l3.053-7.428-7.633-3.202h-1.272l-2.671 6.532.89.896 7.633 3.202z" fill="#5A575B"/><path class="path2" d="M647.477 155.178l2.764-6.61 6.332 2.681-2.764 6.61-6.332-2.681z" fill="#5A575B"/><path class="path2" d="M654.245 157.827l-5.852-2.561c-.127.384 0 .641.381.897l4.707 2.049c.382.128.636-.128.764-.385zm2.671-6.403l-5.852-2.561c.127-.384.509-.513.891-.384l4.706 2.049c.255.256.509.512.255.896zm-9.353 3.704c-.453-.192-.202-1.828.561-3.653.763-1.825 1.748-3.149 2.202-2.957.453.192.202 1.827-.561 3.652-.763 1.826-1.749 3.15-2.202 2.958z" fill="#5A575B"/><path class="path1" d="M622.187 237.103c0-3.074.128-6.276 1.273-9.093 1.144-2.946 3.434-5.507 6.487-6.019 1.272-.256 2.926 0 3.562 1.28.255.513.382 1.025.382 1.665.381 4.355-1.527 9.093.636 12.679.509.897 1.272 1.665 1.781 2.561.763 1.537.636 3.202.509 4.867 0 .512 0 1.025-.382 1.409-.254.384-.509.512-.89.768-1.781 1.025-3.69 2.177-5.852 2.306-4.834.128-7.506-8.325-7.506-12.423zm-40.071 5.123c-1.781 2.561-3.689 4.994-6.233 6.787-2.545 1.793-5.979 2.562-8.778 1.281-1.272-.512-2.417-1.665-2.29-3.074 0-.512.255-1.024.636-1.536 2.163-3.715 6.361-6.532 6.615-10.886 0-1.025-.127-2.05 0-3.074.255-1.665 1.272-3.074 2.29-4.355.254-.384.636-.768 1.018-.896.381-.128.763-.128 1.145-.128 2.162.128 4.325.384 6.106 1.409 4.452 2.689 1.908 11.142-.509 14.472zm32.693-103.737c-1.272-2.305-1.272-5.251 0-7.684.636-1.281 2.163-2.562 3.435-1.793 1.017.64.89 2.049.763 3.201-.382 2.306-.636 4.739-1.018 7.044-1.145.513-2.544 0-3.053-1.024m5.343 13.063c-.382-.769-.763-1.537-.763-2.434 0-.896.381-1.793 1.145-2.049.89-.256 1.908.384 2.289 1.153.382.896.382 1.921.382 2.817 0 .641-.127 1.409-.509 1.793-.509.385-1.399.257-1.908-.256-.509-.512-.763-1.152-1.018-1.793" fill="#AE9379"/></g><g class="rails"><path d="M184.235 89.528C204.76 185.88 235.818 266.95 276.733 330.7c34.433 53.561 68.867 84.563 91.688 104.939 3.916 3.493 7.562 6.841 10.802 9.752 25.252 23.579 154.884 129.537 251.703 208.424 1.89 1.601 3.916 3.056 5.806 4.657l6.482 5.24c22.28 18.048 42.401 34.349 58.469 47.448 0 0 .135 0 .135.146 3.241 2.62 6.212 5.094 9.183 7.423 5.131 4.075 9.587 7.714 13.503 10.916 2.296 1.892 4.321 3.493 6.212 5.094.27.145.54.436.81.728.54 0 1.08-.001 1.62-.146.54 0 1.216 0 1.756-.146 3.376-.145 6.751-.291 10.127-.291h.945l.136-.145c-.136-.146-1.621-1.31-4.187-3.348-2.7-2.183-6.751-5.531-11.882-9.606l-.135-.145c-3.781-3.057-8.238-6.696-13.234-10.771-2.836-2.329-5.806-4.657-9.047-7.277-5.131-4.076-10.668-8.588-16.474-13.391-.405-.291-.675-.582-1.08-.873-2.836-2.329-5.672-4.657-8.643-6.986-.405-.291-.675-.582-1.08-.873-2.836-2.329-5.671-4.658-8.642-6.987-.405-.291-.675-.582-1.08-.873-2.836-2.329-5.672-4.658-8.642-6.986-.406-.291-.676-.582-1.081-.874-3.24-2.619-6.616-5.385-9.992-8.005-.675-.582-1.35-1.018-1.891-1.601a9.584 9.584 0 0 1-1.35-1.164c-1.08-.873-2.025-1.747-3.106-2.62-.675-.582-1.35-1.019-2.025-1.601-1.891-1.455-3.781-3.056-5.672-4.657-14.448-11.79-29.707-24.161-45.236-36.824-.945-.728-1.89-1.455-2.836-2.329-.945-.727-1.755-1.455-2.7-2.183-86.557-70.736-180.135-147.73-200.66-166.943-3.241-3.056-7.022-6.404-10.938-9.897-22.415-20.085-56.309-50.505-89.932-102.902-40.24-62.73-70.893-142.636-91.148-237.678l-9.182 2.183z" fill="#57351E"/><path d="M193.957 86.471l.135.728c20.12 94.897 50.773 174.802 91.013 237.387 33.623 52.397 67.517 82.671 89.797 102.757l.946.873a470.54 470.54 0 0 1 9.992 9.024c20.93 19.649 118.154 99.409 198.094 164.759.81.728 1.756 1.456 2.701 2.184.945.727 1.755 1.455 2.701 2.183 14.583 11.935 29.032 23.724 42.94 34.931 1.756 1.456 3.376 2.765 5.132 4.075 1.62 1.31 3.105 2.475 4.591 3.785.405.291.675.582 1.08.873l1.89 1.601c.946.728 1.891 1.601 2.971 2.329l.27.291 3.241 2.62c3.376 2.765 6.752 5.385 9.992 8.005.406.291.676.582 1.081.873 1.485 1.164 2.97 2.474 4.456 3.639 1.485 1.164 2.836 2.328 4.186 3.493.405.291.675.582 1.08.873 2.701 2.183 5.402 4.367 7.967 6.404l.675.582c.27.291.675.583 1.081.874l1.89 1.601c2.296 1.892 4.456 3.638 6.752 5.385.27.291.675.582 1.08.873 3.106 2.62 6.212 5.094 9.182 7.423 2.431 2.038 4.861 3.93 7.157 5.822.135 0 .135.146.135.146l9.047 7.277v.145a646.482 646.482 0 0 0 8.102 6.55l14.854 11.935c3.916 3.202 6.212 5.094 6.482 5.24l1.35 1.018h-2.836c-3.376 0-6.751.146-10.127.292-.54 0-1.216 0-1.756.145-.54 0-1.08 0-1.62.146-.405 0-.675 0-1.08.145l-.135-.145-.676-.583c-.405-.291-.81-.727-1.215-1.018l-.135-.146c-1.215-1.019-2.566-2.183-4.051-3.202h-.135c-2.431-2.038-5.266-4.221-8.102-6.55l-5.266-4.22-.135-.146-.54-.437c-2.701-2.183-5.537-4.512-8.643-6.986l-.135-.145a19035.471 19035.471 0 0 1-50.772-41.19c-2.566-2.038-4.996-4.076-7.562-6.113l-6.482-5.24h-.135c-103.57-84.126-232.257-189.502-257.509-213.081-3.376-3.202-7.291-6.695-10.802-9.752-22.821-20.522-57.255-51.378-91.823-105.085-41.05-63.75-72.108-145.11-92.633-241.463l-.135-.727 10.397-3.057zm539.054 648.267c.54 0 .946 0 1.486-.145h3.781c1.62 0 3.105-.146 4.591-.146h1.755a64.735 64.735 0 0 0-3.106-2.474c-.675-.582-1.485-1.164-2.295-1.892l-5.402-4.367-4.186-3.493-5.131-4.221c-2.565-2.037-5.131-4.22-8.102-6.549l-.135-.146-9.047-7.277c-5.131-4.075-10.668-8.587-16.474-13.39-.405-.292-.675-.583-1.081-.874-2.16-1.746-4.456-3.638-6.751-5.385l-2.026-1.601a4.138 4.138 0 0 0-.945-.728l-.675-.582c-2.566-2.183-5.266-4.221-7.967-6.404-.405-.291-.675-.582-1.08-.873-1.351-1.165-2.836-2.329-4.186-3.493-1.486-1.165-2.971-2.329-4.456-3.639-.271-.291-.676-.582-1.081-.873-1.35-1.165-2.835-2.329-4.186-3.493-.81-.583-1.62-1.31-2.43-1.893-1.081-.873-2.296-1.746-3.376-2.765l-2.026-1.601-1.35-1.019-.135-.145c-.945-.728-1.891-1.601-2.971-2.329l-2.025-1.601c-15.259-12.372-31.463-25.616-47.937-39.007-.945-.728-1.891-1.601-2.836-2.329-.945-.727-1.89-1.455-2.836-2.328-81.02-66.079-182.025-149.041-203.495-168.981a470.998 470.998 0 0 0-9.993-9.024l-.945-.873c-22.415-20.085-56.309-50.505-90.067-103.047-40.24-62.586-70.893-142.345-91.013-237.242L184.91 90.4c20.39 95.915 51.448 176.694 92.228 240.298 34.434 53.562 68.732 84.418 91.553 104.794 3.511 3.057 7.427 6.695 10.802 9.752 24.441 22.851 145.162 121.677 246.572 204.203 1.755 1.455 3.511 2.765 5.131 4.221 1.89 1.601 3.781 3.056 5.671 4.657a18260.265 18260.265 0 0 0 57.525 46.721c2.43 2.037 4.996 3.93 7.292 5.967 0 0 .135 0 .135.146 2.97 2.474 5.941 4.803 8.642 6.986l.54.437 5.266 4.221a455.788 455.788 0 0 0 8.237 6.695c2.026 1.601 3.781 3.056 5.537 4.366l.675.582c.27.146.405.291.675.582.81-.291 1.215-.291 1.62-.291z" fill="#808086"/><path d="M485.495 278.157c-.27 29.109.135 127.936 18.364 178.15 1.216 3.347 2.431 6.986 3.646 10.333l.675 2.038c17.555 51.233 46.992 97.08 78.32 135.505.81.873 1.485 1.892 2.295 2.765.811 1.019 1.621 1.892 2.431 2.911 13.368 16.01 27.007 30.71 40.24 43.664l5.266 5.24c2.026 2.037 4.051 3.93 6.077 5.822 3.511 3.347 6.887 6.549 10.262 9.606 28.222 25.762 54.689 45.993 73.459 59.383 1.08.728 2.025 1.455 2.97 2.183h.811c.405 0 .675 0 1.08-.145.54 0 1.08 0 1.62-.146.54 0 1.216 0 1.756-.145 3.376-.146 6.751-.292 10.127-.292h1.216c-.135 0-.135-.145-.271-.145-.135 0-.27-.146-.405-.291-1.215-.873-2.7-1.747-4.051-2.765-.81-.583-1.62-1.165-2.565-1.747-2.161-1.456-4.321-3.057-6.752-4.803-4.456-3.057-9.317-6.695-14.449-10.625 0 0-.135 0-.135-.146-2.835-2.183-5.806-4.366-8.777-6.695-.405-.291-.675-.582-1.08-.873-2.836-2.183-5.671-4.512-8.777-6.841-.405-.291-.675-.582-1.08-.873-2.836-2.183-5.672-4.658-8.643-6.986-.405-.291-.675-.583-1.08-.874-2.836-2.328-5.671-4.657-8.507-7.131-.405-.292-.675-.583-1.08-.874-2.836-2.329-5.672-4.803-8.507-7.277-.27-.291-.676-.582-1.081-.873-3.24-2.911-6.616-5.822-9.992-8.879-.405-.436-.945-.873-1.35-1.31-1.891-1.746-3.916-3.638-5.807-5.531-1.08-1.018-2.295-2.183-3.376-3.202-.81-.727-1.485-1.455-2.295-2.183-1.216-1.164-2.431-2.329-3.646-3.638l-5.267-5.24c-44.561-44.392-95.063-106.977-120.179-180.333l-.676-2.038-3.645-10.479c-4.457-12.226-18.905-60.984-17.825-174.366l-.945-191.54h-9.453l1.081 191.686z" fill="#57351E"/><path d="M483.874 86.034h10.803l.945 192.268c-1.08 113.09 13.234 161.849 17.69 174.075 1.35 3.638 2.565 7.277 3.646 10.479l.675 2.038c26.331 76.849 81.155 141.763 123.15 183.244.676.727 1.351 1.31 2.026 2.037 1.215 1.165 2.43 2.475 3.646 3.639.81.728 1.62 1.455 2.295 2.183a554.912 554.912 0 0 1 3.376 3.202c1.351 1.31 2.566 2.474 3.916 3.639.675.582 1.35 1.164 1.891 1.746.27.292.54.583.945.874l.405.436c3.376 3.057 6.752 6.113 9.992 8.879l1.081.873c2.7 2.329 5.536 4.803 8.507 7.277.405.291.675.583 1.08.874 2.836 2.474 5.807 4.803 8.507 7.131.405.292.675.583 1.08.874 2.971 2.474 5.807 4.803 8.643 6.986l1.08.873c2.971 2.329 5.806 4.658 8.642 6.841l1.08.873c2.971 2.329 5.942 4.512 8.777 6.695l.136.146c2.7 2.038 5.266 3.93 7.831 5.822 2.296 1.601 4.457 3.202 6.617 4.803l1.215.873c1.891 1.31 3.781 2.62 5.537 3.93.81.582 1.755 1.164 2.565 1.747 1.486 1.018 2.701 1.892 4.051 2.765.135 0 .135.146.406.291l.27.146-.27.582h-1.216c-3.376 0-6.751.145-10.127.291-.54 0-1.216 0-1.756.145-.54 0-1.08 0-1.62.146-.405 0-.675 0-1.08.146h-1.891l-.27-.146-2.025-1.31c-17.555-12.517-44.562-32.894-73.459-59.383-5.806-5.24-11.207-10.334-16.339-15.428h-.135l-5.266-5.24c-1.621-1.601-3.106-3.202-4.726-4.657-13.504-13.682-26.197-27.654-37.81-41.772-.675-.874-1.485-1.747-2.16-2.62-.675-.874-1.486-1.892-2.161-2.766-35.514-43.955-61.17-88.638-76.429-133.175l-.675-2.038a193.07 193.07 0 0 0-3.646-10.334c-18.229-50.359-18.77-149.186-18.499-178.441l-.946-191.394v-1.165zM728.15 733.72s0 .146 0 0c.27.291.54.437.81.583l.81.582h2.026c.405 0 .945 0 1.35-.146.54 0 .946 0 1.486-.145h3.781c1.62 0 3.105-.146 4.591-.146h.81c-1.62-1.164-3.376-2.329-5.266-3.639-2.161-1.455-4.321-3.056-6.752-4.657-4.726-3.348-9.587-6.841-14.449-10.48 0 0-.135.001-.135-.145-2.835-2.183-5.806-4.367-8.777-6.695l-1.08-.874c-2.836-2.183-5.672-4.512-8.777-6.84l-1.081-.873c-2.835-2.184-5.671-4.512-8.642-6.987-.405-.291-.675-.582-1.08-.873-2.836-2.329-5.671-4.658-8.507-7.132-.405-.291-.675-.582-1.08-.873-2.971-2.474-5.672-4.949-8.507-7.278l-1.081-.873c-1.755-1.601-3.646-3.202-5.536-4.948-1.485-1.31-2.971-2.62-4.321-3.93l-.405-.437c-.27-.291-.675-.582-.946-.873l-.135-.146a1434.89 1434.89 0 0 1-5.806-5.385c-1.89-1.746-3.781-3.493-5.536-5.385l-3.646-3.493c-1.756-1.747-3.511-3.348-5.267-5.094-1.485-1.456-3.105-3.057-4.591-4.658-40.915-41.626-91.012-103.484-115.723-175.966l-.676-2.038c-1.08-3.202-2.43-6.841-3.646-10.479-4.456-12.372-18.904-61.276-17.824-174.657l-.945-190.812h-8.102l.945 190.666c-.27 29.11.135 127.645 18.365 177.859a829.799 829.799 0 0 0 3.645 10.334l.676 2.037c15.799 45.993 42.805 92.423 80.48 137.979.81.873 1.485 1.892 2.295 2.766.81 1.018 1.621 1.892 2.431 2.911 13.233 15.573 27.682 31.001 42.94 45.992 1.891 1.893 3.916 3.785 5.942 5.822 2.296 2.184 4.726 4.512 7.157 6.841 1.08 1.019 2.025 1.892 3.106 2.911 25.521 23.288 49.422 41.918 66.706 54.58 2.296 1.747 4.456 3.202 6.617 4.803.54-.145.945 0 1.35.291z" fill="#808086"/><path d="M526.005 453.979a93.75 93.75 0 0 0 2.16 5.531c29.438 79.323 76.024 144.964 116.939 192.122.541.728 1.216 1.31 1.756 2.037.27.437.675.728.945 1.165.945 1.164 1.891 2.183 2.836 3.202.405.582.945 1.019 1.35 1.601 1.756 2.038 3.511 3.93 5.266 5.967l14.044 15.137c10.803 11.207 21.065 21.25 30.788 30.274 0 0 .135 0 .135.146 2.97 2.765 5.941 5.53 8.777 8.005 4.591 4.075 8.912 8.005 13.098 11.498h.135c.945.873 1.891 1.601 2.836 2.474l3.241 2.62h.27c.405 0 .675 0 1.08-.145.54 0 1.08 0 1.62-.146.541 0 1.216 0 1.756-.146 3.376-.145 6.751-.291 10.127-.291-.27-.291-.54-.436-.945-.727-1.62-1.31-3.376-2.766-5.131-4.221-2.026-1.747-4.186-3.493-6.347-5.385-.945-.874-1.89-1.602-2.971-2.475-4.051-3.493-8.372-7.277-12.828-11.352-2.835-2.62-5.806-5.24-8.777-8.006a859.097 859.097 0 0 1-30.112-29.691c-44.696-46.575-105.462-121.969-140.84-217.302-.676-1.892-1.351-3.784-2.161-5.676-3.241-8.442-31.328-89.803-12.558-363.14l-9.452-.729c-18.905 269.845 7.426 353.535 12.963 367.653z" fill="#57351E"/><path d="M512.096 86.035v-.727l10.803.873v.728c-18.905 273.192 9.182 354.407 12.423 362.703.81 1.893 1.485 3.785 2.161 5.677 35.378 95.333 96.144 170.581 140.705 217.156a749.166 749.166 0 0 0 38.889 37.697v.145c4.321 3.785 8.507 7.569 12.829 11.353l.135.146 9.317 7.859c2.025 1.747 4.051 3.348 5.941 4.949l.27.145.406.146.135.145h-1.081c-3.376 0-6.751.146-10.127.292-.54 0-1.216 0-1.756.145-.54 0-1.08 0-1.62.146-.405 0-.675 0-1.08.145h-1.216c-.81-.728-1.62-1.455-2.565-2.183-2.026-1.747-4.186-3.493-6.212-5.385-3.376-2.911-6.616-5.677-9.722-8.588l-.135-.145c-2.971-2.62-5.807-5.24-8.777-8.005 0 0-.135 0-.135-.146l-6.887-6.549c-8.102-7.86-16.204-15.719-23.901-23.87-6.617-6.841-13.098-13.973-19.445-20.959-1.35-1.601-2.836-3.202-4.186-4.803l-.945-1.019c-.54-.728-1.081-1.31-1.756-2.037-.945-1.019-1.755-2.038-2.565-3.057a4.264 4.264 0 0 0-1.081-1.164c-51.177-59.82-89.257-123.133-113.428-188.338a93.21 93.21 0 0 0-2.16-5.531c-5.537-13.827-31.868-97.808-13.234-367.943zm218.62 648.85h1.08c.405 0 .945 0 1.35-.146h5.267c1.62 0 3.105-.145 4.591-.145-1.486-1.165-2.971-2.329-4.456-3.639-2.161-1.746-4.186-3.493-6.347-5.385-2.025-1.747-4.186-3.493-6.211-5.385-3.241-2.766-6.347-5.531-9.588-8.442l-.135-.146c-2.836-2.619-5.671-5.239-8.642-7.859l-6.887-6.55c-7.967-7.568-15.799-15.428-23.496-23.433-44.696-46.575-105.461-122.114-141.11-217.593-.675-1.892-1.35-3.784-2.16-5.676-3.241-8.442-31.463-89.657-12.693-362.704l-1.486-.145-5.401-.437-1.215-.146c-11.613 168.69-5.672 264.605 1.89 315.983 4.456 30.565 9.317 45.557 11.478 50.796a93.479 93.479 0 0 0 2.16 5.531c25.117 67.534 65.357 133.176 119.505 195.033.945 1.019 1.891 2.184 2.836 3.202.405.583.945 1.019 1.35 1.601.54.583 1.08 1.165 1.486 1.747 1.215 1.455 2.565 2.911 3.781 4.221 1.755 1.892 3.51 3.93 5.266 5.822 2.836 3.056 5.806 6.113 8.777 9.169 12.558 13.099 25.927 26.053 39.43 38.279 4.321 3.784 8.642 7.714 13.098 11.498 2.026 1.747 3.916 3.348 5.942 5.094l.54-.145zM605.269 630.381l3.241-4.657-1.08-.873-3.241 4.657 1.08.873zm-9.857-7.859l3.241-4.658-1.08-.873-3.241 4.658 1.08.873zm-9.722-8.005l3.24-4.658-1.08-.873-3.241 4.658 1.081.873zm-9.723-8.005l3.241-4.658-1.08-.873-3.241 4.657 1.08.874zm-9.722-7.86l3.241-4.657-1.081-.874-3.241 4.658 1.081.873zm-9.723-8.005l3.241-4.657-1.08-.874-3.241 4.658 1.08.873zm-9.857-8.005l3.241-4.658-1.081-.873-3.24 4.658 1.08.873zm-9.723-8.005l3.241-4.658-1.08-.873-3.241 4.658 1.08.873zm-9.722-7.86l3.241-4.657-1.08-.873-3.241 4.657 1.08.873zm-9.722-8.005l3.24-4.657-1.08-.874-3.241 4.658 1.081.873zm-9.723-8.005l3.241-4.657-1.08-.874-3.241 4.658 1.08.873zm-9.722-8.005l3.241-4.657-1.081-.874-3.241 4.658 1.081.873zm-9.723-8.005l3.241-4.658-1.08-.873-3.241 4.658 1.08.873zm-9.722-8.005l3.241-4.658-1.081-.873-3.24 4.658 1.08.873zm-9.722-8.005l3.24-4.658-1.08-.873-3.241 4.658 1.081.873zm-9.723-8.005l3.241-4.658-1.08-.873-3.241 4.657 1.08.874zm-9.722-8.151l3.241-4.657-1.081-.874-3.241 4.658 1.081.873zm-9.723-8.005l3.241-4.658-1.08-.873-3.241 4.658 1.08.873zm-9.587-8.005l3.376-4.658-1.081-.873-3.24 4.658.945.873zm-9.722-8.151l3.375-4.657-1.08-.874-3.376 4.658 1.081.873zm-9.723-8.15l3.376-4.512-1.08-.874-3.376 4.512 1.08.874zm-9.587-8.151l3.376-4.512-1.081-.873-3.376 4.512 1.081.873zm-9.588-8.296l3.376-4.512-1.08-.874-3.376 4.512 1.08.874zm-9.587-8.442l3.511-4.366-1.08-.874-3.511 4.367 1.08.873zm-9.317-8.587l3.51-4.512-1.08-.874-3.511 4.512 1.081.874zm-9.318-8.442l3.511-4.512-1.08-.873-3.511 4.512 1.08.873zm-9.317-8.442l3.511-4.366-1.08-1.019-3.511 4.366 1.08 1.019zm-9.182-8.878l3.646-4.367-.946-1.018-3.645 4.366.945 1.019zm-9.048-9.024l3.781-4.221-.945-1.019-3.781 4.221.945 1.019zm-8.777-9.17l3.781-4.075-.945-1.019-3.916 4.076 1.08 1.018zm-8.507-9.606l3.916-3.929-.945-1.019-3.916 3.93.945 1.018zm-8.237-9.751l4.051-3.93-.945-1.019-4.051 3.784.945 1.165zm-8.102-10.043l4.186-3.784-.81-1.165-4.186 3.639.81 1.31zm-7.697-10.334l4.186-3.639-.81-1.164-4.321 3.639.945 1.164zm-7.427-10.479l4.321-3.493-.81-1.165-4.321 3.493.81 1.165zm-7.156-10.771l4.456-3.347-.811-1.165-4.456 3.348.811 1.164zm-7.022-10.916l4.456-3.202-.81-1.164-4.456 3.202.81 1.164zm-6.617-11.207l4.591-3.057-.675-1.164-4.591 3.057.675 1.164zm-6.346-11.353l4.591-2.911-.675-1.31-4.592 2.911.676 1.31zm-6.077-11.352l4.726-2.911-.675-1.31-4.726 2.765.675 1.456zm-5.941-11.644l4.726-2.766-.675-1.309-4.727 2.765.676 1.31zm-5.537-11.789l4.861-2.62-.675-1.31-4.861 2.62.675 1.31zm-5.401-11.935l4.861-2.475-.54-1.31-4.861 2.475.54 1.31zm-5.131-11.935l4.996-2.329-.54-1.31-4.996 2.329.54 1.31zm-4.862-12.226l4.997-2.329-.54-1.31-4.997 2.329.54 1.31zm-4.726-12.226l4.996-2.183-.54-1.31-4.996 2.183.54 1.31zm-4.456-12.226l4.996-2.038-.54-1.31-4.996 2.038.54 1.31zm-4.321-12.372l5.131-2.037-.405-1.31-5.131 2.037.405 1.31zm-4.051-12.517l5.131-1.892-.405-1.455-5.131 1.892.405 1.455zm-3.781-12.517l5.131-1.746-.405-1.456-5.131 1.747.405 1.455zm-3.781-12.662l5.131-1.747-.405-1.455-5.131 1.746.405 1.456zm-3.376-12.663l5.132-1.601-.405-1.455-5.132 1.601.405 1.455zm-3.375-12.663l5.266-1.601-.405-1.455-5.267 1.455.406 1.601zm-3.106-12.808l5.266-1.455-.405-1.456-5.266 1.456.405 1.455zm-2.971-12.808l5.266-1.31-.27-1.455-5.266 1.31.27 1.455zm-2.701-12.08l5.267-1.31-.135-.728-5.267 1.31.135.728z" fill="#808086"/><path d="M704.519 714.654l.945-1.601-1.08-.874-1.08 1.601 1.215.874zm-9.857-7.714l1.62-2.329-1.08-.873-1.621 2.328 1.081.874zm-9.858-7.86l2.431-3.347-1.08-.874-2.431 3.348 1.08.873zm-9.587-8.15l3.106-3.93-1.081-.874-3.105 3.93 1.08.874zm-9.587-8.297l3.375-4.512-1.08-.873-3.376 4.512 1.081.873zm-9.453-8.441l3.511-4.512-1.08-.874-3.511 4.512 1.08.874zm-9.317-8.442l3.511-4.367-1.081-1.018-3.51 4.366 1.08 1.019zm-9.047-8.878l3.646-4.367-.946-1.019-3.646 4.367.946 1.019zm-9.048-8.879l3.646-4.221-.945-1.019-3.646 4.221.945 1.019zm-8.912-9.024l3.781-4.221-.945-1.019-3.781 4.221.945 1.019zm-8.642-9.315l3.781-4.075-.945-1.019-3.916 4.075 1.08 1.019zm-8.507-9.46l3.916-4.076-.945-1.019-3.916 4.076.945 1.019zm-8.372-9.752l4.051-3.93-.945-1.019-4.051 3.93.945 1.019zm-8.102-9.752l4.051-3.784-.945-1.164-4.051 3.784.945 1.164zm-7.967-10.042l4.186-3.785-.81-1.164-4.186 3.784.81 1.165zm-7.697-10.334l4.186-3.639-.81-1.164-4.186 3.638.81 1.165zm-7.562-10.334l4.321-3.493-.81-1.165-4.321 3.493.81 1.165zm-7.157-10.625l4.456-3.348-.81-1.164-4.456 3.347.81 1.165zm-7.021-10.916l4.456-3.202-.811-1.165-4.456 3.202.811 1.165zm-6.617-11.062l4.591-3.056-.675-1.165-4.591 3.057.675 1.164zm-6.347-11.207l4.726-2.911-.675-1.31-4.726 2.911.675 1.31zm-6.076-11.498l4.726-2.766-.675-1.309-4.726 2.765.675 1.31zm-5.672-11.789l4.862-2.62-.541-1.31-4.861 2.62.54 1.31zm-5.266-11.935l4.861-2.475-.54-1.31-4.861 2.329.54 1.456zm-4.861-12.081l4.996-2.183-.54-1.31-4.996 2.183.54 1.31zm-4.456-12.371l5.131-2.038-.405-1.31-5.131 2.038.405 1.31zm-4.321-12.226l4.996-2.038-.405-1.31-5.131 2.038c.27.291.405.873.54 1.31zm-3.781-12.808l5.266-1.601-.405-1.31-5.266 1.455c.27.582.27 1.019.405 1.456zm-2.971-12.808l5.266-1.31-.27-1.456-5.266 1.164.27 1.602zm-2.431-12.954l5.267-1.019-.27-1.456-5.267 1.019.27 1.456zm-2.025-13.099l5.401-.874-.135-1.455-5.401.873.135 1.456zm-1.62-13.1l5.401-.727-.135-1.456-5.402.728.136 1.455zm-1.351-13.099l5.401-.582-.135-1.456-5.401.583.135 1.455zm-1.08-13.099l5.401-.437-.135-1.455-5.401.436.135 1.456zm-.945-13.099l5.401-.292-.135-1.455-5.401.291.135 1.456zm-.676-13.245l5.402-.291v-1.456l-5.402.291v1.456zm-.405-13.099l5.402-.146v-1.456l-5.402.146v1.456zm-.405-13.245l5.402-.146v-1.455l-5.402.145v1.456zm-.135-13.1h5.402v-1.455h-5.402v1.455zm5.402-13.099v-1.455h-5.402v1.455h5.402zm-5.402-13.099h5.402v-1.455h-5.402v1.455zm0-13.099h5.402v-1.456h-5.402v1.456zm-.135-13.245h5.402v-1.456h-5.402v1.456zm0-13.099h5.402v-1.456h-5.402v1.456zm-.135-13.1h5.401v-1.455h-5.401v1.455zm0-13.099h5.401v-1.455h-5.401v1.455zm-.135-13.099h5.402v-1.456h-5.402v1.456zm0-13.245h5.402v-1.455h-5.402v1.455zm-.135-13.099h5.401v-1.456h-5.401v1.456zm0-13.099h5.401v-1.456h-5.401v1.456zm-.135-13.1h5.401v-1.455h-5.401v1.455zm0-13.099h5.401v-1.455h-5.401v1.455zm-.135-13.245h5.401v-1.455h-5.401v1.455zm0-13.099h5.401v-1.455h-5.401v1.455zm5.273-13.837l.004.727-5.401.032-.005-.727 5.402-.032zm22.004 11.945l5.401.436-.135 1.456-5.401-.437.135-1.455zm-.811 12.953l5.402.437-.135 1.455-5.402-.436.135-1.456zm-.81 13.1l5.402.291-.135 1.455-5.402-.291.135-1.455zm-.675 12.953l5.401.291v1.456l-5.401-.291v-1.456zm-.675 13.1l5.401.291v1.455l-5.401-.291v-1.455zm-.675 12.953l5.401.291v1.456l-5.401-.291v-1.456zm-.54 13.099l5.401.292v1.455l-5.401-.291v-1.456zm-.406 12.954l5.402.146v1.455l-5.402-.145v-1.456zm-.405 13.099l5.402.146v1.455l-5.402-.145v-1.456zm-.27 13.1l5.402.145v1.456l-5.402-.146v-1.455zm-.27 12.953l5.402.146v1.455l-5.402-.145v-1.456zm-.135 13.1h5.402v1.455h-5.402v-1.455zm5.267 12.953v1.456h-5.402v-1.456h5.402zm.135 13.099v1.456h-5.402v-1.456h5.402zm.135 12.954v1.456l-5.402.145v-1.455l5.402-.146zm.27 12.954v1.455l-5.402.146v-1.456l5.402-.145zm.27 13.099v1.456l-5.402.145v-1.455l5.402-.146zm.54 12.954v1.455l-5.402.291v-1.455l5.402-.291zm.54 12.954l.135 1.455-5.401.291-.135-1.455 5.401-.291zm.81 12.953l.135 1.456-5.401.436-.135-1.455 5.401-.437zm.945 12.954l.135 1.455-5.401.583-.135-1.456 5.401-.582zm1.081 12.954l.135 1.455-5.402.582-.135-1.455 5.402-.582zm1.35 12.808l.135 1.455-5.401.728-.135-1.455 5.401-.728zm1.62 12.953l.135 1.456-5.401.873-.135-1.455 5.401-.874zm2.026 12.663l.27 1.456-5.266 1.018-.27-1.455 5.266-1.019zm2.16 12.808l.271 1.456-5.267 1.31-.27-1.456 5.266-1.31zm2.836 12.517l.27 1.456-5.266 1.455-.405-1.455 5.401-1.456zm3.376 12.226l.405 1.31-4.996 2.038c-.135-.437-.27-.873-.54-1.456l5.131-1.892zm4.456 11.935l.54 1.31-4.996 2.183-.54-1.31 4.996-2.183zm4.726 11.789l.54 1.31-4.861 2.329-.54-1.31 4.861-2.329zm4.997 11.935l.54 1.31-4.862 2.475-.54-1.31 4.862-2.475zm5.266 11.644l.54 1.31-4.861 2.62-.675-1.31 4.996-2.62zm5.536 11.498l.675 1.31-4.726 2.766-.675-1.31 4.726-2.766zm5.672 11.353l.675 1.31-4.726 2.765-.676-1.31 4.727-2.765zm5.941 11.207l.675 1.164-4.591 2.911-.675-1.31 4.591-2.765zm6.347 11.207l.675 1.165-4.591 3.056-.675-1.31 4.591-2.911zm6.346 10.916l.675 1.165-4.591 3.202-.675-1.165 4.591-3.202zm6.752 10.771l.675 1.164-4.456 3.202-.81-1.164 4.591-3.202zm6.887 10.625l.81 1.164-4.456 3.348-.81-1.165 4.456-3.347zm7.021 10.479l.811 1.164-4.321 3.494-.811-1.165 4.321-3.493zm7.157 10.479l.81 1.165-4.321 3.639-.81-1.165 4.321-3.639zm7.562 10.189l.81 1.164-4.186 3.639-.81-1.165 4.186-3.638zm7.562 10.043l.81 1.164-4.186 3.784-.81-1.164 4.186-3.784zm7.832 9.897l.81 1.164-4.051 3.784-.945-1.164 4.186-3.784zm7.967 9.751l.945 1.019-4.051 3.93-.945-1.019 4.051-3.93zm8.102 9.607l.945 1.018-3.916 3.93-.945-1.019 3.916-3.929zm8.237 9.46l.945 1.019-3.916 4.075-.945-1.019 3.916-4.075zm4.996 12.954l3.376-3.639.945 1.019-3.241 3.348-.675.727-.945-1.019.54-.436zm8.237 9.606l1.621-1.747 2.16-2.328.945 1.018-2.025 2.184-1.621 1.746-.135.146-.945-1.019zm9.453 8.296l1.755-2.038 1.08-1.164.945 1.019-.945 1.164-1.89 2.183-.945 1.019-.946-1.019.946-1.164zm9.587 8.005l1.89-2.329.27-.291.946 1.019-.135.146-1.891 2.328-1.62 1.892-.945-1.018 1.485-1.747zm9.722 7.86l1.351-1.747.945.873-1.35 1.601-2.296 2.766-1.08-1.019 2.43-2.474zm9.723 7.714l.675-.874 1.08.874-.675.727-2.836 3.639-1.08-.873 2.836-3.493zm9.857 7.568l1.08.873-3.375 4.512-1.081-.873 3.376-4.512zm9.453 8.151l1.08.873-3.376 4.512-1.08-.873 3.376-4.512zm6.616 11.935l2.701-3.785 1.08.874-2.025 2.911-.54.727c-.541 0-1.216 0-1.756.146l.54-.873zM519.928 87.49l-2.701-.145 2.701.145.135-.727-5.401-.291v.582l5.266.436z" fill="#808086"/><path d="M590.973 738.677h1.538c.603 0 1.093-.164 1.468-.492.375-.329.562-.753.562-1.275 0-.521-.176-.934-.527-1.239-.364-.311-.87-.466-1.521-.466-.615 0-1.113.167-1.494.501-.381.334-.589.779-.624 1.336h-2.443c.047-1.178.495-2.118 1.344-2.821.85-.703 1.96-1.055 3.331-1.055 1.325 0 2.394.311 3.208.932.821.621 1.231 1.438 1.231 2.452 0 .767-.243 1.421-.73 1.96-.474.527-1.104.861-1.889 1.002v.052c.955.082 1.711.393 2.267.932.563.545.844 1.254.844 2.127 0 1.131-.466 2.048-1.397 2.751-.926.691-2.124 1.037-3.595 1.037-1.424 0-2.575-.36-3.454-1.081-.873-.709-1.342-1.652-1.406-2.83h2.54c.041.539.269.97.685 1.292.422.322.979.483 1.67.483.662 0 1.204-.17 1.626-.509.422-.34.633-.777.633-1.31 0-.58-.205-1.037-.615-1.371-.411-.328-.973-.492-1.688-.492h-1.564v-1.916zm13.166 7.734c-1.594 0-2.848-.595-3.762-1.784-.914-1.184-1.371-2.804-1.371-4.86 0-2.045.46-3.66 1.38-4.843.914-1.178 2.165-1.767 3.753-1.767s2.839.589 3.753 1.767c.914 1.178 1.371 2.789 1.371 4.834 0 2.051-.454 3.671-1.363 4.86-.914 1.195-2.168 1.793-3.761 1.793zm0-2.127c.761 0 1.356-.392 1.784-1.178.428-.791.641-1.904.641-3.339 0-1.424-.216-2.529-.65-3.314-.428-.779-1.019-1.169-1.775-1.169s-1.348.39-1.776 1.169c-.439.791-.659 1.896-.659 3.314 0 1.429.217 2.543.65 3.339.428.786 1.023 1.178 1.785 1.178zm24.301 1.846h-2.364v-8.561h-.07l-3.445 8.438h-1.67l-3.446-8.438h-.07v8.561h-2.364v-12.683h3.076l3.603 8.991h.071l3.603-8.991h3.076v12.683zm10.881 0h-8.402v-12.683h8.402v2.189h-5.748v3.058h5.423v2.039h-5.423v3.2h5.748v2.197zm5.274 0v-10.494h-3.709v-2.189h10.081v2.189h-3.718v10.494h-2.654zm13.447-12.683c1.307 0 2.364.399 3.173 1.196.814.796 1.222 1.845 1.222 3.146 0 1.295-.419 2.344-1.257 3.147-.838.796-1.928 1.195-3.27 1.195h-2.505v3.999h-2.654v-12.683h5.291zm-2.637 6.61h1.925c.762 0 1.354-.197 1.775-.589.422-.393.633-.949.633-1.67s-.211-1.277-.633-1.67c-.416-.387-1.004-.58-1.766-.58h-1.934v4.509zm14.581-6.829c1.881 0 3.369.588 4.465 1.766 1.102 1.178 1.653 2.777 1.653 4.799 0 2.016-.551 3.612-1.653 4.79-1.101 1.178-2.59 1.767-4.465 1.767-1.881 0-3.369-.589-4.465-1.767-1.101-1.178-1.652-2.774-1.652-4.79 0-2.022.551-3.621 1.652-4.799 1.096-1.178 2.584-1.766 4.465-1.766zm0 2.214c-1.037 0-1.863.393-2.478 1.178-.621.785-.932 1.843-.932 3.173 0 1.324.308 2.379.923 3.164.615.779 1.444 1.169 2.487 1.169 1.037 0 1.864-.39 2.479-1.169.615-.785.923-1.84.923-3.164 0-1.33-.308-2.388-.923-3.173-.615-.785-1.442-1.178-2.479-1.178zm8.042 10.688v-12.683h5.599c1.189 0 2.133.284 2.83.853.697.568 1.046 1.339 1.046 2.311 0 .692-.229 1.298-.686 1.82a2.689 2.689 0 0 1-1.696.931v.071c.867.064 1.582.38 2.145.949.562.58.843 1.286.843 2.118 0 1.119-.392 2.004-1.177 2.654-.786.651-1.855.976-3.208.976h-5.696zm2.655-7.409h1.986c.709 0 1.257-.15 1.643-.449.387-.293.581-.709.581-1.248 0-.509-.17-.905-.51-1.186-.34-.276-.821-.413-1.442-.413h-2.258v3.296zm2.364 5.431c1.57 0 2.355-.621 2.355-1.863 0-1.213-.805-1.819-2.417-1.819h-2.302v3.682h2.364zm-91.257 18.66c-.1 1.495-.381 2.511-.844 3.05v.071h5.177v-8.306h-3.999l-.334 5.185zm-2.171 7.823h-2.408v-4.702h.888c.422-.287.726-.701.914-1.24.164-.474.275-1.169.334-2.083l.439-7.163h8.991v10.486h1.582v4.702h-2.399v-2.505h-8.341v2.505zm17.965-15.407c1.881 0 3.369.588 4.465 1.766 1.101 1.178 1.652 2.777 1.652 4.799 0 2.016-.551 3.612-1.652 4.79-1.102 1.178-2.59 1.767-4.465 1.767-1.881 0-3.369-.589-4.465-1.767-1.101-1.178-1.652-2.774-1.652-4.79 0-2.022.551-3.621 1.652-4.799 1.096-1.178 2.584-1.766 4.465-1.766zm0 2.214c-1.037 0-1.863.393-2.479 1.178-.621.785-.931 1.843-.931 3.173 0 1.324.307 2.379.923 3.164.615.779 1.444 1.169 2.487 1.169 1.037 0 1.863-.39 2.478-1.169.616-.785.923-1.84.923-3.164 0-1.33-.307-2.388-.923-3.173-.615-.785-1.441-1.178-2.478-1.178zm17.2-1.995c1.307 0 2.364.399 3.173 1.196.814.796 1.222 1.845 1.222 3.146 0 1.295-.419 2.344-1.257 3.147-.838.796-1.928 1.195-3.27 1.195h-2.505v3.999h-2.654v-12.683h5.291zm-2.637 6.61h1.925c.762 0 1.354-.197 1.776-.589.422-.393.632-.949.632-1.67s-.21-1.277-.632-1.67c-.416-.387-1.005-.58-1.767-.58h-1.934v4.509zm25.181 6.073h-3.252l-4.324-5.572h-.07v5.572h-2.584v-5.572h-.071l-4.35 5.572h-3.182l5.186-6.627-4.887-6.056h3.006l4.227 5.37h.071v-5.37h2.584v5.37h.07l4.236-5.37h2.953l-4.851 6.012 5.238 6.671zm4.948-5.318c-.099 1.495-.38 2.511-.843 3.05v.071h5.176v-8.306h-3.999l-.334 5.185zm-2.171 7.823h-2.408v-4.702h.888c.422-.287.727-.701.914-1.24.164-.474.275-1.169.334-2.083l.439-7.163h8.992v10.486h1.582v4.702h-2.4v-2.505h-8.341v2.505z"/><g clip-path="url(#clip0)"><path d="M709.849 723.244l-21.982-28.23c1.371-.843 2.71-2.044 3.936-3.506 1.226-1.462 2.176-2.99 2.685-4.389l31.628 16.728s-7.405-7.206-11.483-10.46c-4.258-3.238-20.63-12.818-20.63-12.818-2.339-1.961-7.052-.103-10.567 4.088-3.515 4.192-4.442 9.059-2.103 11.021 0 0 12.285 14.452 16.216 18.081 3.914 3.448 12.3 9.485 12.3 9.485z" fill="#E20000"/><path d="M690.975 682.265c-1.056.384-1.97.536-2.043.338-.072-.198.726-.671 1.782-1.056 1.056-.384 1.971-.536 2.043-.338.072.198-.725.671-1.782 1.056zm-9.121 12.052c-.207-.037-.218-.964-.023-2.071.195-1.107.521-1.975.729-1.938.207.036.218.963.023 2.07-.195 1.107-.521 1.975-.729 1.939z" fill="#F9D84F"/><path d="M718.848 731.123s.893.915 2.282-.742l14.06-16.766c1.389-1.657.333-2.377.333-2.377s-19.658-16.153-21.479-17.348c-1.82-1.194-16.516-10.198-16.516-10.198-.488-.409-1.874.254-3.474 1.569-1.355 1.022-2.843 2.597-4.314 4.352-1.553 1.852-2.748 3.672-3.615 5.103-1.016 1.804-1.346 3.188-.858 3.597l-.082.097s11.426 12.903 12.92 14.487c1.493 1.585 20.743 18.226 20.743 18.226z" fill="#4B5151"/><path d="M726.607 723.85l3.106-3.704 1.657 1.39-3.106 3.704-1.657-1.39zm44.058 36.947l3.106-3.704 1.657 1.39-3.106 3.704-1.657-1.39z" fill="#2B3030"/><path d="M765.678 766.743l13.079-15.596a3.15 3.15 0 0 0-.393-4.48l-37.527-31.471a3.15 3.15 0 0 0-4.481.394l-12.996 15.498a3.148 3.148 0 0 0 .393 4.48l37.527 31.471c1.283 1.242 3.254 1.069 4.398-.296z" fill="#4B5151"/><path d="M686.043 694.813l38.209 32.043 7.929-9.455-38.209-32.043c-1.355 1.022-2.842 2.598-4.314 4.352-1.568 1.673-2.763 3.493-3.615 5.103zm39.851 33.253l7.928-9.455 42.401 35.558-7.929 9.455-42.4-35.558z" fill="#5C5E5E"/></g><path d="M809.014 803.938l13.078-15.701a3.185 3.185 0 0 0-.393-4.511l-37.527-31.683a3.135 3.135 0 0 0-4.48.396l-12.997 15.603a3.187 3.187 0 0 0 .393 4.511l37.527 31.683c1.283 1.25 3.254 1.076 4.399-.298z" fill="#4B5151"/><path d="M769.229 765l7.929-9.519 42.4 35.798-7.928 9.519L769.229 765z" fill="#5C5E5E"/></g><g class="decor1" fill="#5A575B"><path d="M225.799 122.575c-.127-.128-.254 0-.381.128l-.763 1.281c-.128.128 0 .256.127.384s.254 0 .381-.128l.764-1.281c0-.128 0-.256-.128-.384zm1.273-2.177c-.128-.128-.255 0-.382.128l-.763 1.281c-.128.128 0 .256.127.384.127.129.254 0 .382-.128l.763-1.28c.127-.128 0-.257-.127-.385zm5.978 6.66c-.127-.128-.254 0-.381.129l-.763 1.28c-.128.128 0 .256.127.384.127.129.254 0 .381-.128l.764-1.28c0-.128 0-.257-.128-.385zm1.273-2.177c-.128-.128-.255 0-.382.128l-.763 1.281c-.128.128 0 .256.127.384s.254 0 .381-.128l.764-1.281c0-.128 0-.256-.127-.384zm-15.497 8.755l-.542-.336.667-1.09.542.336-.667 1.09zm7.839 4.876l-.542-.336.667-1.09.542.336-.667 1.09z"/><path d="M227.072 137.303l.254-.512-.509-.255"/><path d="M227.835 136.792l-.891-.64-.381.64.381.128-.127.256.509.385.509-.769zm-8.651-4.356l.255-.512.636.384"/><path d="M220.202 132.053l-.763-.512-.509.768.509.384.127-.256.382.128.254-.512zm14.248-7.94l-6.742-4.227-4.326 7.172-.254 1.281 5.979 3.714 1.145-.896 4.198-7.044z"/><path d="M225.618 137.917l-6.065-3.762 3.603-5.888 6.065 3.762-3.603 5.888z"/><path d="M229.234 131.541l-3.307 5.507c.254.128.636.128.89-.256l2.672-4.354c.127-.385 0-.769-.255-.897zm-5.852-3.714l-3.307 5.507c-.254-.128-.382-.641-.254-.897l2.671-4.354c.254-.256.636-.384.89-.256zm-1.251 9.027c-1.675-1.039-2.824-2.222-2.566-2.644.258-.421 1.825.079 3.5 1.118 1.675 1.038 2.823 2.222 2.565 2.644-.258.421-1.824-.079-3.499-1.118zm21.351 12.232c0-.128-.128-.256-.382-.256l-1.527.256c-.127 0-.254.128-.254.384 0 .127.127.255.382.255l1.526-.255c.127-.128.255-.256.255-.384zm2.417-.384c0-.128-.127-.256-.382-.256l-1.526.256c-.128 0-.255.128-.255.384 0 .128.127.256.382.256l1.526-.256c.255-.128.382-.256.255-.384zm-1.018 8.836c0-.128-.127-.256-.382-.256l-1.526.256c-.127 0-.255.128-.255.384 0 .128.128.256.382.256l1.527-.256c.127-.128.254-.256.254-.384zm2.417-.512c0-.128-.127-.256-.382-.256l-1.526.256c-.127 0-.255.129-.255.385 0 .128.128.256.382.256l1.527-.256c.254 0 .254-.128.254-.385zm-16.712-5.938l-.102-.631 1.256-.205.102.631-1.256.205zm1.515 9.128l-.102-.632 1.255-.205.102.631-1.255.206z"/><path d="M233.178 159.715l.636-.128-.128-.768"/><path d="M234.195 159.844l-.127-1.025-.636.128v.385h-.254l.127.64.89-.128zm-2.417-9.35l.509-.128.127.768"/><path d="M232.796 151.006l-.254-1.024-.891.128.127.64h.255l.127.384.636-.128zm15.265 5.636l-1.272-7.812-8.269 1.28-1.017.641 1.145 7.044 1.272.256 8.141-1.409z"/><path d="M231.888 159.009l-1.142-7.079 6.78-1.108 1.143 7.079-6.781 1.108z"/><path d="M239.029 157.538l-6.36 1.024c0 .385.381.641.763.513l5.088-.769c.382-.128.636-.512.509-.768zm-1.145-6.916l-6.36 1.025c0-.384.127-.64.509-.769l5.088-.768c.382 0 .763.256.763.512zm-7.468 4.801c-.316-1.955-.178-3.605.308-3.684.485-.079 1.134 1.441 1.45 3.396.315 1.955.177 3.604-.308 3.684-.486.079-1.135-1.442-1.45-3.396z"/></g><path d="M422.657 152.75l-.235-43.543 4.961-.028.235 43.544-4.961.027zm.356 75.049l-.385-71.335 4.961-.028.385 71.336-4.961.027zm9.411-40.168l-.241-44.44 5.343-.03.24 44.441-5.342.029zm.227 48.842l-.24-44.441 5.343-.029.24 44.441-5.343.029zm-32.582 1.697l-.042-7.812 15.265-.084.042 7.812-15.265.084z" opacity=".7" fill="#D7E0E9"/></svg>