<?xml version="1.0" encoding="utf-8"?>
<!-- Generator: Adobe Illustrator 17.1.0, SVG Export Plug-In . SVG Version: 6.00 Build 0)  -->
<!DOCTYPE svg PUBLIC "-//W3C//DTD SVG 1.1//EN" "http://www.w3.org/Graphics/SVG/1.1/DTD/svg11.dtd">
<svg version="1.1" id="Layer_1" xmlns="http://www.w3.org/2000/svg" xmlns:xlink="http://www.w3.org/1999/xlink" x="0px" y="0px"
	 width="935" height="807" viewBox="0 0 935 807" enable-background="new 0 0 935 807" xml:space="preserve">

<g id="landmarks-ground">

    <g class="land">
        <path d="M913.738 301.271C924.306 366.794 947.328 422.122 926.696 484.04C916.003 516.242 895.245 550.682 890.339 586.117C887.068 609.865 871.594 632.12 851.465 645.424C840.017 652.884 826.431 656.365 813.095 659.598C788.815 665.566 737.739 657.608 713.208 661.214C690.186 664.695 665.402 671.658 647.916 684.589C616.842 707.714 585.14 722.883 536.957 723.256C491.794 723.629 448.895 703.363 404.361 696.027C382.219 692.422 359.575 693.043 337.056 692.173C287.867 690.308 239.559 685.708 193.011 669.917C166.97 661.09 139.797 644.678 122.939 623.168C92.2429 584.128 81.6755 539.492 67.5855 493.365C61.5469 473.347 47.9601 458.179 39.4055 438.783C30.3477 418.268 25.4413 386.812 23.6801 364.432C18.648 301.147 -1.98376 258.874 0.154907 196.583C1.16132 169.106 10.345 130.935 29.8445 111.291C37.8959 103.209 47.9601 97.6143 58.0244 92.268C105.452 66.9041 147.345 37.313 197.54 17.9171C243.962 0.0132084 300.951 13.0681 350.014 12.9438C397.442 12.8195 446.127 4.36483 492.926 11.4518C519.596 15.4304 545.889 21.7714 571.931 28.6097C622.252 41.6646 672.699 54.3465 721.762 71.5045C762.271 85.8027 824.544 103.955 852.22 138.022C889.458 183.652 902.038 228.039 913.738 301.271Z" fill="#DFEDD2"/>
    </g>

    <g class="decor1">
	<path d="M225.799 122.575C225.672 122.447 225.545 122.575 225.418 122.703L224.655 123.984C224.527 124.112 224.655 124.24 224.782 124.368C224.909 124.496 225.036 124.368 225.163 124.24L225.927 122.959C225.927 122.831 225.927 122.703 225.799 122.575Z" fill="#5A575B"/>
<path d="M227.072 120.398C226.944 120.27 226.817 120.398 226.69 120.526L225.927 121.807C225.799 121.935 225.927 122.063 226.054 122.191C226.181 122.32 226.308 122.191 226.436 122.063L227.199 120.783C227.326 120.655 227.199 120.526 227.072 120.398Z" fill="#5A575B"/>
<path d="M233.05 127.058C232.923 126.93 232.796 127.058 232.669 127.187L231.906 128.467C231.778 128.595 231.906 128.723 232.033 128.851C232.16 128.98 232.287 128.851 232.414 128.723L233.178 127.443C233.178 127.315 233.178 127.186 233.05 127.058Z" fill="#5A575B"/>
<path d="M234.323 124.881C234.195 124.753 234.068 124.881 233.941 125.009L233.178 126.29C233.05 126.418 233.178 126.546 233.305 126.674C233.432 126.802 233.559 126.674 233.686 126.546L234.45 125.265C234.45 125.137 234.45 125.009 234.323 124.881Z" fill="#5A575B"/>
<path d="M218.826 133.636L218.284 133.3L218.951 132.21L219.493 132.546L218.826 133.636Z" fill="#5A575B"/>
<path d="M226.665 138.512L226.123 138.176L226.79 137.086L227.332 137.422L226.665 138.512Z" fill="#5A575B"/>
<path d="M227.072 137.303L227.326 136.791L226.817 136.536" fill="#5A575B"/>
<path d="M227.835 136.792L226.944 136.152L226.563 136.792L226.944 136.92L226.817 137.176L227.326 137.561L227.835 136.792Z" fill="#5A575B"/>
<path d="M219.184 132.436L219.439 131.924L220.075 132.308" fill="#5A575B"/>
<path d="M220.202 132.053L219.439 131.541L218.93 132.309L219.439 132.693L219.566 132.437L219.948 132.565L220.202 132.053Z" fill="#5A575B"/>
<path d="M234.45 124.113L227.708 119.886L223.382 127.058L223.128 128.339L229.107 132.053L230.252 131.157L234.45 124.113Z" fill="#5A575B"/>
<path d="M225.618 137.917L219.553 134.155L223.156 128.267L229.221 132.029L225.618 137.917Z" fill="#5A575B"/>
<path d="M229.234 131.541L225.927 137.048C226.181 137.176 226.563 137.176 226.817 136.792L229.489 132.438C229.616 132.053 229.489 131.669 229.234 131.541Z" fill="#5A575B"/>
<path d="M223.382 127.827L220.075 133.334C219.821 133.206 219.693 132.693 219.821 132.437L222.492 128.083C222.746 127.827 223.128 127.699 223.382 127.827Z" fill="#5A575B"/>
<path d="M222.131 136.854C220.456 135.815 219.307 134.632 219.565 134.21C219.823 133.789 221.39 134.289 223.065 135.328C224.74 136.366 225.888 137.55 225.63 137.972C225.372 138.393 223.806 137.893 222.131 136.854Z" fill="#5A575B"/>
<path d="M243.482 149.086C243.482 148.958 243.354 148.83 243.1 148.83L241.573 149.086C241.446 149.086 241.319 149.214 241.319 149.47C241.319 149.597 241.446 149.725 241.701 149.725L243.227 149.47C243.354 149.342 243.482 149.214 243.482 149.086Z" fill="#5A575B"/>
<path d="M245.899 148.702C245.899 148.574 245.772 148.446 245.517 148.446L243.991 148.702C243.863 148.702 243.736 148.83 243.736 149.086C243.736 149.214 243.863 149.342 244.118 149.342L245.644 149.086C245.899 148.958 246.026 148.83 245.899 148.702Z" fill="#5A575B"/>
<path d="M244.881 157.538C244.881 157.41 244.754 157.282 244.499 157.282L242.973 157.538C242.846 157.538 242.718 157.666 242.718 157.922C242.718 158.05 242.846 158.178 243.1 158.178L244.627 157.922C244.754 157.794 244.881 157.666 244.881 157.538Z" fill="#5A575B"/>
<path d="M247.298 157.026C247.298 156.898 247.171 156.77 246.916 156.77L245.39 157.026C245.263 157.026 245.135 157.155 245.135 157.411C245.135 157.539 245.263 157.667 245.517 157.667L247.044 157.411C247.298 157.411 247.298 157.283 247.298 157.026Z" fill="#5A575B"/>
<path d="M230.586 151.088L230.484 150.457L231.74 150.252L231.842 150.883L230.586 151.088Z" fill="#5A575B"/>
<path d="M232.101 160.216L231.999 159.584L233.254 159.379L233.356 160.01L232.101 160.216Z" fill="#5A575B"/>
<path d="M233.178 159.715L233.814 159.587L233.686 158.819" fill="#5A575B"/>
<path d="M234.195 159.844L234.068 158.819L233.432 158.947V159.332H233.178L233.305 159.972L234.195 159.844Z" fill="#5A575B"/>
<path d="M231.778 150.494L232.287 150.366L232.414 151.134" fill="#5A575B"/>
<path d="M232.796 151.006L232.542 149.982L231.651 150.11L231.778 150.75H232.033L232.16 151.134L232.796 151.006Z" fill="#5A575B"/>
<path d="M248.061 156.642L246.789 148.83L238.52 150.11L237.503 150.751L238.648 157.795L239.92 158.051L248.061 156.642Z" fill="#5A575B"/>
<path d="M231.888 159.009L230.746 151.93L237.526 150.822L238.669 157.901L231.888 159.009Z" fill="#5A575B"/>
<path d="M239.029 157.538L232.669 158.562C232.669 158.947 233.05 159.203 233.432 159.075L238.52 158.306C238.902 158.178 239.156 157.794 239.029 157.538Z" fill="#5A575B"/>
<path d="M237.884 150.622L231.524 151.647C231.524 151.263 231.651 151.007 232.033 150.878L237.121 150.11C237.503 150.11 237.884 150.366 237.884 150.622Z" fill="#5A575B"/>
<path d="M230.416 155.423C230.1 153.468 230.238 151.818 230.724 151.739C231.209 151.66 231.858 153.18 232.174 155.135C232.489 157.09 232.351 158.739 231.866 158.819C231.38 158.898 230.731 157.377 230.416 155.423Z" fill="#5A575B"/>
</g>

    <g class="work-area" id="work-area">
        <path d="M47.7392 466.234C51.3436 482.145 55.4693 498.272 63.5994 512.294C71.5845 526.069 83.159 537.256 94.4633 548.206C106.453 559.875 118.568 571.534 130.558 583.203C151.67 603.678 175.784 625.463 204.843 625.927C214.194 626.108 223.883 624.078 232.801 626.861C243.398 630.158 250.929 639.6 260.224 645.695C273.506 654.438 288.977 655.432 304.187 657.989C319.533 660.663 330.623 667.134 344.599 671.712C378.756 682.833 427.124 676.674 462.29 671.144C475.762 669.081 489.156 665.995 502.715 665.081C521.177 663.919 539.543 666.49 557.966 668.157C597.593 671.534 637.325 669.636 676.825 666.342C684.728 665.735 692.835 664.469 701.066 663.194C701.317 663.175 701.443 663.165 701.694 663.146C701.819 663.136 701.945 663.127 702.07 663.117C702.196 663.107 702.447 663.088 702.572 663.078C702.697 663.069 702.697 663.069 702.823 663.059C703.199 663.03 703.45 663.011 703.817 662.854C704.319 662.816 704.82 662.777 705.313 662.611C705.814 662.572 706.442 662.524 706.934 662.358C710.061 661.989 713.187 661.62 716.324 661.379C716.575 661.36 716.826 661.34 717.077 661.321C717.202 661.311 717.202 661.311 717.327 661.302C717.327 661.302 717.327 661.302 717.453 661.292L717.955 661.253C721.718 660.964 725.492 660.802 729.159 660.906C745.199 661.086 760.198 667.513 776.362 664.343C786.804 662.256 796.597 656.621 807.319 656.567C819.045 656.437 830.28 663.153 842.073 662.247C857.891 661.159 869.815 647.009 877.319 632.814C891.652 605.503 899.549 574.501 894.705 543.911C890.315 515.984 870.957 492.366 866.229 464.979C863.503 449.001 863.518 432.555 863.677 416.355C864.058 366.477 872.383 319.843 857.719 271.251C847.972 239.239 833.911 208.587 815.769 180.689C808.045 168.692 796.364 162.529 798 147.5C785.404 120.142 783.638 113 768 101.5C749.138 80.5 721.47 77.9764 706.934 71C655.208 46.1981 608.034 38.9043 550.5 38.9043C488.69 50.8506 474.032 34.0337 410.676 38.9043C385.835 40.8139 361.131 47.8521 336.541 48.0723C335.026 48.0603 333.636 48.0387 332.121 48.0267C301.779 47.2759 272.092 43.5198 241.587 47.2781C197.456 52.7264 154.282 65.8095 114.092 84.9585C90.5864 96.1443 67.6603 109.983 51.2889 130.385C14.1761 176.791 24.6826 232.127 24.6697 286.858C24.9285 346.836 34.568 407.377 47.7392 466.234Z" fill="#54341D"/>
    </g>

	<g class="1" id="office">
		<rect x="342" y="260" width="123" height="157" fill="#53341D"/>
        <path class="path1" d="M362.297 402.903L362.15 285.719L375.507 285.702L375.654 402.886L362.297 402.903Z" fill="#A1A8AD"/>
        <path class="path2" d="M375.73 402.657L375.583 285.857L439.188 285.776L439.335 402.576L375.73 402.657Z" fill="#D7E0E9"/>
	</g>

	<g class="2" id="warehouse2">
		<rect x="80" y="300" width="85" height="217" fill="#53341D"/>
        <g opacity="0.7">
            <path d="M107.176 399.064L106.713 313.385L127.321 313.272L127.784 398.951L107.176 399.064Z" fill="#D7E0E9"/>
            <path d="M107.703 490.712L107.229 402.984L127.837 402.871L128.311 490.599L107.703 490.712Z" fill="#D7E0E9"/>
        </g>
	</g>

	<g class="3" id="warehouse3">
	    <rect x="338" y="518" width="116" height="112" fill="#53341D"/>
        <g opacity="0.7">
            <path d="M355.527 607.757L357.088 572.957L434.228 576.464L432.667 611.264L355.527 607.757Z" fill="#D7E0E9"/>
            <path d="M381.8 569.197L382.357 556.787L404.724 557.804L404.167 570.214L381.8 569.197Z" fill="#D7E0E9"/>
            <path d="M408.679 570.016L409.517 551.336L435.061 552.498L434.223 571.177L408.679 570.016Z" fill="#D7E0E9"/>
            <path d="M382.486 552.01L383.064 534.73L386.496 534.847L385.918 552.126L382.486 552.01Z" fill="#D7E0E9"/>
            <path d="M388.5 552.419L388.936 539.364L392.878 539.497L392.441 552.552L388.5 552.419Z" fill="#D7E0E9"/>
        </g>
    </g>

    <g class="4" id="warehouse4">
        <rect x="553" y="277" width="105" height="158" fill="#53341D"/>
        <g opacity="0.7">
            <path d="M568.676 414.305L568.043 297.12L581.4 297.047L582.033 414.232L568.676 414.305Z" fill="#A1A8AD"/>
            <path d="M584.576 308.788L584.512 297.006L608.682 296.874L608.746 308.656L584.576 308.788Z" fill="#D7E0E9"/>
            <path d="M611.884 308.563L611.82 296.78L640.443 296.624L640.507 308.406L611.884 308.563Z" fill="#D7E0E9"/>
            <path d="M585.211 414.057L585.148 402.274L609.318 402.142L609.381 413.924L585.211 414.057Z" fill="#D7E0E9"/>
            <path d="M612.52 413.959L612.457 402.177L641.079 402.02L641.143 413.802L612.52 413.959Z" fill="#D7E0E9"/>
            <path d="M628.809 399.092L628.34 312.26L640.552 312.194L641.021 399.025L628.809 399.092Z" fill="#A1A8AD"/>
            <path d="M618.397 323.692L618.336 312.422L625.46 312.383L625.521 323.653L618.397 323.692Z" fill="#BCC2C6"/>
            <path d="M609.969 323.66L609.908 312.389L617.032 312.351L617.093 323.621L609.969 323.66Z" fill="#BCC2C6"/>
            <path d="M601.542 323.628L601.48 312.358L608.604 312.319L608.665 323.589L601.542 323.628Z" fill="#BCC2C6"/>
            <path d="M593.114 323.596L593.052 312.326L600.176 312.287L600.237 323.557L593.114 323.596Z" fill="#BCC2C6"/>
            <path d="M584.686 323.693L584.625 312.423L591.749 312.384L591.81 323.654L584.686 323.693Z" fill="#BCC2C6"/>
            <path d="M618.485 336.538L618.424 325.267L625.547 325.228L625.609 336.499L618.485 336.538Z" fill="#BCC2C6"/>
            <path d="M610.057 336.506L609.996 325.236L617.12 325.197L617.181 336.467L610.057 336.506Z" fill="#BCC2C6"/>
            <path d="M601.629 336.474L601.568 325.204L608.692 325.165L608.753 336.435L601.629 336.474Z" fill="#BCC2C6"/>
            <path d="M593.201 336.443L593.14 325.172L600.264 325.133L600.325 336.404L593.201 336.443Z" fill="#BCC2C6"/>
            <path d="M584.774 336.539L584.713 325.269L591.837 325.23L591.898 336.5L584.774 336.539Z" fill="#BCC2C6"/>
            <path d="M618.46 349.112L618.4 338.097L625.524 338.059L625.584 349.073L618.46 349.112Z" fill="#BCC2C6"/>
            <path d="M610.031 349.081L609.971 338.067L617.095 338.028L617.154 349.042L610.031 349.081Z" fill="#BCC2C6"/>
            <path d="M601.602 349.051L601.542 338.037L608.666 337.998L608.725 349.012L601.602 349.051Z" fill="#BCC2C6"/>
            <path d="M593.173 349.02L593.113 338.006L600.237 337.967L600.297 348.981L593.173 349.02Z" fill="#BCC2C6"/>
            <path d="M584.744 349.117L584.685 338.103L591.808 338.064L591.868 349.079L584.744 349.117Z" fill="#BCC2C6"/>
            <path d="M618.48 361.639L618.42 350.625L625.543 350.586L625.603 361.6L618.48 361.639Z" fill="#BCC2C6"/>
            <path d="M610.051 361.608L609.991 350.594L617.114 350.555L617.174 361.569L610.051 361.608Z" fill="#BCC2C6"/>
            <path d="M601.621 361.578L601.562 350.564L608.685 350.525L608.745 361.539L601.621 361.578Z" fill="#BCC2C6"/>
            <path d="M593.192 361.548L593.133 350.534L600.256 350.495L600.316 361.509L593.192 361.548Z" fill="#BCC2C6"/>
            <path d="M584.764 361.644L584.704 350.63L591.828 350.592L591.888 361.606L584.764 361.644Z" fill="#BCC2C6"/>
            <path d="M618.499 374.168L618.439 363.154L625.563 363.115L625.623 374.129L618.499 374.168Z" fill="#BCC2C6"/>
            <path d="M610.07 374.137L610.01 363.123L617.134 363.084L617.194 374.098L610.07 374.137Z" fill="#BCC2C6"/>
            <path d="M601.641 374.106L601.581 363.092L608.705 363.053L608.765 374.067L601.641 374.106Z" fill="#BCC2C6"/>
            <path d="M593.212 374.075L593.152 363.061L600.276 363.022L600.336 374.036L593.212 374.075Z" fill="#BCC2C6"/>
            <path d="M584.784 374.173L584.724 363.159L591.848 363.12L591.907 374.134L584.784 374.173Z" fill="#BCC2C6"/>
            <path d="M618.392 386.695L618.332 375.681L625.456 375.642L625.515 386.656L618.392 386.695Z" fill="#BCC2C6"/>
            <path d="M609.963 386.664L609.903 375.65L617.027 375.611L617.086 386.626L609.963 386.664Z" fill="#BCC2C6"/>
            <path d="M601.534 386.634L601.474 375.62L608.597 375.581L608.657 386.596L601.534 386.634Z" fill="#BCC2C6"/>
            <path d="M593.105 386.603L593.045 375.589L600.168 375.551L600.228 386.565L593.105 386.603Z" fill="#BCC2C6"/>
            <path d="M584.803 386.701L584.744 375.687L591.868 375.648L591.927 386.662L584.803 386.701Z" fill="#BCC2C6"/>
            <path d="M618.411 399.223L618.351 388.209L625.475 388.17L625.535 399.184L618.411 399.223Z" fill="#BCC2C6"/>
            <path d="M609.982 399.192L609.922 388.178L617.046 388.139L617.106 399.154L609.982 399.192Z" fill="#BCC2C6"/>
            <path d="M601.553 399.162L601.493 388.148L608.617 388.109L608.677 399.123L601.553 399.162Z" fill="#BCC2C6"/>
            <path d="M593.124 399.131L593.064 388.117L600.188 388.079L600.248 399.093L593.124 399.131Z" fill="#BCC2C6"/>
            <path d="M584.696 399.229L584.636 388.215L591.76 388.176L591.82 399.19L584.696 399.229Z" fill="#BCC2C6"/>
        </g>
    </g>

    <g class="5" id="warehouse5">
		<rect x="677.962" y="536" width="151.05" height="90.0963" transform="rotate(6.80209 677.962 536)" fill="#53341D"/>
        <path d="M684 609.895L691.496 552.113L809.439 567.62L801.943 625.402L684 609.895Z" fill="#D7E0E9"/>
	</g>

    <g class="6" id="warehouse6">
        <rect x="525" y="96" width="162" height="179" fill="#53341D"/>
        <path class="path1" d="M599.544 254.52C601.706 254.264 603.996 254.008 606.159 254.008L605.395 118.766H598.78L599.544 254.52Z" fill="#A1A8AD"/>
        <path class="path2" d="M582.625 156.163C582.879 156.419 582.497 157.059 582.116 156.931C581.734 156.803 581.48 156.419 581.353 156.035C580.844 155.01 580.335 153.986 579.953 152.833C579.444 151.68 578.936 150.528 578.936 149.375C578.936 148.094 579.444 146.814 580.589 146.301C581.607 145.789 582.879 146.301 583.897 146.942C587.332 149.375 587.968 154.37 587.077 158.468C586.95 158.724 586.95 159.108 586.695 159.364C585.932 160.261 584.406 159.364 583.897 158.34C583.388 157.187 583.134 155.779 582.116 155.266" fill="#AE9379"/>
        <path class="path3" d="M576.264 203.933C572.321 195.48 569.649 210.593 575.628 210.593C578.172 210.721 576.9 205.342 576.264 203.933Z" fill="#AE9379"/>
        <path class="path4" d="M646.612 201.627C647.757 192.406 637.453 203.676 642.541 207.006C644.577 208.415 646.358 203.164 646.612 201.627Z" fill="#AE9379"/>
        <path class="path5" d="M557.691 231.212C560.49 230.827 562.398 228.266 563.416 225.705C565.96 219.045 563.67 211.489 563.289 204.317C563.034 198.298 564.179 192.278 565.324 186.259C565.706 184.082 566.596 181.521 568.759 181.264C569.904 181.136 570.921 181.777 572.066 181.905C575.119 182.289 577.409 178.575 577.155 175.501C576.9 172.428 574.992 169.738 573.466 166.921C571.939 164.231 570.794 160.773 572.194 157.956C572.702 156.803 573.593 155.907 573.974 154.754C574.865 152.065 572.957 149.375 571.939 146.814C569.649 141.179 570.921 134.903 571.049 128.884C571.049 126.579 570.921 124.145 569.904 122.224C568.759 120.175 566.596 118.638 564.306 119.151C562.017 119.535 560.49 121.84 559.218 123.761C554.893 130.805 550.568 138.233 549.677 146.429C549.168 152.193 550.313 157.956 550.059 163.719C549.677 172.171 546.115 180.368 546.497 188.821C546.751 195.224 549.423 201.371 551.331 207.519C552.857 212.77 553.494 217.636 552.73 223.015C552.476 226.345 552.094 231.98 557.691 231.212Z" fill="#AE9379"/>
        <path class="path6" d="M623.459 188.308C623.332 188.18 623.205 188.308 623.078 188.436L622.314 189.717C622.187 189.845 622.314 189.973 622.442 190.101C622.569 190.229 622.696 190.101 622.823 189.973L623.586 188.693C623.714 188.564 623.586 188.308 623.459 188.308Z" fill="#5A575B"/>
        <path class="path7" d="M624.859 186.131C624.731 186.002 624.604 186.131 624.477 186.259L623.714 187.539C623.586 187.667 623.714 187.795 623.841 187.924C623.968 188.052 624.095 187.924 624.223 187.795L624.986 186.515C624.986 186.387 624.986 186.259 624.859 186.131Z" fill="#5A575B"/>
        <path class="path8" d="M630.71 192.791C630.583 192.663 630.456 192.791 630.329 192.919L629.565 194.2C629.438 194.328 629.565 194.456 629.693 194.584C629.82 194.712 629.947 194.584 630.074 194.456L630.838 193.175C630.838 193.047 630.838 192.791 630.71 192.791Z" fill="#5A575B"/>
        <path class="path9" d="M632.11 190.613C631.982 190.485 631.855 190.613 631.728 190.741L630.965 192.022C630.838 192.15 630.965 192.278 631.092 192.406C631.219 192.534 631.346 192.406 631.474 192.278L632.237 190.998C632.237 190.869 632.237 190.741 632.11 190.613Z" fill="#5A575B"/>
        <path class="path10" d="M616.541 199.417L616 199.081L616.667 197.991L617.208 198.327L616.541 199.417Z" fill="#5A575B"/>
        <path class="path11" d="M624.38 204.293L623.839 203.957L624.506 202.867L625.047 203.203L624.38 204.293Z" fill="#5A575B"/>
        <path class="path11" d="M624.731 203.036L625.113 202.524L624.477 202.14" fill="#5A575B"/>
        <path class="path12" d="M625.495 202.396L624.604 201.884L624.35 202.396L624.604 202.652L624.477 202.908L624.986 203.164L625.495 202.396Z" fill="#5A575B"/>
        <path class="path13" d="M616.844 198.169L617.226 197.657L617.862 198.041" fill="#5A575B"/>
        <path class="path14" d="M617.989 197.785L617.099 197.273L616.59 198.041L617.226 198.297L617.353 198.041L617.608 198.297L617.989 197.785Z" fill="#5A575B"/>
        <path class="path15" d="M632.237 189.845L625.495 185.619L621.042 192.791L620.915 193.944L626.894 197.658L627.912 196.889L632.237 189.845Z" fill="#5A575B"/>
        <path class="path16" d="M623.291 203.522L617.226 199.76L620.829 193.872L626.894 197.634L623.291 203.522Z" fill="#5A575B"/>
        <path class="path17" d="M626.894 197.145L623.586 202.652C623.841 202.78 624.223 202.78 624.477 202.396L627.148 198.042C627.276 197.785 627.276 197.401 626.894 197.145Z" fill="#5A575B"/>
        <path class="path18" d="M621.042 193.559L617.735 199.066C617.48 198.938 617.353 198.426 617.48 198.17L620.152 193.815C620.406 193.431 620.788 193.431 621.042 193.559Z" fill="#5A575B"/>
        <path class="path19" d="M619.843 202.428C618.168 201.389 617.019 200.205 617.277 199.784C617.535 199.362 619.102 199.862 620.777 200.901C622.452 201.94 623.6 203.124 623.342 203.545C623.084 203.967 621.518 203.466 619.843 202.428Z" fill="#5A575B"/>
        <path class="path20" d="M652.59 169.609C652.59 169.481 652.463 169.353 652.336 169.353L650.81 169.481C650.682 169.481 650.555 169.609 650.555 169.737C650.555 169.865 650.682 169.993 650.81 169.993L652.336 169.865C652.463 169.865 652.59 169.737 652.59 169.609Z" fill="#5A575B"/>
        <path class="path21" d="M655.007 169.482C655.007 169.354 654.88 169.226 654.753 169.226L653.227 169.354C653.099 169.354 652.972 169.482 652.972 169.61C652.972 169.738 653.099 169.865 653.227 169.865L654.753 169.737C655.007 169.737 655.007 169.61 655.007 169.482Z" fill="#5A575B"/>
        <path class="path22" d="M653.099 178.062C653.099 177.934 652.972 177.806 652.845 177.806L651.318 177.934C651.191 177.934 651.064 178.062 651.064 178.19C651.064 178.318 651.191 178.446 651.318 178.446L652.845 178.318C652.972 178.446 653.099 178.318 653.099 178.062Z" fill="#5A575B"/>
        <path class="path23" d="M655.516 177.934C655.516 177.806 655.389 177.678 655.262 177.678L653.735 177.806C653.608 177.806 653.481 177.934 653.481 178.062C653.481 178.19 653.608 178.318 653.735 178.318L655.262 178.19C655.516 178.19 655.644 178.062 655.516 177.934Z" fill="#5A575B"/>
        <path class="path24" d="M639.498 170.302L639.459 169.663L640.729 169.585L640.768 170.224L639.498 170.302Z" fill="#5A575B"/>
        <path class="path25" d="M640.121 179.506L640.083 178.867L641.353 178.789L641.391 179.428L640.121 179.506Z" fill="#5A575B"/>
        <path class="path26" d="M641.269 179.086H641.905L641.778 178.446" fill="#5A575B"/>
        <path class="path27" d="M642.159 179.343V178.319L641.523 178.447V178.831H641.269V179.471L642.159 179.343Z" fill="#5A575B"/>
        <path class="path28" d="M640.76 169.866L641.269 169.738L641.396 170.506" fill="#5A575B"/>
        <path class="path29" d="M641.65 170.505V169.481H640.76V170.121H641.014V170.505H641.65Z" fill="#5A575B"/>
        <path class="path30" d="M656.28 177.678L655.898 169.609L647.502 170.122L646.357 170.634L646.866 177.806L648.138 178.19L656.28 177.678Z" fill="#5A575B"/>
        <path class="path31" d="M640.052 178.256L639.619 171.097L646.476 170.677L646.909 177.836L640.052 178.256Z" fill="#5A575B"/>
        <path class="path32" d="M647.248 177.551L640.887 177.935C640.887 178.319 641.269 178.575 641.523 178.575L646.612 178.319C646.993 178.191 647.375 177.935 647.248 177.551Z" fill="#5A575B"/>
        <path class="path33" d="M646.866 170.634L640.505 171.018C640.505 170.634 640.76 170.377 641.141 170.377L646.23 170.121C646.612 169.993 646.866 170.249 646.866 170.634Z" fill="#5A575B"/>
        <path class="path34" d="M638.93 174.721C638.81 172.744 639.111 171.117 639.602 171.087C640.093 171.057 640.588 172.635 640.708 174.612C640.827 176.589 640.526 178.216 640.035 178.246C639.544 178.276 639.05 176.698 638.93 174.721Z" fill="#5A575B"/>
        <path class="path35" d="M662.513 152.961C662.513 152.833 662.513 152.705 662.386 152.577L660.987 151.937C660.859 151.937 660.732 151.937 660.605 152.065C660.605 152.193 660.605 152.321 660.732 152.449L662.132 153.089C662.259 153.217 662.513 153.089 662.513 152.961Z" fill="#5A575B"/>
        <path class="path36" d="M664.803 153.985C664.803 153.857 664.803 153.729 664.676 153.601L663.276 152.961C663.149 152.961 663.022 152.961 662.895 153.089C662.895 153.217 662.895 153.345 663.022 153.473L664.421 154.113C664.676 154.241 664.803 154.113 664.803 153.985Z" fill="#5A575B"/>
        <path class="path37" d="M659.206 160.901C659.206 160.773 659.206 160.645 659.078 160.517L657.679 159.877C657.552 159.877 657.425 159.877 657.298 160.005C657.298 160.133 657.298 160.261 657.425 160.389L658.824 161.029C658.951 161.157 659.206 161.029 659.206 160.901Z" fill="#5A575B"/>
        <path class="path38" d="M661.496 161.926C661.496 161.798 661.496 161.67 661.368 161.542L659.969 160.902C659.842 160.902 659.715 160.902 659.587 161.03C659.587 161.158 659.587 161.286 659.715 161.414L661.114 162.054C661.368 162.054 661.496 162.054 661.496 161.926Z" fill="#5A575B"/>
        <path class="path39" d="M650.529 147.719L650.776 147.129L651.949 147.625L651.702 148.214L650.529 147.719Z" fill="#5A575B"/>
        <path class="path40" d="M646.963 156.275L647.21 155.685L648.382 156.182L648.136 156.771L646.963 156.275Z" fill="#5A575B"/>
        <path class="path41" d="M648.266 156.545L648.774 156.801L649.029 156.162" fill="#5A575B"/>
        <path class="path42" d="M648.902 157.187L649.283 156.291L648.774 156.035L648.647 156.291H648.393L648.138 156.803L648.902 157.187Z" fill="#5A575B"/>
        <path class="path43" d="M651.828 147.965L652.336 148.222L652.082 148.862" fill="#5A575B"/>
        <path class="path44" d="M652.336 148.99L652.718 147.966L651.955 147.71L651.7 148.222L651.955 148.35L651.827 148.734L652.336 148.99Z" fill="#5A575B"/>
        <path class="path45" d="M662.386 161.926L665.439 154.498L657.806 151.296H656.534L653.863 157.828L654.753 158.724L662.386 161.926Z" fill="#5A575B"/>
        <path class="path46" d="M647.477 155.178L650.241 148.568L656.573 151.249L653.809 157.859L647.477 155.178Z" fill="#5A575B"/>
        <path class="path47" d="M654.245 157.827L648.393 155.266C648.266 155.65 648.393 155.907 648.774 156.163L653.481 158.212C653.863 158.34 654.117 158.084 654.245 157.827Z" fill="#5A575B"/>
        <path class="path48" d="M656.916 151.424L651.064 148.863C651.191 148.479 651.573 148.35 651.955 148.479L656.661 150.528C656.916 150.784 657.17 151.04 656.916 151.424Z" fill="#5A575B"/>
        <path class="path49" d="M647.563 155.128C647.11 154.936 647.361 153.3 648.124 151.475C648.887 149.65 649.872 148.326 650.326 148.518C650.779 148.71 650.528 150.345 649.765 152.17C649.002 153.996 648.016 155.32 647.563 155.128Z" fill="#5A575B"/>
        <path class="path50" d="M622.187 237.103C622.187 234.029 622.315 230.827 623.46 228.01C624.604 225.064 626.894 222.503 629.947 221.991C631.219 221.735 632.873 221.991 633.509 223.271C633.764 223.784 633.891 224.296 633.891 224.936C634.272 229.291 632.364 234.029 634.527 237.615C635.036 238.512 635.799 239.28 636.308 240.176C637.071 241.713 636.944 243.378 636.817 245.043C636.817 245.555 636.817 246.068 636.435 246.452C636.181 246.836 635.926 246.964 635.545 247.22C633.764 248.245 631.855 249.397 629.693 249.526C624.859 249.654 622.187 241.201 622.187 237.103Z" fill="#AE9379"/>
        <path class="path51" d="M582.116 242.226C580.335 244.787 578.427 247.22 575.883 249.013C573.338 250.806 569.904 251.575 567.105 250.294C565.833 249.782 564.688 248.629 564.815 247.22C564.815 246.708 565.07 246.196 565.451 245.684C567.614 241.969 571.812 239.152 572.066 234.798C572.066 233.773 571.939 232.748 572.066 231.724C572.321 230.059 573.338 228.65 574.356 227.369C574.61 226.985 574.992 226.601 575.374 226.473C575.755 226.345 576.137 226.345 576.519 226.345C578.681 226.473 580.844 226.729 582.625 227.754C587.077 230.443 584.533 238.896 582.116 242.226Z" fill="#AE9379"/>
        <path class="path52" d="M614.809 138.489C613.537 136.184 613.537 133.238 614.809 130.805C615.445 129.524 616.972 128.243 618.244 129.012C619.261 129.652 619.134 131.061 619.007 132.213C618.625 134.519 618.371 136.952 617.989 139.257C616.844 139.77 615.445 139.257 614.936 138.233" fill="#AE9379"/>
        <path class="path53" d="M620.279 151.296C619.897 150.527 619.516 149.759 619.516 148.862C619.516 147.966 619.897 147.069 620.661 146.813C621.551 146.557 622.569 147.197 622.95 147.966C623.332 148.862 623.332 149.887 623.332 150.783C623.332 151.424 623.205 152.192 622.823 152.576C622.314 152.961 621.424 152.833 620.915 152.32C620.406 151.808 620.152 151.168 619.897 150.527" fill="#AE9379"/>
    </g>

    <g class="7" id="warehouse7">
        <g opacity="0.7">
            <rect x="175" y="350" width="167" height="201" fill="#53341D"/>
            <path d="M192.216 409.456L264.217 497.824L268.161 494.366L196.286 405.998L192.216 409.456Z" fill="#D7E0E9"/>
            <path d="M305.052 467.856L309.25 464.654L234.195 365.4L229.997 368.602L305.052 467.856Z" fill="#D7E0E9"/>
            <path d="M272.479 438.457L277.542 434.581L287.475 447.732L282.412 451.608L272.479 438.457Z" fill="#D7E0E9"/>
            <path d="M269.705 448.785L274.768 444.908L284.701 458.059L279.638 461.935L269.705 448.785Z" fill="#D7E0E9"/>
            <path d="M286.332 453.198L289.775 450.562L296.243 459.126L292.8 461.761L286.332 453.198Z" fill="#D7E0E9"/>
            <path d="M263.077 426.799L266.52 424.164L272.988 432.727L269.545 435.363L263.077 426.799Z" fill="#D7E0E9"/>
            <path d="M273.117 468.005L276.56 465.369L282.566 473.321L279.123 475.957L273.117 468.005Z" fill="#D7E0E9"/>
            <path d="M263.69 450.449L267.133 447.814L273.139 455.765L269.696 458.401L263.69 450.449Z" fill="#D7E0E9"/>
            <path d="M283.501 462.957L287.855 459.624L293.861 467.575L289.507 470.909L283.501 462.957Z" fill="#D7E0E9"/>
            <path d="M293.996 476.095L290.685 471.711L298.584 465.665L301.895 470.048L293.996 476.095Z" fill="#D7E0E9"/>
            <path d="M264.487 437.614L267.12 435.598L273.126 443.55L270.493 445.565L264.487 437.614Z" fill="#D7E0E9"/>
            <path d="M263.09 507.21L274.864 498.469L289.511 518.465L277.737 527.206L263.09 507.21Z" fill="#A1A8AD"/>
            <path d="M268.432 508.035L277.237 501.498L287.731 515.825L278.926 522.362L268.432 508.035Z" fill="#BCC2C6"/>
            <path d="M275.539 518.059L333.293 475.668L326.55 466.575L269.941 510.631L275.539 518.059ZM331.512 475.284L275.793 516.266L271.722 510.887L326.296 468.368L331.512 475.284Z" fill="#A1A8AD"/>
            <path d="M270.959 511.399H284.316L286.733 500.129L299.836 499.873L302.126 488.091L316.246 487.835L319.427 475.028L332.402 476.052L332.529 474.9L318.409 473.619L315.229 486.554L301.108 486.81L298.818 498.593L285.716 498.977L283.299 510.119H270.959V511.399Z" fill="#A1A8AD"/>
            <path d="M276.302 517.291L279.61 505.508L291.44 506.148L294.875 493.469L306.705 494.622L311.158 481.047L324.769 481.559L327.059 468.496L325.787 468.24L323.624 480.278L310.267 479.766L305.815 493.341L293.857 492.061L290.422 504.868L278.719 504.099L275.03 517.034L276.302 517.291Z" fill="#A1A8AD"/>
        </g>
    </g>

	<g class="8" id="warehouse8">
		<rect x="116" y="201.016" width="66" height="114" transform="rotate(-25.1181 116 201.016)" fill="#53341D"/>
        <g opacity="0.7">
<path d="M171.608 231.31L160.795 234.64L148.201 198.268L158.378 194.298L171.608 231.31Z" fill="#D7E0E9"/>
<path d="M160.795 234.64L154.689 234.896L142.222 199.421L148.201 198.268L160.795 234.64Z" fill="#A1A8AD"/>
<path d="M142.222 199.421L158.378 194.298L148.201 198.268L142.222 199.421Z" fill="#A1A8AD"/>
<path d="M177.459 258.076L170.971 259.997L163.339 237.969L169.572 235.536L177.459 258.076Z" fill="#D7E0E9"/>
<path d="M170.971 259.997L167.282 260.254L159.65 238.609L163.339 237.969L170.971 259.997Z" fill="#A1A8AD"/>
<path d="M159.65 238.61L169.572 235.536L163.339 237.969L159.65 238.61Z" fill="#A1A8AD"/>
<path d="M184.456 277.159L179.495 278.696L173.77 262.047L178.477 260.254L184.456 277.159Z" fill="#D7E0E9"/>
<path d="M179.495 278.696L176.696 278.824L170.971 262.559L173.77 262.047L179.495 278.696Z" fill="#A1A8AD"/>
<path d="M170.971 262.559L178.477 260.254L173.77 262.047L170.971 262.559Z" fill="#A1A8AD"/>
</g>
	</g>

	<g class="9" id="warehouse9">
		<path d="M306.254 268.728L306.2 258.738L339.02 258.558L339.074 268.548L306.254 268.728Z" fill="#AFACAC"/>
        <path d="M324.388 252.653L324.343 244.328L348.513 244.196L348.558 252.52L324.388 252.653Z" fill="#AFACAC"/>
        <path d="M296.312 252.162L296.269 244.222L315.86 244.115L315.903 252.055L296.312 252.162Z" fill="#AFACAC"/>
        <path d="M326.976 328.67L326.873 309.471L334.461 309.43L334.565 328.629L326.976 328.67Z" fill="#AFACAC"/>
        <path d="M316.265 332.041L316.174 315.154L323.362 315.114L323.454 332.002L316.265 332.041Z" fill="#AFACAC"/>
	</g>

    <g class="10" id="warehouse10">
        <path d="M714.735 430.054L707.916 390.041L729.732 386.273L736.551 426.286L714.735 430.054Z" fill="#D7E0E9"/>
    </g>

    <g class="11" id="warehouse11">
        <path d="M639.883 518.566L630.736 464.889L652.552 461.121L661.699 514.798L639.883 518.566Z" fill="#D7E0E9"/>
        <path d="M628.477 572.368L611.578 536.498L620.428 532.272L637.327 568.143L628.477 572.368Z" fill="#D7E0E9"/>
    </g>

	<g class="12" id="warehouse12">
        <rect x="715" y="233" width="105" height="92" fill="#53341D"/>
        <path d="M776.938 269.417L786.869 262.044L800.157 280.185L790.226 287.558L776.938 269.417Z" fill="#D7E0E9"/>
        <path d="M737.836 273.318L752.783 262.22L778.075 296.749L763.128 307.846L737.836 273.318Z" fill="#D7E0E9"/>
    </g>

    <g class="6" id="warehouse6">
        <rect x="525" y="96" width="162" height="179" fill="#53341D"/>
        <path class="path" d="M599.544 254.52C601.706 254.264 603.996 254.008 606.159 254.008L605.395 118.766H598.78L599.544 254.52Z" fill="#A1A8AD"/>
        <path class="path1" d="M582.625 156.163C582.879 156.419 582.497 157.059 582.116 156.931C581.734 156.803 581.48 156.419 581.353 156.035C580.844 155.01 580.335 153.986 579.953 152.833C579.444 151.68 578.936 150.528 578.936 149.375C578.936 148.094 579.444 146.814 580.589 146.301C581.607 145.789 582.879 146.301 583.897 146.942C587.332 149.375 587.968 154.37 587.077 158.468C586.95 158.724 586.95 159.108 586.695 159.364C585.932 160.261 584.406 159.364 583.897 158.34C583.388 157.187 583.134 155.779 582.116 155.266" fill="#AE9379"/>
        <path class="path1" d="M576.264 203.933C572.321 195.48 569.649 210.593 575.628 210.593C578.172 210.721 576.9 205.342 576.264 203.933Z" fill="#AE9379"/>
        <path class="path1" d="M646.612 201.627C647.757 192.406 637.453 203.676 642.541 207.006C644.577 208.415 646.358 203.164 646.612 201.627Z" fill="#AE9379"/>
        <path class="path1" d="M557.691 231.212C560.49 230.827 562.398 228.266 563.416 225.705C565.96 219.045 563.67 211.489 563.289 204.317C563.034 198.298 564.179 192.278 565.324 186.259C565.706 184.082 566.596 181.521 568.759 181.264C569.904 181.136 570.921 181.777 572.066 181.905C575.119 182.289 577.409 178.575 577.155 175.501C576.9 172.428 574.992 169.738 573.466 166.921C571.939 164.231 570.794 160.773 572.194 157.956C572.702 156.803 573.593 155.907 573.974 154.754C574.865 152.065 572.957 149.375 571.939 146.814C569.649 141.179 570.921 134.903 571.049 128.884C571.049 126.579 570.921 124.145 569.904 122.224C568.759 120.175 566.596 118.638 564.306 119.151C562.017 119.535 560.49 121.84 559.218 123.761C554.893 130.805 550.568 138.233 549.677 146.429C549.168 152.193 550.313 157.956 550.059 163.719C549.677 172.171 546.115 180.368 546.497 188.821C546.751 195.224 549.423 201.371 551.331 207.519C552.857 212.77 553.494 217.636 552.73 223.015C552.476 226.345 552.094 231.98 557.691 231.212Z" fill="#AE9379"/>
        <path class="path2" d="M623.459 188.308C623.332 188.18 623.205 188.308 623.078 188.436L622.314 189.717C622.187 189.845 622.314 189.973 622.442 190.101C622.569 190.229 622.696 190.101 622.823 189.973L623.586 188.693C623.714 188.564 623.586 188.308 623.459 188.308Z" fill="#5A575B"/>
        <path class="path2" d="M624.859 186.131C624.731 186.002 624.604 186.131 624.477 186.259L623.714 187.539C623.586 187.667 623.714 187.795 623.841 187.924C623.968 188.052 624.095 187.924 624.223 187.795L624.986 186.515C624.986 186.387 624.986 186.259 624.859 186.131Z" fill="#5A575B"/>
        <path class="path2" d="M630.71 192.791C630.583 192.663 630.456 192.791 630.329 192.919L629.565 194.2C629.438 194.328 629.565 194.456 629.693 194.584C629.82 194.712 629.947 194.584 630.074 194.456L630.838 193.175C630.838 193.047 630.838 192.791 630.71 192.791Z" fill="#5A575B"/>
        <path class="path2" d="M632.11 190.613C631.982 190.485 631.855 190.613 631.728 190.741L630.965 192.022C630.838 192.15 630.965 192.278 631.092 192.406C631.219 192.534 631.346 192.406 631.474 192.278L632.237 190.998C632.237 190.869 632.237 190.741 632.11 190.613Z" fill="#5A575B"/>
        <path class="path2" d="M616.541 199.417L616 199.081L616.667 197.991L617.208 198.327L616.541 199.417Z" fill="#5A575B"/>
        <path class="path2" d="M624.38 204.293L623.839 203.957L624.506 202.867L625.047 203.203L624.38 204.293Z" fill="#5A575B"/>
        <path class="path2" d="M624.731 203.036L625.113 202.524L624.477 202.14" fill="#5A575B"/>
        <path class="path2" d="M625.495 202.396L624.604 201.884L624.35 202.396L624.604 202.652L624.477 202.908L624.986 203.164L625.495 202.396Z" fill="#5A575B"/>
        <path class="path2" d="M616.844 198.169L617.226 197.657L617.862 198.041" fill="#5A575B"/>
        <path class="path2" d="M617.989 197.785L617.099 197.273L616.59 198.041L617.226 198.297L617.353 198.041L617.608 198.297L617.989 197.785Z" fill="#5A575B"/>
        <path class="path2" d="M632.237 189.845L625.495 185.619L621.042 192.791L620.915 193.944L626.894 197.658L627.912 196.889L632.237 189.845Z" fill="#5A575B"/>
        <path class="path2" d="M623.291 203.522L617.226 199.76L620.829 193.872L626.894 197.634L623.291 203.522Z" fill="#5A575B"/>
        <path class="path2" d="M626.894 197.145L623.586 202.652C623.841 202.78 624.223 202.78 624.477 202.396L627.148 198.042C627.276 197.785 627.276 197.401 626.894 197.145Z" fill="#5A575B"/>
        <path class="path2" d="M621.042 193.559L617.735 199.066C617.48 198.938 617.353 198.426 617.48 198.17L620.152 193.815C620.406 193.431 620.788 193.431 621.042 193.559Z" fill="#5A575B"/>
        <path class="path2" d="M619.843 202.428C618.168 201.389 617.019 200.205 617.277 199.784C617.535 199.362 619.102 199.862 620.777 200.901C622.452 201.94 623.6 203.124 623.342 203.545C623.084 203.967 621.518 203.466 619.843 202.428Z" fill="#5A575B"/>
        <path class="path2" d="M652.59 169.609C652.59 169.481 652.463 169.353 652.336 169.353L650.81 169.481C650.682 169.481 650.555 169.609 650.555 169.737C650.555 169.865 650.682 169.993 650.81 169.993L652.336 169.865C652.463 169.865 652.59 169.737 652.59 169.609Z" fill="#5A575B"/>
        <path class="path2" d="M655.007 169.482C655.007 169.354 654.88 169.226 654.753 169.226L653.227 169.354C653.099 169.354 652.972 169.482 652.972 169.61C652.972 169.738 653.099 169.865 653.227 169.865L654.753 169.737C655.007 169.737 655.007 169.61 655.007 169.482Z" fill="#5A575B"/>
        <path class="path2" d="M653.099 178.062C653.099 177.934 652.972 177.806 652.845 177.806L651.318 177.934C651.191 177.934 651.064 178.062 651.064 178.19C651.064 178.318 651.191 178.446 651.318 178.446L652.845 178.318C652.972 178.446 653.099 178.318 653.099 178.062Z" fill="#5A575B"/>
        <path class="path2" d="M655.516 177.934C655.516 177.806 655.389 177.678 655.262 177.678L653.735 177.806C653.608 177.806 653.481 177.934 653.481 178.062C653.481 178.19 653.608 178.318 653.735 178.318L655.262 178.19C655.516 178.19 655.644 178.062 655.516 177.934Z" fill="#5A575B"/>
        <path class="path2" d="M639.498 170.302L639.459 169.663L640.729 169.585L640.768 170.224L639.498 170.302Z" fill="#5A575B"/>
        <path class="path2" d="M640.121 179.506L640.083 178.867L641.353 178.789L641.391 179.428L640.121 179.506Z" fill="#5A575B"/>
        <path class="path2" d="M641.269 179.086H641.905L641.778 178.446" fill="#5A575B"/>
        <path class="path2" d="M642.159 179.343V178.319L641.523 178.447V178.831H641.269V179.471L642.159 179.343Z" fill="#5A575B"/>
        <path class="path2" d="M640.76 169.866L641.269 169.738L641.396 170.506" fill="#5A575B"/>
        <path class="path2" d="M641.65 170.505V169.481H640.76V170.121H641.014V170.505H641.65Z" fill="#5A575B"/>
        <path class="path2" d="M656.28 177.678L655.898 169.609L647.502 170.122L646.357 170.634L646.866 177.806L648.138 178.19L656.28 177.678Z" fill="#5A575B"/>
        <path class="path2" d="M640.052 178.256L639.619 171.097L646.476 170.677L646.909 177.836L640.052 178.256Z" fill="#5A575B"/>
        <path class="path2" d="M647.248 177.551L640.887 177.935C640.887 178.319 641.269 178.575 641.523 178.575L646.612 178.319C646.993 178.191 647.375 177.935 647.248 177.551Z" fill="#5A575B"/>
        <path class="path2" d="M646.866 170.634L640.505 171.018C640.505 170.634 640.76 170.377 641.141 170.377L646.23 170.121C646.612 169.993 646.866 170.249 646.866 170.634Z" fill="#5A575B"/>
        <path class="path2" d="M638.93 174.721C638.81 172.744 639.111 171.117 639.602 171.087C640.093 171.057 640.588 172.635 640.708 174.612C640.827 176.589 640.526 178.216 640.035 178.246C639.544 178.276 639.05 176.698 638.93 174.721Z" fill="#5A575B"/>
        <path class="path2" d="M662.513 152.961C662.513 152.833 662.513 152.705 662.386 152.577L660.987 151.937C660.859 151.937 660.732 151.937 660.605 152.065C660.605 152.193 660.605 152.321 660.732 152.449L662.132 153.089C662.259 153.217 662.513 153.089 662.513 152.961Z" fill="#5A575B"/>
        <path class="path2" d="M664.803 153.985C664.803 153.857 664.803 153.729 664.676 153.601L663.276 152.961C663.149 152.961 663.022 152.961 662.895 153.089C662.895 153.217 662.895 153.345 663.022 153.473L664.421 154.113C664.676 154.241 664.803 154.113 664.803 153.985Z" fill="#5A575B"/>
        <path class="path2" d="M659.206 160.901C659.206 160.773 659.206 160.645 659.078 160.517L657.679 159.877C657.552 159.877 657.425 159.877 657.298 160.005C657.298 160.133 657.298 160.261 657.425 160.389L658.824 161.029C658.951 161.157 659.206 161.029 659.206 160.901Z" fill="#5A575B"/>
        <path class="path2" d="M661.496 161.926C661.496 161.798 661.496 161.67 661.368 161.542L659.969 160.902C659.842 160.902 659.715 160.902 659.587 161.03C659.587 161.158 659.587 161.286 659.715 161.414L661.114 162.054C661.368 162.054 661.496 162.054 661.496 161.926Z" fill="#5A575B"/>
        <path class="path2" d="M650.529 147.719L650.776 147.129L651.949 147.625L651.702 148.214L650.529 147.719Z" fill="#5A575B"/>
        <path class="path2" d="M646.963 156.275L647.21 155.685L648.382 156.182L648.136 156.771L646.963 156.275Z" fill="#5A575B"/>
        <path class="path2" d="M648.266 156.545L648.774 156.801L649.029 156.162" fill="#5A575B"/>
        <path class="path2" d="M648.902 157.187L649.283 156.291L648.774 156.035L648.647 156.291H648.393L648.138 156.803L648.902 157.187Z" fill="#5A575B"/>
        <path class="path2" d="M651.828 147.965L652.336 148.222L652.082 148.862" fill="#5A575B"/>
        <path class="path2" d="M652.336 148.99L652.718 147.966L651.955 147.71L651.7 148.222L651.955 148.35L651.827 148.734L652.336 148.99Z" fill="#5A575B"/>
        <path class="path2" d="M662.386 161.926L665.439 154.498L657.806 151.296H656.534L653.863 157.828L654.753 158.724L662.386 161.926Z" fill="#5A575B"/>
        <path class="path2" d="M647.477 155.178L650.241 148.568L656.573 151.249L653.809 157.859L647.477 155.178Z" fill="#5A575B"/>
        <path class="path2" d="M654.245 157.827L648.393 155.266C648.266 155.65 648.393 155.907 648.774 156.163L653.481 158.212C653.863 158.34 654.117 158.084 654.245 157.827Z" fill="#5A575B"/>
        <path class="path2" d="M656.916 151.424L651.064 148.863C651.191 148.479 651.573 148.35 651.955 148.479L656.661 150.528C656.916 150.784 657.17 151.04 656.916 151.424Z" fill="#5A575B"/>
        <path class="path2" d="M647.563 155.128C647.11 154.936 647.361 153.3 648.124 151.475C648.887 149.65 649.872 148.326 650.326 148.518C650.779 148.71 650.528 150.345 649.765 152.17C649.002 153.996 648.016 155.32 647.563 155.128Z" fill="#5A575B"/>
        <path class="path1" d="M622.187 237.103C622.187 234.029 622.315 230.827 623.46 228.01C624.604 225.064 626.894 222.503 629.947 221.991C631.219 221.735 632.873 221.991 633.509 223.271C633.764 223.784 633.891 224.296 633.891 224.936C634.272 229.291 632.364 234.029 634.527 237.615C635.036 238.512 635.799 239.28 636.308 240.176C637.071 241.713 636.944 243.378 636.817 245.043C636.817 245.555 636.817 246.068 636.435 246.452C636.181 246.836 635.926 246.964 635.545 247.22C633.764 248.245 631.855 249.397 629.693 249.526C624.859 249.654 622.187 241.201 622.187 237.103Z" fill="#AE9379"/>
        <path class="path1" d="M582.116 242.226C580.335 244.787 578.427 247.22 575.883 249.013C573.338 250.806 569.904 251.575 567.105 250.294C565.833 249.782 564.688 248.629 564.815 247.22C564.815 246.708 565.07 246.196 565.451 245.684C567.614 241.969 571.812 239.152 572.066 234.798C572.066 233.773 571.939 232.748 572.066 231.724C572.321 230.059 573.338 228.65 574.356 227.369C574.61 226.985 574.992 226.601 575.374 226.473C575.755 226.345 576.137 226.345 576.519 226.345C578.681 226.473 580.844 226.729 582.625 227.754C587.077 230.443 584.533 238.896 582.116 242.226Z" fill="#AE9379"/>
        <path class="path1" d="M614.809 138.489C613.537 136.184 613.537 133.238 614.809 130.805C615.445 129.524 616.972 128.243 618.244 129.012C619.261 129.652 619.134 131.061 619.007 132.213C618.625 134.519 618.371 136.952 617.989 139.257C616.844 139.77 615.445 139.257 614.936 138.233" fill="#AE9379"/>
        <path class="path1" d="M620.279 151.296C619.897 150.527 619.516 149.759 619.516 148.862C619.516 147.966 619.897 147.069 620.661 146.813C621.551 146.557 622.569 147.197 622.95 147.966C623.332 148.862 623.332 149.887 623.332 150.783C623.332 151.424 623.205 152.192 622.823 152.576C622.314 152.961 621.424 152.833 620.915 152.32C620.406 151.808 620.152 151.168 619.897 150.527" fill="#AE9379"/>
    </g>

    <g class="rails">
        <path d="M184.235 89.5281C204.76 185.88 235.818 266.95 276.733 330.7C311.166 384.261 345.6 415.263 368.421 435.639C372.337 439.132 375.983 442.48 379.223 445.391C404.475 468.97 534.107 574.928 630.926 653.815C632.816 655.416 634.842 656.871 636.732 658.472C638.893 660.219 641.053 661.965 643.214 663.712C665.494 681.76 685.615 698.061 701.683 711.16C701.683 711.16 701.818 711.16 701.818 711.306C705.059 713.926 708.03 716.4 711.001 718.729C716.132 722.804 720.588 726.443 724.504 729.645C726.8 731.537 728.825 733.138 730.716 734.739C730.986 734.884 731.256 735.175 731.526 735.467C732.066 735.467 732.606 735.466 733.146 735.321C733.686 735.321 734.362 735.321 734.902 735.175C738.278 735.03 741.653 734.884 745.029 734.884C745.299 734.884 745.569 734.884 745.839 734.884H745.974L746.11 734.739C745.974 734.593 744.489 733.429 741.923 731.391C739.223 729.208 735.172 725.86 730.041 721.785C730.041 721.785 730.041 721.785 729.906 721.64C726.125 718.583 721.668 714.944 716.672 710.869C713.836 708.54 710.866 706.212 707.625 703.592C702.494 699.516 696.957 695.004 691.151 690.201C690.746 689.91 690.476 689.619 690.071 689.328C687.235 686.999 684.399 684.671 681.428 682.342C681.023 682.051 680.753 681.76 680.348 681.469C677.512 679.14 674.677 676.811 671.706 674.482C671.301 674.191 671.031 673.9 670.626 673.609C667.79 671.28 664.954 668.951 661.984 666.623C661.578 666.332 661.308 666.041 660.903 665.749C657.663 663.13 654.287 660.364 650.911 657.744C650.236 657.162 649.561 656.726 649.02 656.143C648.615 655.852 648.075 655.416 647.67 654.979C646.59 654.106 645.645 653.232 644.564 652.359C643.889 651.777 643.214 651.34 642.539 650.758C640.648 649.303 638.758 647.702 636.867 646.101C622.419 634.311 607.16 621.94 591.631 609.277C590.686 608.549 589.741 607.822 588.795 606.948C587.85 606.221 587.04 605.493 586.095 604.765C499.538 534.029 405.96 457.035 385.435 437.822C382.194 434.766 378.413 431.418 374.497 427.925C352.082 407.84 318.188 377.42 284.565 325.023C244.325 262.293 213.672 182.387 193.417 87.3448L184.235 89.5281Z" fill="#57351E"/>
        <path d="M193.957 86.4711L194.092 87.1988C214.212 182.096 244.865 262.001 285.105 324.586C318.728 376.983 352.622 407.257 374.902 427.343L375.848 428.216C379.493 431.418 382.869 434.474 385.84 437.24C406.77 456.889 503.994 536.649 583.934 601.999C584.744 602.727 585.69 603.455 586.635 604.183C587.58 604.91 588.39 605.638 589.336 606.366C603.919 618.301 618.368 630.09 632.276 641.297C634.032 642.753 635.652 644.062 637.408 645.372C639.028 646.682 640.513 647.847 641.999 649.157C642.404 649.448 642.674 649.739 643.079 650.03L644.969 651.631C645.915 652.359 646.86 653.232 647.94 653.96L648.21 654.251L651.451 656.871C654.827 659.636 658.203 662.256 661.443 664.876C661.849 665.167 662.119 665.458 662.524 665.749C664.009 666.913 665.494 668.223 666.98 669.388C668.465 670.552 669.816 671.716 671.166 672.881C671.571 673.172 671.841 673.463 672.246 673.754C674.947 675.937 677.648 678.121 680.213 680.158L680.888 680.74C681.158 681.031 681.563 681.323 681.969 681.614L683.859 683.215C686.155 685.107 688.315 686.853 690.611 688.6C690.881 688.891 691.286 689.182 691.691 689.473C694.797 692.093 697.903 694.567 700.873 696.896C703.304 698.934 705.734 700.826 708.03 702.718C708.165 702.718 708.165 702.864 708.165 702.864L717.212 710.141C717.212 710.141 717.212 710.141 717.212 710.286C720.048 712.615 722.749 714.798 725.314 716.836L740.168 728.771C744.084 731.973 746.38 733.865 746.65 734.011L748 735.029H746.92H746.38C746.38 735.029 746.38 735.029 746.245 735.029C746.11 735.029 746.11 735.029 745.974 735.029C745.704 735.029 745.434 735.029 745.164 735.029C741.788 735.029 738.413 735.175 735.037 735.321C734.497 735.321 733.821 735.321 733.281 735.466C732.741 735.466 732.201 735.466 731.661 735.612C731.256 735.612 730.986 735.612 730.581 735.757L730.446 735.612L729.77 735.029C729.365 734.738 728.96 734.302 728.555 734.011C728.555 734.011 728.555 734.011 728.42 733.865C727.205 732.846 725.854 731.682 724.369 730.663C724.369 730.663 724.369 730.663 724.234 730.663C721.803 728.625 718.968 726.442 716.132 724.113L710.866 719.893C710.866 719.893 710.866 719.893 710.731 719.747L710.191 719.31C707.49 717.127 704.654 714.798 701.548 712.324L701.413 712.179C686.83 700.389 669.41 686.271 650.641 670.989C648.075 668.951 645.645 666.913 643.079 664.876C640.918 663.129 638.758 661.383 636.597 659.636C636.597 659.636 636.597 659.636 636.462 659.636C532.892 575.51 404.205 470.134 378.953 446.555C375.577 443.353 371.662 439.86 368.151 436.803C345.33 416.281 310.896 385.425 276.328 331.718C235.278 267.968 204.22 186.608 183.695 90.2553L183.56 89.5276L193.957 86.4711ZM733.011 734.738C733.551 734.738 733.957 734.738 734.497 734.593C734.767 734.593 735.037 734.593 735.307 734.593C735.577 734.593 735.847 734.593 735.982 734.593C736.252 734.593 736.387 734.593 736.657 734.593C736.927 734.593 737.062 734.593 737.332 734.593C737.602 734.593 737.873 734.593 738.143 734.593H738.278C739.898 734.593 741.383 734.447 742.869 734.447C743.139 734.447 743.409 734.447 743.679 734.447C743.814 734.447 743.814 734.447 743.949 734.447H744.624C743.949 733.865 742.869 732.992 741.518 731.973C740.843 731.391 740.033 730.809 739.223 730.081L733.821 725.714L729.635 722.221L724.504 718C721.939 715.963 719.373 713.78 716.402 711.451C716.402 711.451 716.402 711.451 716.267 711.305L707.22 704.028C702.089 699.953 696.552 695.441 690.746 690.638C690.341 690.346 690.071 690.055 689.665 689.764C687.505 688.018 685.209 686.126 682.914 684.379L680.888 682.778C680.618 682.487 680.213 682.196 679.943 682.05L679.268 681.468C676.702 679.285 674.002 677.247 671.301 675.064C670.896 674.773 670.626 674.482 670.221 674.191C668.87 673.026 667.385 671.862 666.035 670.698C664.549 669.533 663.064 668.369 661.579 667.059C661.308 666.768 660.903 666.477 660.498 666.186C659.148 665.021 657.663 663.857 656.312 662.693C655.502 662.11 654.692 661.383 653.882 660.8C652.801 659.927 651.586 659.054 650.506 658.035L648.48 656.434L647.13 655.415L646.995 655.27C646.05 654.542 645.104 653.669 644.024 652.941L641.999 651.34C626.74 638.968 610.536 625.724 594.062 612.333C593.117 611.605 592.171 610.732 591.226 610.004C590.281 609.277 589.336 608.549 588.39 607.676C507.37 541.597 406.365 458.635 384.895 438.695C381.924 435.93 378.548 432.873 374.902 429.671L373.957 428.798C351.542 408.713 317.648 378.293 283.89 325.751C243.65 263.165 212.997 183.406 192.877 88.5087L184.91 90.4008C205.3 186.316 236.358 267.095 277.138 330.699C311.572 384.261 345.87 415.117 368.691 435.493C372.202 438.55 376.118 442.188 379.493 445.245C403.934 468.096 524.655 566.922 626.065 649.448C627.82 650.903 629.576 652.213 631.196 653.669C633.086 655.27 634.977 656.725 636.867 658.326C657.933 675.501 677.648 691.511 694.392 705.047C696.822 707.084 699.388 708.977 701.684 711.014C701.684 711.014 701.819 711.014 701.819 711.16C704.789 713.634 707.76 715.963 710.461 718.146L711.001 718.583L716.267 722.804C719.238 725.278 721.939 727.461 724.504 729.499C726.53 731.1 728.285 732.555 730.041 733.865L730.716 734.447C730.986 734.593 731.121 734.738 731.391 735.029C732.201 734.738 732.606 734.738 733.011 734.738Z" fill="#808086"/>
        <path d="M485.495 278.157C485.225 307.266 485.63 406.093 503.859 456.307C505.075 459.654 506.29 463.293 507.505 466.64L508.18 468.678C525.735 519.911 555.172 565.758 586.5 604.183C587.31 605.056 587.985 606.075 588.795 606.948C589.606 607.967 590.416 608.84 591.226 609.859C604.594 625.869 618.233 640.569 631.466 653.523C633.222 655.27 634.977 657.016 636.732 658.763C638.758 660.8 640.783 662.693 642.809 664.585C646.32 667.932 649.696 671.134 653.071 674.191C681.293 699.953 707.76 720.184 726.53 733.574C727.61 734.302 728.555 735.029 729.5 735.757C729.635 735.757 729.906 735.757 730.041 735.757C730.176 735.757 730.176 735.757 730.311 735.757C730.716 735.757 730.986 735.757 731.391 735.612C731.931 735.612 732.471 735.612 733.011 735.466C733.551 735.466 734.227 735.466 734.767 735.321C738.143 735.175 741.518 735.029 744.894 735.029C745.164 735.029 745.434 735.029 745.704 735.029C745.839 735.029 745.839 735.029 745.975 735.029C745.975 735.029 745.975 735.029 746.11 735.029C745.975 735.029 745.975 734.884 745.839 734.884C745.704 734.884 745.569 734.738 745.434 734.593C744.219 733.72 742.734 732.846 741.383 731.828C740.573 731.245 739.763 730.663 738.818 730.081C736.657 728.625 734.497 727.024 732.066 725.278C727.61 722.221 722.749 718.583 717.617 714.653C717.617 714.653 717.482 714.653 717.482 714.507C714.647 712.324 711.676 710.141 708.705 707.812C708.3 707.521 708.03 707.23 707.625 706.939C704.789 704.756 701.954 702.427 698.848 700.098C698.443 699.807 698.173 699.516 697.768 699.225C694.932 697.042 692.096 694.567 689.125 692.239C688.72 691.948 688.45 691.656 688.045 691.365C685.209 689.037 682.374 686.708 679.538 684.234C679.133 683.942 678.863 683.651 678.458 683.36C675.622 681.031 672.786 678.557 669.951 676.083C669.681 675.792 669.275 675.501 668.87 675.21C665.63 672.299 662.254 669.388 658.878 666.331C658.473 665.895 657.933 665.458 657.528 665.021C655.637 663.275 653.612 661.383 651.721 659.49C650.641 658.472 649.426 657.307 648.345 656.288C647.535 655.561 646.86 654.833 646.05 654.105C644.834 652.941 643.619 651.776 642.404 650.467C640.648 648.72 638.893 646.973 637.137 645.227C592.576 600.835 542.074 538.25 516.958 464.894L516.282 462.856C515.067 459.363 513.852 455.87 512.637 452.377C508.18 440.151 493.732 391.393 494.812 278.011L493.867 86.4711H484.414L485.495 278.157Z" fill="#57351E"/>
        <path d="M483.874 86.0344H494.677L495.622 278.302C494.542 391.392 508.856 440.151 513.312 452.377C514.662 456.015 515.877 459.654 516.958 462.856L517.633 464.894C543.964 541.743 598.788 606.657 640.783 648.138C641.459 648.865 642.134 649.448 642.809 650.175C644.024 651.34 645.239 652.65 646.455 653.814C647.265 654.542 648.075 655.269 648.75 655.997C649.831 657.016 650.911 658.035 652.126 659.199C653.477 660.509 654.692 661.673 656.042 662.838C656.717 663.42 657.392 664.002 657.933 664.584C658.203 664.876 658.473 665.167 658.878 665.458L659.283 665.894C662.659 668.951 666.035 672.007 669.275 674.773L670.356 675.646C673.056 677.975 675.892 680.449 678.863 682.923C679.268 683.214 679.538 683.506 679.943 683.797C682.779 686.271 685.75 688.6 688.45 690.928C688.855 691.22 689.125 691.511 689.53 691.802C692.501 694.276 695.337 696.605 698.173 698.788L699.253 699.661C702.224 701.99 705.059 704.319 707.895 706.502L708.975 707.375C711.946 709.704 714.917 711.887 717.752 714.07L717.888 714.216C720.588 716.254 723.154 718.146 725.719 720.038C728.015 721.639 730.176 723.24 732.336 724.841C732.741 725.132 733.146 725.423 733.551 725.714C735.442 727.024 737.332 728.334 739.088 729.644C739.898 730.226 740.843 730.808 741.653 731.391C743.139 732.409 744.354 733.283 745.704 734.156C745.839 734.156 745.839 734.302 746.11 734.447L746.38 734.593L746.11 735.175C746.11 735.175 746.11 735.175 745.974 735.175C745.839 735.175 745.839 735.175 745.704 735.175C745.434 735.175 745.164 735.175 744.894 735.175C741.518 735.175 738.143 735.32 734.767 735.466C734.227 735.466 733.551 735.466 733.011 735.611C732.471 735.611 731.931 735.611 731.391 735.757C730.986 735.757 730.716 735.757 730.311 735.903C730.176 735.903 730.176 735.903 730.041 735.903C729.906 735.903 729.635 735.903 729.5 735.903C729.365 735.903 729.23 735.903 729.095 735.903C728.825 735.903 728.69 735.903 728.42 735.903L728.15 735.757C727.475 735.32 726.8 734.884 726.125 734.447C708.57 721.93 681.563 701.553 652.666 675.064C646.86 669.824 641.459 664.73 636.327 659.636C636.327 659.636 636.327 659.636 636.192 659.636C634.437 657.889 632.681 656.143 630.926 654.396C629.305 652.795 627.82 651.194 626.2 649.739C612.696 636.057 600.003 622.085 588.39 607.967C587.715 607.093 586.905 606.22 586.23 605.347C585.555 604.473 584.744 603.455 584.069 602.581C548.555 558.626 522.899 513.943 507.64 469.406L506.965 467.368C505.885 464.02 504.67 460.527 503.319 457.034C485.09 406.675 484.549 307.848 484.82 278.593L483.874 87.1988V86.0344ZM728.15 733.719C728.15 733.719 728.15 733.865 728.15 733.719C728.42 734.01 728.69 734.156 728.96 734.302L729.77 734.884C729.906 734.884 730.041 734.884 730.176 734.884H730.446H730.716H730.851H731.796C732.201 734.884 732.741 734.884 733.146 734.738C733.686 734.738 734.092 734.738 734.632 734.593C734.902 734.593 735.172 734.593 735.442 734.593C735.712 734.593 735.982 734.593 736.117 734.593C736.387 734.593 736.522 734.593 736.792 734.593C737.062 734.593 737.197 734.593 737.467 734.593H738.278H738.413C740.033 734.593 741.518 734.447 743.004 734.447C743.274 734.447 743.544 734.447 743.814 734.447C742.194 733.283 740.438 732.118 738.548 730.808C736.387 729.353 734.227 727.752 731.796 726.151C727.07 722.803 722.209 719.31 717.347 715.671C717.347 715.671 717.212 715.672 717.212 715.526C714.377 713.343 711.406 711.159 708.435 708.831L707.355 707.957C704.519 705.774 701.683 703.445 698.578 701.117L697.497 700.244C694.662 698.06 691.826 695.732 688.855 693.257C688.45 692.966 688.18 692.675 687.775 692.384C684.939 690.055 682.104 687.726 679.268 685.252C678.863 684.961 678.593 684.67 678.188 684.379C675.217 681.905 672.516 679.43 669.681 677.101L668.6 676.228C666.845 674.627 664.954 673.026 663.064 671.28C661.579 669.97 660.093 668.66 658.743 667.35L658.338 666.913C658.068 666.622 657.663 666.331 657.392 666.04L657.257 665.894C655.367 664.148 653.477 662.401 651.451 660.509C649.561 658.763 647.67 657.016 645.915 655.124C644.699 653.959 643.484 652.795 642.269 651.631C640.513 649.884 638.758 648.283 637.002 646.537C635.517 645.081 633.897 643.48 632.411 641.879C591.496 600.253 541.399 538.395 516.688 465.913L516.012 463.875C514.932 460.673 513.582 457.034 512.366 453.396C507.91 441.024 493.462 392.12 494.542 278.739L493.597 87.9265H485.495L486.44 278.593C486.17 307.703 486.575 406.238 504.805 456.452C506.02 459.945 507.235 463.438 508.45 466.786L509.126 468.823C524.925 514.816 551.931 561.246 589.606 606.802C590.416 607.675 591.091 608.694 591.901 609.568C592.711 610.586 593.522 611.46 594.332 612.479C607.565 628.052 622.014 643.48 637.272 658.471C639.163 660.364 641.188 662.256 643.214 664.293C645.51 666.477 647.94 668.805 650.371 671.134C651.451 672.153 652.396 673.026 653.477 674.045C678.998 697.333 702.899 715.963 720.183 728.625C722.479 730.372 724.639 731.827 726.8 733.428C727.34 733.283 727.745 733.428 728.15 733.719Z" fill="#808086"/>
        <path d="M526.005 453.979C526.68 455.871 527.355 457.617 528.165 459.51C557.603 538.833 604.189 604.474 645.104 651.632C645.645 652.36 646.32 652.942 646.86 653.669C647.13 654.106 647.535 654.397 647.805 654.834C648.75 655.998 649.696 657.017 650.641 658.036C651.046 658.618 651.586 659.055 651.991 659.637C653.747 661.675 655.502 663.567 657.257 665.604C662.119 670.844 666.845 675.938 671.301 680.741C682.104 691.948 692.366 701.991 702.089 711.015C702.089 711.015 702.224 711.015 702.224 711.161C705.194 713.926 708.165 716.691 711.001 719.166C715.592 723.241 719.913 727.171 724.099 730.664C724.099 730.664 724.099 730.664 724.234 730.664C725.179 731.537 726.125 732.265 727.07 733.138C728.15 734.012 729.23 734.885 730.311 735.758C730.446 735.758 730.446 735.758 730.581 735.758C730.986 735.758 731.256 735.758 731.661 735.613C732.201 735.613 732.741 735.613 733.281 735.467C733.822 735.467 734.497 735.467 735.037 735.321C738.413 735.176 741.788 735.03 745.164 735.03C744.894 734.739 744.624 734.594 744.219 734.303C742.599 732.993 740.843 731.537 739.088 730.082C737.062 728.335 734.902 726.589 732.741 724.697C731.796 723.823 730.851 723.095 729.77 722.222C725.719 718.729 721.398 714.945 716.942 710.87C714.107 708.25 711.136 705.63 708.165 702.864C698.713 693.986 688.585 684.089 678.053 673.173C633.357 626.598 572.591 551.204 537.213 455.871C536.537 453.979 535.862 452.087 535.052 450.195C531.811 441.753 503.724 360.392 522.494 87.0543L513.042 86.3265C494.137 356.171 520.468 439.861 526.005 453.979Z" fill="#57351E"/>
        <path d="M512.096 86.0355V85.3077L522.899 86.181V86.9088C503.994 360.101 532.081 441.316 535.322 449.612C536.132 451.505 536.807 453.397 537.483 455.289C572.861 550.622 633.627 625.87 678.188 672.445C690.746 685.544 703.844 698.207 717.077 710.142C717.077 710.142 717.077 710.142 717.077 710.287C721.398 714.072 725.584 717.856 729.906 721.64C729.906 721.64 729.906 721.64 730.041 721.786C733.146 724.406 736.252 727.025 739.358 729.645C741.383 731.392 743.409 732.993 745.299 734.594L745.569 734.739L745.975 734.885L746.11 735.03C745.975 735.03 745.974 735.03 745.839 735.03C745.569 735.03 745.299 735.03 745.029 735.03C741.653 735.03 738.278 735.176 734.902 735.322C734.362 735.322 733.686 735.322 733.146 735.467C732.606 735.467 732.066 735.467 731.526 735.613C731.121 735.613 730.851 735.613 730.446 735.758C730.311 735.758 730.311 735.758 730.176 735.758C730.041 735.758 729.77 735.758 729.635 735.758C729.5 735.758 729.365 735.758 729.23 735.758C728.42 735.03 727.61 734.303 726.665 733.575C724.639 731.828 722.479 730.082 720.453 728.19C717.077 725.279 713.837 722.513 710.731 719.602C710.731 719.602 710.731 719.602 710.596 719.457C707.625 716.837 704.789 714.217 701.819 711.452C701.819 711.452 701.684 711.452 701.684 711.306C699.388 709.123 697.092 706.94 694.797 704.757C686.695 696.897 678.593 689.038 670.896 680.887C664.279 674.046 657.798 666.914 651.451 659.928C650.101 658.327 648.615 656.726 647.265 655.125C646.995 654.834 646.59 654.397 646.32 654.106C645.78 653.378 645.239 652.796 644.564 652.069C643.619 651.05 642.809 650.031 641.999 649.012C641.729 648.575 641.324 648.139 640.918 647.848C589.741 588.028 551.661 524.715 527.49 459.51C526.815 457.617 526.14 455.871 525.33 453.979C519.793 440.152 493.462 356.171 512.096 86.0355ZM730.716 734.885H731.526C731.661 734.885 731.661 734.885 731.796 734.885C732.201 734.885 732.741 734.885 733.146 734.739C733.416 734.739 733.551 734.739 733.686 734.739C733.957 734.739 734.362 734.739 734.632 734.739C734.902 734.739 735.172 734.739 735.442 734.739C735.712 734.739 735.982 734.739 736.117 734.739C736.387 734.739 736.522 734.739 736.792 734.739C737.062 734.739 737.197 734.739 737.467 734.739C737.737 734.739 738.143 734.739 738.413 734.739C740.033 734.739 741.518 734.594 743.004 734.594C741.518 733.429 740.033 732.265 738.548 730.955C736.387 729.209 734.362 727.462 732.201 725.57C730.176 723.823 728.015 722.077 725.99 720.185C722.749 717.419 719.643 714.654 716.402 711.743C716.402 711.743 716.402 711.743 716.267 711.597C713.431 708.978 710.596 706.358 707.625 703.738C705.329 701.555 703.034 699.371 700.738 697.188C692.771 689.62 684.939 681.76 677.242 673.755C632.546 627.18 571.781 551.641 536.132 456.162C535.457 454.27 534.782 452.378 533.972 450.486C530.731 442.044 502.509 360.829 521.279 87.782L519.793 87.6365L514.392 87.1999L513.177 87.0543C501.564 255.744 507.505 351.659 515.067 403.037C519.523 433.602 524.384 448.594 526.545 453.833C527.22 455.725 527.895 457.472 528.705 459.364C553.822 526.898 594.062 592.54 648.21 654.397C649.155 655.416 650.101 656.581 651.046 657.599C651.451 658.182 651.991 658.618 652.396 659.2C652.936 659.783 653.476 660.365 653.882 660.947C655.097 662.402 656.447 663.858 657.663 665.168C659.418 667.06 661.173 669.098 662.929 670.99C665.765 674.046 668.735 677.103 671.706 680.159C684.264 693.258 697.633 706.212 711.136 718.438C715.457 722.222 719.778 726.152 724.234 729.936C726.26 731.683 728.15 733.284 730.176 735.03L730.716 734.885Z" fill="#808086"/>
        <path d="M605.269 630.381L608.51 625.724L607.43 624.851L604.189 629.508L605.269 630.381ZM595.412 622.522L598.653 617.864L597.573 616.991L594.332 621.649L595.412 622.522ZM585.69 614.517L588.93 609.859L587.85 608.986L584.609 613.644L585.69 614.517ZM575.967 606.512L579.208 601.854L578.128 600.981L574.887 605.638L575.967 606.512ZM566.245 598.652L569.486 593.995L568.405 593.121L565.164 597.779L566.245 598.652ZM556.522 590.647L559.763 585.99L558.683 585.116L555.442 589.774L556.522 590.647ZM546.665 582.642L549.906 577.984L548.825 577.111L545.585 581.769L546.665 582.642ZM536.942 574.637L540.183 569.979L539.103 569.106L535.862 573.764L536.942 574.637ZM527.22 566.777L530.461 562.12L529.381 561.247L526.14 565.904L527.22 566.777ZM517.498 558.772L520.738 554.115L519.658 553.241L516.417 557.899L517.498 558.772ZM507.775 550.767L511.016 546.11L509.936 545.236L506.695 549.894L507.775 550.767ZM498.053 542.762L501.294 538.105L500.213 537.231L496.972 541.889L498.053 542.762ZM488.33 534.757L491.571 530.099L490.491 529.226L487.25 533.884L488.33 534.757ZM478.608 526.752L481.849 522.094L480.768 521.221L477.528 525.879L478.608 526.752ZM468.886 518.747L472.126 514.089L471.046 513.216L467.805 517.874L468.886 518.747ZM459.163 510.742L462.404 506.084L461.324 505.211L458.083 509.868L459.163 510.742ZM449.441 502.591L452.682 497.934L451.601 497.06L448.36 501.718L449.441 502.591ZM439.718 494.586L442.959 489.928L441.879 489.055L438.638 493.713L439.718 494.586ZM430.131 486.581L433.507 481.923L432.426 481.05L429.186 485.708L430.131 486.581ZM420.409 478.43L423.784 473.773L422.704 472.899L419.328 477.557L420.409 478.43ZM410.686 470.28L414.062 465.768L412.982 464.894L409.606 469.406L410.686 470.28ZM401.099 462.129L404.475 457.617L403.394 456.744L400.018 461.256L401.099 462.129ZM391.511 453.833L394.887 449.321L393.807 448.447L390.431 452.959L391.511 453.833ZM381.924 445.391L385.435 441.025L384.355 440.151L380.844 444.518L381.924 445.391ZM372.607 436.804L376.117 432.292L375.037 431.418L371.526 435.93L372.607 436.804ZM363.289 428.362L366.8 423.85L365.72 422.977L362.209 427.489L363.289 428.362ZM353.972 419.92L357.483 415.554L356.403 414.535L352.892 418.901L353.972 419.92ZM344.79 411.042L348.436 406.675L347.49 405.657L343.845 410.023L344.79 411.042ZM335.742 402.018L339.523 397.797L338.578 396.778L334.797 400.999L335.742 402.018ZM326.965 392.848L330.746 388.773L329.801 387.754L325.885 391.83L326.965 392.848ZM318.458 383.242L322.374 379.313L321.429 378.294L317.513 382.224L318.458 383.242ZM310.221 373.491L314.272 369.561L313.327 368.542L309.276 372.326L310.221 373.491ZM302.119 363.448L306.305 359.664L305.495 358.499L301.309 362.138L302.119 363.448ZM294.422 353.114L298.608 349.475L297.798 348.311L293.477 351.95L294.422 353.114ZM286.995 342.635L291.316 339.142L290.506 337.977L286.185 341.47L286.995 342.635ZM279.839 331.864L284.295 328.517L283.484 327.352L279.028 330.7L279.839 331.864ZM272.817 320.948L277.273 317.746L276.463 316.582L272.007 319.784L272.817 320.948ZM266.2 309.741L270.791 306.684L270.116 305.52L265.525 308.577L266.2 309.741ZM259.854 298.388L264.445 295.477L263.77 294.167L259.178 297.078L259.854 298.388ZM253.777 287.036L258.503 284.125L257.828 282.815L253.102 285.58L253.777 287.036ZM247.836 275.392L252.562 272.626L251.887 271.317L247.16 274.082L247.836 275.392ZM242.299 263.603L247.16 260.983L246.485 259.673L241.624 262.293L242.299 263.603ZM236.898 251.668L241.759 249.193L241.219 247.883L236.358 250.358L236.898 251.668ZM231.767 239.733L236.763 237.404L236.223 236.094L231.227 238.423L231.767 239.733ZM226.905 227.507L231.902 225.178L231.362 223.868L226.365 226.197L226.905 227.507ZM222.179 215.281L227.175 213.098L226.635 211.788L221.639 213.971L222.179 215.281ZM217.723 203.055L222.719 201.017L222.179 199.707L217.183 201.745L217.723 203.055ZM213.402 190.683L218.533 188.646L218.128 187.336L212.997 189.373L213.402 190.683ZM209.351 178.166L214.482 176.274L214.077 174.819L208.946 176.711L209.351 178.166ZM205.57 165.649L210.701 163.903L210.296 162.447L205.165 164.194L205.57 165.649ZM201.789 152.987L206.92 151.24L206.515 149.785L201.384 151.531L201.789 152.987ZM198.413 140.324L203.545 138.723L203.14 137.268L198.008 138.869L198.413 140.324ZM195.038 127.661L200.304 126.06L199.899 124.605L194.632 126.06L195.038 127.661ZM191.932 114.853L197.198 113.398L196.793 111.942L191.527 113.398L191.932 114.853ZM188.961 102.045L194.227 100.735L193.957 99.2798L188.691 100.59L188.961 102.045Z" fill="#808086"/>
        <path d="M186.26 89.9648L191.527 88.655L191.392 87.9272L186.125 89.2371L186.26 89.9648Z" fill="#808086"/>
        <path d="M704.519 714.654L705.464 713.053L704.384 712.179L703.304 713.78L704.519 714.654ZM694.662 706.94L696.282 704.611L695.202 703.738L693.581 706.066L694.662 706.94ZM684.804 699.08L687.235 695.733L686.155 694.859L683.724 698.207L684.804 699.08ZM675.217 690.93L678.323 687L677.242 686.126L674.137 690.056L675.217 690.93ZM665.63 682.633L669.005 678.121L667.925 677.248L664.549 681.76L665.63 682.633ZM656.177 674.192L659.688 669.68L658.608 668.806L655.097 673.318L656.177 674.192ZM646.86 665.75L650.371 661.383L649.29 660.365L645.78 664.731L646.86 665.75ZM637.813 656.872L641.459 652.505L640.513 651.486L636.867 655.853L637.813 656.872ZM628.765 647.993L632.411 643.772L631.466 642.753L627.82 646.974L628.765 647.993ZM619.853 638.969L623.634 634.748L622.689 633.729L618.908 637.95L619.853 638.969ZM611.211 629.654L614.992 625.579L614.047 624.56L610.131 628.635L611.211 629.654ZM602.704 620.194L606.62 616.118L605.675 615.099L601.759 619.175L602.704 620.194ZM594.332 610.442L598.383 606.512L597.438 605.493L593.387 609.423L594.332 610.442ZM586.23 600.69L590.281 596.906L589.336 595.742L585.285 599.526L586.23 600.69ZM578.263 590.648L582.449 586.863L581.639 585.699L577.453 589.483L578.263 590.648ZM570.566 580.314L574.752 576.675L573.942 575.511L569.756 579.149L570.566 580.314ZM563.004 569.98L567.325 566.487L566.515 565.322L562.194 568.815L563.004 569.98ZM555.847 559.355L560.303 556.007L559.493 554.843L555.037 558.19L555.847 559.355ZM548.826 548.439L553.282 545.237L552.471 544.072L548.015 547.274L548.826 548.439ZM542.209 537.377L546.8 534.321L546.125 533.156L541.534 536.213L542.209 537.377ZM535.862 526.17L540.588 523.259L539.913 521.949L535.187 524.86L535.862 526.17ZM529.786 514.672L534.512 511.906L533.837 510.597L529.111 513.362L529.786 514.672ZM524.114 502.883L528.976 500.263L528.435 498.953L523.574 501.573L524.114 502.883ZM518.848 490.948L523.709 488.473L523.169 487.163L518.308 489.492L518.848 490.948ZM513.987 478.867L518.983 476.684L518.443 475.374L513.447 477.557L513.987 478.867ZM509.531 466.496L514.662 464.458L514.257 463.148L509.126 465.186L509.531 466.496ZM505.21 454.27L510.206 452.232C510.071 451.796 509.936 451.359 509.801 450.922L504.67 452.96C504.94 453.251 505.075 453.833 505.21 454.27ZM501.429 441.462L506.695 439.861L506.29 438.551L501.024 440.006C501.294 440.588 501.294 441.025 501.429 441.462ZM498.458 428.654L503.724 427.344L503.454 425.888L498.188 427.052L498.458 428.654ZM496.027 415.7L501.294 414.681L501.024 413.225L495.757 414.244L496.027 415.7ZM494.002 402.601L499.403 401.727L499.268 400.272L493.867 401.145L494.002 402.601ZM492.382 389.501L497.783 388.774L497.648 387.318L492.246 388.046L492.382 389.501ZM491.031 376.402L496.432 375.82L496.297 374.364L490.896 374.947L491.031 376.402ZM489.951 363.303L495.352 362.866L495.217 361.411L489.816 361.847L489.951 363.303ZM489.006 350.204L494.407 349.912L494.272 348.457L488.871 348.748L489.006 350.204ZM488.33 336.959L493.732 336.668V335.212L488.33 335.503V336.959ZM487.925 323.86L493.327 323.714V322.258L487.925 322.404V323.86ZM487.52 310.615L492.922 310.469V309.014L487.52 309.159V310.615ZM487.385 297.515H492.787V296.06H487.385V297.515ZM492.787 284.416V282.961H487.385V284.416H492.787ZM487.385 271.317H492.787V269.862H487.385V271.317ZM487.385 258.218H492.787V256.762H487.385V258.218ZM487.25 244.973H492.652V243.517H487.25V244.973ZM487.25 231.874H492.652V230.418H487.25V231.874ZM487.115 218.774H492.516V217.319H487.115V218.774ZM487.115 205.675H492.516V204.22H487.115V205.675ZM486.98 192.576H492.382V191.12H486.98V192.576ZM486.98 179.331H492.382V177.876H486.98V179.331ZM486.845 166.232H492.246V164.776H486.845V166.232ZM486.845 153.133H492.246V151.677H486.845V153.133ZM486.71 140.033H492.111V138.578H486.71V140.033ZM486.71 126.934H492.111V125.479H486.71V126.934ZM486.575 113.689H491.976V112.234H486.575V113.689ZM486.575 100.59H491.976V99.1346H486.575V100.59Z" fill="#808086"/>
        <path d="M491.848 86.7529L491.852 87.4801L486.451 87.5119L486.446 86.7847L491.848 86.7529Z" fill="#808086"/>
        <path d="M513.852 98.6976L519.253 99.1343L519.118 100.59L513.717 100.153L513.852 98.6976ZM513.041 111.651L518.443 112.088L518.308 113.543L512.906 113.107L513.041 111.651ZM512.231 124.751L517.633 125.042L517.498 126.497L512.096 126.206L512.231 124.751ZM511.556 137.704L516.957 137.995V139.451L511.556 139.16V137.704ZM510.881 150.804L516.282 151.095V152.55L510.881 152.259V150.804ZM510.206 163.757L515.607 164.048V165.504L510.206 165.213V163.757ZM509.666 176.856L515.067 177.148V178.603L509.666 178.312V176.856ZM509.26 189.81L514.662 189.956V191.411L509.26 191.266V189.81ZM508.855 202.909L514.257 203.055V204.51L508.855 204.365V202.909ZM508.585 216.009L513.987 216.154V217.61L508.585 217.464V216.009ZM508.315 228.962L513.717 229.108V230.563L508.315 230.418V228.962ZM508.18 242.062H513.582V243.517H508.18V242.062ZM513.447 255.015V256.471H508.045V255.015H513.447ZM513.582 268.114V269.57H508.18V268.114H513.582ZM513.717 281.068V282.524L508.315 282.669V281.214L513.717 281.068ZM513.987 294.022V295.477L508.585 295.623V294.167L513.987 294.022ZM514.257 307.121V308.577L508.855 308.722V307.267L514.257 307.121ZM514.797 320.075V321.53L509.395 321.821V320.366L514.797 320.075ZM515.337 333.029L515.472 334.484L510.071 334.775L509.936 333.32L515.337 333.029ZM516.147 345.982L516.282 347.438L510.881 347.874L510.746 346.419L516.147 345.982ZM517.092 358.936L517.227 360.391L511.826 360.974L511.691 359.518L517.092 358.936ZM518.173 371.89L518.308 373.345L512.906 373.927L512.771 372.472L518.173 371.89ZM519.523 384.698L519.658 386.153L514.257 386.881L514.122 385.426L519.523 384.698ZM521.143 397.651L521.278 399.107L515.877 399.98L515.742 398.525L521.143 397.651ZM523.169 410.314L523.439 411.77L518.173 412.788L517.903 411.333L523.169 410.314ZM525.329 423.122L525.6 424.578L520.333 425.888L520.063 424.432L525.329 423.122ZM528.165 435.639L528.435 437.095L523.169 438.55L522.764 437.095L528.165 435.639ZM531.541 447.865C531.676 448.302 531.811 448.739 531.946 449.175L526.95 451.213C526.815 450.776 526.68 450.34 526.41 449.757L531.541 447.865ZM535.997 459.8L536.537 461.11L531.541 463.293L531.001 461.983L535.997 459.8ZM540.723 471.589L541.263 472.899L536.402 475.228L535.862 473.918L540.723 471.589ZM545.72 483.524L546.26 484.834L541.398 487.309L540.858 485.999L545.72 483.524ZM550.986 495.168L551.526 496.478L546.665 499.098L545.99 497.788L550.986 495.168ZM556.522 506.666L557.197 507.976L552.471 510.742L551.796 509.432L556.522 506.666ZM562.194 518.019L562.869 519.329L558.143 522.094L557.467 520.784L562.194 518.019ZM568.135 529.226L568.81 530.39L564.219 533.301L563.544 531.991L568.135 529.226ZM574.482 540.433L575.157 541.598L570.566 544.654L569.891 543.344L574.482 540.433ZM580.828 551.349L581.503 552.514L576.912 555.716L576.237 554.551L580.828 551.349ZM587.58 562.12L588.255 563.284L583.799 566.486L582.989 565.322L587.58 562.12ZM594.467 572.745L595.277 573.909L590.821 577.257L590.011 576.092L594.467 572.745ZM601.488 583.224L602.299 584.388L597.978 587.882L597.167 586.717L601.488 583.224ZM608.645 593.703L609.455 594.868L605.134 598.507L604.324 597.342L608.645 593.703ZM616.207 603.892L617.017 605.056L612.831 608.695L612.021 607.53L616.207 603.892ZM623.769 613.935L624.579 615.099L620.393 618.883L619.583 617.719L623.769 613.935ZM631.601 623.832L632.411 624.996L628.36 628.78L627.415 627.616L631.601 623.832ZM639.568 633.583L640.513 634.602L636.462 638.532L635.517 637.513L639.568 633.583ZM647.67 643.19L648.615 644.208L644.699 648.138L643.754 647.119L647.67 643.19ZM655.907 652.65L656.852 653.669L652.936 657.744L651.991 656.725L655.907 652.65ZM660.903 665.604L664.279 661.965L665.224 662.984L661.983 666.332L661.308 667.059L660.363 666.04L660.903 665.604ZM669.14 675.21L670.761 673.463L672.921 671.135L673.866 672.153L671.841 674.337L670.22 676.083L670.085 676.229L669.14 675.21ZM678.593 683.506L680.348 681.468L681.428 680.304L682.373 681.323L681.428 682.487L679.538 684.67L678.593 685.689L677.647 684.67L678.593 683.506ZM688.18 691.511L690.07 689.182L690.34 688.891L691.286 689.91L691.151 690.056L689.26 692.384L687.64 694.276L686.695 693.258L688.18 691.511ZM697.902 699.371L699.253 697.624L700.198 698.497L698.848 700.098L696.552 702.864L695.472 701.845L697.902 699.371ZM707.625 707.085L708.3 706.211L709.38 707.085L708.705 707.812L705.869 711.451L704.789 710.578L707.625 707.085ZM717.482 714.653L718.562 715.526L715.187 720.038L714.106 719.165L717.482 714.653ZM726.935 722.804L728.015 723.677L724.639 728.189L723.559 727.316L726.935 722.804ZM733.551 734.739L736.252 730.954L737.332 731.828L735.307 734.739L734.767 735.466C734.226 735.466 733.551 735.466 733.011 735.612L733.551 734.739Z" fill="#808086"/>
        <path d="M519.928 87.4901L517.227 87.3446L519.928 87.4901L520.063 86.7627L514.662 86.4717V87.0536L519.928 87.4901Z" fill="#808086"/>
        <path d="M590.973 738.677H592.511C593.114 738.677 593.604 738.513 593.979 738.185C594.354 737.856 594.541 737.432 594.541 736.91C594.541 736.389 594.365 735.976 594.014 735.671C593.65 735.36 593.144 735.205 592.493 735.205C591.878 735.205 591.38 735.372 590.999 735.706C590.618 736.04 590.41 736.485 590.375 737.042H587.932C587.979 735.864 588.427 734.924 589.276 734.221C590.126 733.518 591.236 733.166 592.607 733.166C593.932 733.166 595.001 733.477 595.815 734.098C596.636 734.719 597.046 735.536 597.046 736.55C597.046 737.317 596.803 737.971 596.316 738.51C595.842 739.037 595.212 739.371 594.427 739.512V739.564C595.382 739.646 596.138 739.957 596.694 740.496C597.257 741.041 597.538 741.75 597.538 742.623C597.538 743.754 597.072 744.671 596.141 745.374C595.215 746.065 594.017 746.411 592.546 746.411C591.122 746.411 589.971 746.051 589.092 745.33C588.219 744.621 587.75 743.678 587.686 742.5H590.226C590.267 743.039 590.495 743.47 590.911 743.792C591.333 744.114 591.89 744.275 592.581 744.275C593.243 744.275 593.785 744.105 594.207 743.766C594.629 743.426 594.84 742.989 594.84 742.456C594.84 741.876 594.635 741.419 594.225 741.085C593.814 740.757 593.252 740.593 592.537 740.593H590.973V738.677ZM604.139 746.411C602.545 746.411 601.291 745.816 600.377 744.627C599.463 743.443 599.006 741.823 599.006 739.767C599.006 737.722 599.466 736.107 600.386 734.924C601.3 733.746 602.551 733.157 604.139 733.157C605.727 733.157 606.978 733.746 607.892 734.924C608.806 736.102 609.263 737.713 609.263 739.758C609.263 741.809 608.809 743.429 607.9 744.618C606.986 745.813 605.732 746.411 604.139 746.411ZM604.139 744.284C604.9 744.284 605.495 743.892 605.923 743.106C606.351 742.315 606.564 741.202 606.564 739.767C606.564 738.343 606.348 737.238 605.914 736.453C605.486 735.674 604.895 735.284 604.139 735.284C603.383 735.284 602.791 735.674 602.363 736.453C601.924 737.244 601.704 738.349 601.704 739.767C601.704 741.196 601.921 742.31 602.354 743.106C602.782 743.892 603.377 744.284 604.139 744.284ZM628.44 746.13H626.076V737.569H626.006L622.561 746.007H620.891L617.445 737.569H617.375V746.13H615.011V733.447H618.087L621.69 742.438H621.761L625.364 733.447H628.44V746.13ZM639.321 746.13H630.919V733.447H639.321V735.636H633.573V738.694H638.996V740.733H633.573V743.933H639.321V746.13ZM644.595 746.13V735.636H640.886V733.447H650.967V735.636H647.249V746.13H644.595ZM658.042 733.447C659.349 733.447 660.406 733.846 661.215 734.643C662.029 735.439 662.437 736.488 662.437 737.789C662.437 739.084 662.018 740.133 661.18 740.936C660.342 741.732 659.252 742.131 657.91 742.131H655.405V746.13H652.751V733.447H658.042ZM655.405 740.057H657.33C658.092 740.057 658.684 739.86 659.105 739.468C659.527 739.075 659.738 738.519 659.738 737.798C659.738 737.077 659.527 736.521 659.105 736.128C658.689 735.741 658.101 735.548 657.339 735.548H655.405V740.057ZM669.986 733.228C671.867 733.228 673.355 733.816 674.451 734.994C675.553 736.172 676.104 737.771 676.104 739.793C676.104 741.809 675.553 743.405 674.451 744.583C673.35 745.761 671.861 746.35 669.986 746.35C668.105 746.35 666.617 745.761 665.521 744.583C664.42 743.405 663.869 741.809 663.869 739.793C663.869 737.771 664.42 736.172 665.521 734.994C666.617 733.816 668.105 733.228 669.986 733.228ZM669.986 735.442C668.949 735.442 668.123 735.835 667.508 736.62C666.887 737.405 666.576 738.463 666.576 739.793C666.576 741.117 666.884 742.172 667.499 742.957C668.114 743.736 668.943 744.126 669.986 744.126C671.023 744.126 671.85 743.736 672.465 742.957C673.08 742.172 673.388 741.117 673.388 739.793C673.388 738.463 673.08 737.405 672.465 736.62C671.85 735.835 671.023 735.442 669.986 735.442ZM678.028 746.13V733.447H683.627C684.816 733.447 685.76 733.731 686.457 734.3C687.154 734.868 687.503 735.639 687.503 736.611C687.503 737.303 687.274 737.909 686.817 738.431C686.366 738.952 685.801 739.263 685.121 739.362V739.433C685.988 739.497 686.703 739.813 687.266 740.382C687.828 740.962 688.109 741.668 688.109 742.5C688.109 743.619 687.717 744.504 686.932 745.154C686.146 745.805 685.077 746.13 683.724 746.13H678.028ZM680.683 738.721H682.669C683.378 738.721 683.926 738.571 684.312 738.272C684.699 737.979 684.893 737.563 684.893 737.024C684.893 736.515 684.723 736.119 684.383 735.838C684.043 735.562 683.562 735.425 682.941 735.425H680.683V738.721ZM683.047 744.152C684.617 744.152 685.402 743.531 685.402 742.289C685.402 741.076 684.597 740.47 682.985 740.47H680.683V744.152H683.047ZM591.79 762.812C591.69 764.307 591.409 765.323 590.946 765.862V765.933H596.123V757.627H592.124L591.79 762.812ZM589.619 770.635H587.211V765.933H588.099C588.521 765.646 588.825 765.232 589.013 764.693C589.177 764.219 589.288 763.524 589.347 762.61L589.786 755.447H598.777V765.933H600.359V770.635H597.96V768.13H589.619V770.635ZM607.584 755.228C609.465 755.228 610.953 755.816 612.049 756.994C613.15 758.172 613.701 759.771 613.701 761.793C613.701 763.809 613.15 765.405 612.049 766.583C610.947 767.761 609.459 768.35 607.584 768.35C605.703 768.35 604.215 767.761 603.119 766.583C602.018 765.405 601.467 763.809 601.467 761.793C601.467 759.771 602.018 758.172 603.119 756.994C604.215 755.816 605.703 755.228 607.584 755.228ZM607.584 757.442C606.547 757.442 605.721 757.835 605.105 758.62C604.484 759.405 604.174 760.463 604.174 761.793C604.174 763.117 604.481 764.172 605.097 764.957C605.712 765.736 606.541 766.126 607.584 766.126C608.621 766.126 609.447 765.736 610.062 764.957C610.678 764.172 610.985 763.117 610.985 761.793C610.985 760.463 610.678 759.405 610.062 758.62C609.447 757.835 608.621 757.442 607.584 757.442ZM624.784 755.447C626.091 755.447 627.148 755.846 627.957 756.643C628.771 757.439 629.179 758.488 629.179 759.789C629.179 761.084 628.76 762.133 627.922 762.936C627.084 763.732 625.994 764.131 624.652 764.131H622.147V768.13H619.493V755.447H624.784ZM622.147 762.057H624.072C624.834 762.057 625.426 761.86 625.848 761.468C626.27 761.075 626.48 760.519 626.48 759.798C626.48 759.077 626.27 758.521 625.848 758.128C625.432 757.741 624.843 757.548 624.081 757.548H622.147V762.057ZM647.328 768.13H644.076L639.752 762.558H639.682V768.13H637.098V762.558H637.027L632.677 768.13H629.495L634.681 761.503L629.794 755.447H632.8L637.027 760.817H637.098V755.447H639.682V760.817H639.752L643.988 755.447H646.941L642.09 761.459L647.328 768.13ZM652.276 762.812C652.177 764.307 651.896 765.323 651.433 765.862V765.933H656.609V757.627H652.61L652.276 762.812ZM650.105 770.635H647.697V765.933H648.585C649.007 765.646 649.312 765.232 649.499 764.693C649.663 764.219 649.774 763.524 649.833 762.61L650.272 755.447H659.264V765.933H660.846V770.635H658.446V768.13H650.105V770.635Z" fill="black"/>
        <g clip-path="url(#clip0)">
        <path d="M709.849 723.244L687.867 695.014C689.238 694.171 690.577 692.97 691.803 691.508C693.029 690.046 693.979 688.518 694.488 687.119L726.116 703.847C726.116 703.847 718.711 696.641 714.633 693.387C710.375 690.149 694.003 680.569 694.003 680.569C691.664 678.608 686.951 680.466 683.436 684.657C679.921 688.849 678.994 693.716 681.333 695.678C681.333 695.678 693.618 710.13 697.549 713.759C701.463 717.207 709.849 723.244 709.849 723.244Z" fill="#E20000"/>
        <path d="M690.975 682.265C689.919 682.649 689.005 682.801 688.932 682.603C688.86 682.405 689.658 681.932 690.714 681.547C691.77 681.163 692.685 681.011 692.757 681.209C692.829 681.407 692.032 681.88 690.975 682.265Z" fill="#F9D84F"/>
        <path d="M681.854 694.317C681.647 694.28 681.636 693.353 681.831 692.246C682.026 691.139 682.352 690.271 682.56 690.308C682.767 690.344 682.778 691.271 682.583 692.378C682.388 693.485 682.062 694.353 681.854 694.317Z" fill="#F9D84F"/>
        <path d="M718.848 731.123C718.848 731.123 719.741 732.038 721.13 730.381L735.19 713.615C736.579 711.958 735.523 711.238 735.523 711.238C735.523 711.238 715.865 695.085 714.044 693.89C712.224 692.696 697.528 683.692 697.528 683.692C697.04 683.283 695.654 683.946 694.054 685.261C692.699 686.283 691.211 687.858 689.74 689.613C688.187 691.465 686.992 693.285 686.125 694.716C685.109 696.52 684.779 697.904 685.267 698.313L685.185 698.41C685.185 698.41 696.611 711.313 698.105 712.897C699.598 714.482 718.848 731.123 718.848 731.123Z" fill="#4B5151"/>
        <path d="M726.607 723.85L729.713 720.146L731.37 721.536L728.264 725.24L726.607 723.85Z" fill="#2B3030"/>
        <path d="M770.665 760.797L773.771 757.093L775.428 758.483L772.322 762.187L770.665 760.797Z" fill="#2B3030"/>
        <path d="M765.678 766.743L778.757 751.147C779.901 749.783 779.728 747.811 778.364 746.667L740.837 715.196C739.472 714.052 737.501 714.225 736.356 715.59L723.36 731.088C722.215 732.453 722.388 734.424 723.753 735.568L761.28 767.039C762.563 768.281 764.534 768.108 765.678 766.743Z" fill="#4B5151"/>
        <path d="M686.043 694.813L724.252 726.856L732.181 717.401L693.972 685.358C692.617 686.38 691.13 687.956 689.658 689.71C688.09 691.383 686.895 693.203 686.043 694.813Z" fill="#5C5E5E"/>
        <path d="M725.894 728.066L733.822 718.611L776.223 754.169L768.294 763.624L725.894 728.066Z" fill="#5C5E5E"/>
        </g>
        <path d="M809.014 803.938L822.092 788.237C823.237 786.863 823.064 784.878 821.699 783.726L784.172 752.043C782.808 750.891 780.836 751.065 779.692 752.439L766.695 768.042C765.551 769.416 765.724 771.4 767.088 772.553L804.615 804.236C805.898 805.486 807.869 805.312 809.014 803.938Z" fill="#4B5151"/>
        <path d="M769.229 765L777.158 755.481L819.558 791.279L811.63 800.798L769.229 765Z" fill="#5C5E5E"/>
    </g>
</g>

    <g class="decor1">
        <path d="M225.799 122.575C225.672 122.447 225.545 122.575 225.418 122.703L224.655 123.984C224.527 124.112 224.655 124.24 224.782 124.368C224.909 124.496 225.036 124.368 225.163 124.24L225.927 122.959C225.927 122.831 225.927 122.703 225.799 122.575Z" fill="#5A575B"/>
        <path d="M227.072 120.398C226.944 120.27 226.817 120.398 226.69 120.526L225.927 121.807C225.799 121.935 225.927 122.063 226.054 122.191C226.181 122.32 226.308 122.191 226.436 122.063L227.199 120.783C227.326 120.655 227.199 120.526 227.072 120.398Z" fill="#5A575B"/>
        <path d="M233.05 127.058C232.923 126.93 232.796 127.058 232.669 127.187L231.906 128.467C231.778 128.595 231.906 128.723 232.033 128.851C232.16 128.98 232.287 128.851 232.414 128.723L233.178 127.443C233.178 127.315 233.178 127.186 233.05 127.058Z" fill="#5A575B"/>
        <path d="M234.323 124.881C234.195 124.753 234.068 124.881 233.941 125.009L233.178 126.29C233.05 126.418 233.178 126.546 233.305 126.674C233.432 126.802 233.559 126.674 233.686 126.546L234.45 125.265C234.45 125.137 234.45 125.009 234.323 124.881Z" fill="#5A575B"/>
        <path d="M218.826 133.636L218.284 133.3L218.951 132.21L219.493 132.546L218.826 133.636Z" fill="#5A575B"/>
        <path d="M226.665 138.512L226.123 138.176L226.79 137.086L227.332 137.422L226.665 138.512Z" fill="#5A575B"/>
        <path d="M227.072 137.303L227.326 136.791L226.817 136.536" fill="#5A575B"/>
        <path d="M227.835 136.792L226.944 136.152L226.563 136.792L226.944 136.92L226.817 137.176L227.326 137.561L227.835 136.792Z" fill="#5A575B"/>
        <path d="M219.184 132.436L219.439 131.924L220.075 132.308" fill="#5A575B"/>
        <path d="M220.202 132.053L219.439 131.541L218.93 132.309L219.439 132.693L219.566 132.437L219.948 132.565L220.202 132.053Z" fill="#5A575B"/>
        <path d="M234.45 124.113L227.708 119.886L223.382 127.058L223.128 128.339L229.107 132.053L230.252 131.157L234.45 124.113Z" fill="#5A575B"/>
        <path d="M225.618 137.917L219.553 134.155L223.156 128.267L229.221 132.029L225.618 137.917Z" fill="#5A575B"/>
        <path d="M229.234 131.541L225.927 137.048C226.181 137.176 226.563 137.176 226.817 136.792L229.489 132.438C229.616 132.053 229.489 131.669 229.234 131.541Z" fill="#5A575B"/>
        <path d="M223.382 127.827L220.075 133.334C219.821 133.206 219.693 132.693 219.821 132.437L222.492 128.083C222.746 127.827 223.128 127.699 223.382 127.827Z" fill="#5A575B"/>
        <path d="M222.131 136.854C220.456 135.815 219.307 134.632 219.565 134.21C219.823 133.789 221.39 134.289 223.065 135.328C224.74 136.366 225.888 137.55 225.63 137.972C225.372 138.393 223.806 137.893 222.131 136.854Z" fill="#5A575B"/>
        <path d="M243.482 149.086C243.482 148.958 243.354 148.83 243.1 148.83L241.573 149.086C241.446 149.086 241.319 149.214 241.319 149.47C241.319 149.597 241.446 149.725 241.701 149.725L243.227 149.47C243.354 149.342 243.482 149.214 243.482 149.086Z" fill="#5A575B"/>
        <path d="M245.899 148.702C245.899 148.574 245.772 148.446 245.517 148.446L243.991 148.702C243.863 148.702 243.736 148.83 243.736 149.086C243.736 149.214 243.863 149.342 244.118 149.342L245.644 149.086C245.899 148.958 246.026 148.83 245.899 148.702Z" fill="#5A575B"/>
        <path d="M244.881 157.538C244.881 157.41 244.754 157.282 244.499 157.282L242.973 157.538C242.846 157.538 242.718 157.666 242.718 157.922C242.718 158.05 242.846 158.178 243.1 158.178L244.627 157.922C244.754 157.794 244.881 157.666 244.881 157.538Z" fill="#5A575B"/>
        <path d="M247.298 157.026C247.298 156.898 247.171 156.77 246.916 156.77L245.39 157.026C245.263 157.026 245.135 157.155 245.135 157.411C245.135 157.539 245.263 157.667 245.517 157.667L247.044 157.411C247.298 157.411 247.298 157.283 247.298 157.026Z" fill="#5A575B"/>
        <path d="M230.586 151.088L230.484 150.457L231.74 150.252L231.842 150.883L230.586 151.088Z" fill="#5A575B"/>
        <path d="M232.101 160.216L231.999 159.584L233.254 159.379L233.356 160.01L232.101 160.216Z" fill="#5A575B"/>
        <path d="M233.178 159.715L233.814 159.587L233.686 158.819" fill="#5A575B"/>
        <path d="M234.195 159.844L234.068 158.819L233.432 158.947V159.332H233.178L233.305 159.972L234.195 159.844Z" fill="#5A575B"/>
        <path d="M231.778 150.494L232.287 150.366L232.414 151.134" fill="#5A575B"/>
        <path d="M232.796 151.006L232.542 149.982L231.651 150.11L231.778 150.75H232.033L232.16 151.134L232.796 151.006Z" fill="#5A575B"/>
        <path d="M248.061 156.642L246.789 148.83L238.52 150.11L237.503 150.751L238.648 157.795L239.92 158.051L248.061 156.642Z" fill="#5A575B"/>
        <path d="M231.888 159.009L230.746 151.93L237.526 150.822L238.669 157.901L231.888 159.009Z" fill="#5A575B"/>
        <path d="M239.029 157.538L232.669 158.562C232.669 158.947 233.05 159.203 233.432 159.075L238.52 158.306C238.902 158.178 239.156 157.794 239.029 157.538Z" fill="#5A575B"/>
        <path d="M237.884 150.622L231.524 151.647C231.524 151.263 231.651 151.007 232.033 150.878L237.121 150.11C237.503 150.11 237.884 150.366 237.884 150.622Z" fill="#5A575B"/>
        <path d="M230.416 155.423C230.1 153.468 230.238 151.818 230.724 151.739C231.209 151.66 231.858 153.18 232.174 155.135C232.489 157.09 232.351 158.739 231.866 158.819C231.38 158.898 230.731 157.377 230.416 155.423Z" fill="#5A575B"/>
    </g>

    <g class="decor2">
        <g opacity="0.7">
            <path d="M422.657 152.75L422.422 109.207L427.383 109.179L427.618 152.723L422.657 152.75Z" fill="#D7E0E9"/>
            <path d="M423.013 227.799L422.628 156.464L427.589 156.436L427.974 227.772L423.013 227.799Z" fill="#D7E0E9"/>
            <path d="M432.424 187.631L432.183 143.191L437.526 143.161L437.766 187.602L432.424 187.631Z" fill="#D7E0E9"/>
            <path d="M432.651 236.473L432.411 192.032L437.754 192.003L437.994 236.444L432.651 236.473Z" fill="#D7E0E9"/>
            <path d="M400.069 238.17L400.027 230.358L415.292 230.274L415.334 238.086L400.069 238.17Z" fill="#D7E0E9"/>
        </g>
    </g>

</svg>
